<svg id="Layer_1" data-name="Layer 1" xmlns="http://www.w3.org/2000/svg" viewBox="0 0 1072 275"><defs><style>.cls-1{fill:#939393;}.cls-2{fill:#315da8;}.cls-3{fill:#da9928;}.cls-4{fill:#4e9242;}.cls-5{fill:#d9333d;}.cls-6{fill:#dc9a27;}</style></defs><path class="cls-1" d="M57.21,122.16a1.53,1.53,0,0,1-1.06-.43,1.73,1.73,0,0,1-.32-.49,1.43,1.43,0,0,1,0-1.15,1.73,1.73,0,0,1,.32-.49,1.57,1.57,0,0,1,2.12,0,2.11,2.11,0,0,1,.19.23,2.15,2.15,0,0,1,.14.26,1,1,0,0,1,.08.28,1.5,1.5,0,0,1,0,.29,1.53,1.53,0,0,1,0,.3,1,1,0,0,1-.08.28,2.15,2.15,0,0,1-.14.26,2.11,2.11,0,0,1-.19.23l-.22.18a1.65,1.65,0,0,1-.26.14,1,1,0,0,1-.28.08A1.53,1.53,0,0,1,57.21,122.16Z"/><path class="cls-1" d="M1003.32,120.66a1.5,1.5,0,0,1,1.5-1.5h0a1.52,1.52,0,0,1,1.5,1.5h0a1.51,1.51,0,0,1-1.5,1.5h0A1.5,1.5,0,0,1,1003.32,120.66Zm-10,0a1.5,1.5,0,0,1,1.5-1.5h0a1.5,1.5,0,0,1,1.5,1.5h0a1.49,1.49,0,0,1-1.5,1.5h0A1.5,1.5,0,0,1,993.33,120.66Zm-10,0a1.5,1.5,0,0,1,1.5-1.5h0a1.51,1.51,0,0,1,1.5,1.5h0a1.5,1.5,0,0,1-1.5,1.5h0A1.5,1.5,0,0,1,983.37,120.66Zm-10,0a1.5,1.5,0,0,1,1.5-1.5h0a1.5,1.5,0,0,1,1.5,1.5h0a1.5,1.5,0,0,1-1.5,1.5h0A1.5,1.5,0,0,1,973.38,120.66Zm-10,0a1.5,1.5,0,0,1,1.5-1.5h0a1.5,1.5,0,0,1,1.5,1.5h0a1.5,1.5,0,0,1-1.5,1.5h0A1.49,1.49,0,0,1,963.42,120.66Zm-10,0a1.5,1.5,0,0,1,1.5-1.5h0a1.5,1.5,0,0,1,1.5,1.5h0a1.5,1.5,0,0,1-1.5,1.5h0A1.5,1.5,0,0,1,953.44,120.66Zm-10,0a1.5,1.5,0,0,1,1.5-1.5h0a1.5,1.5,0,0,1,1.5,1.5h0a1.5,1.5,0,0,1-1.5,1.5h0A1.5,1.5,0,0,1,943.46,120.66Zm-10,0a1.5,1.5,0,0,1,1.5-1.5h0a1.5,1.5,0,0,1,1.5,1.5h0a1.5,1.5,0,0,1-1.5,1.5h0A1.5,1.5,0,0,1,933.49,120.66Zm-10,0a1.5,1.5,0,0,1,1.5-1.5h0a1.51,1.51,0,0,1,1.5,1.5h0a1.5,1.5,0,0,1-1.5,1.5h0A1.5,1.5,0,0,1,923.52,120.66Zm-10,0a1.5,1.5,0,0,1,1.5-1.5h0a1.5,1.5,0,0,1,1.5,1.5h0a1.5,1.5,0,0,1-1.5,1.5h0A1.5,1.5,0,0,1,913.54,120.66Zm-10,0a1.5,1.5,0,0,1,1.5-1.5h0a1.5,1.5,0,0,1,1.5,1.5h0a1.5,1.5,0,0,1-1.5,1.5h0A1.5,1.5,0,0,1,903.57,120.66Zm-10,0a1.5,1.5,0,0,1,1.5-1.5h0a1.5,1.5,0,0,1,1.5,1.5h0a1.49,1.49,0,0,1-1.5,1.5h0A1.5,1.5,0,0,1,893.58,120.66Zm-10,0a1.5,1.5,0,0,1,1.5-1.5h0a1.5,1.5,0,0,1,1.5,1.5h0a1.5,1.5,0,0,1-1.5,1.5h0A1.5,1.5,0,0,1,883.62,120.66Zm-10,0a1.52,1.52,0,0,1,1.5-1.5h0a1.5,1.5,0,0,1,1.5,1.5h0a1.5,1.5,0,0,1-1.5,1.5h0A1.51,1.51,0,0,1,873.63,120.66Zm-10,0a1.5,1.5,0,0,1,1.5-1.5h0a1.5,1.5,0,0,1,1.5,1.5h0a1.5,1.5,0,0,1-1.5,1.5h0A1.49,1.49,0,0,1,863.67,120.66Zm-10,0a1.51,1.51,0,0,1,1.51-1.5h0a1.51,1.51,0,0,1,1.5,1.5h0a1.5,1.5,0,0,1-1.5,1.5h0A1.51,1.51,0,0,1,853.69,120.66Zm-10,0a1.5,1.5,0,0,1,1.5-1.5h0a1.5,1.5,0,0,1,1.5,1.5h0a1.5,1.5,0,0,1-1.5,1.5h0A1.5,1.5,0,0,1,843.71,120.66Zm-10,0a1.5,1.5,0,0,1,1.5-1.5h0a1.51,1.51,0,0,1,1.5,1.5h0a1.5,1.5,0,0,1-1.5,1.5h0A1.5,1.5,0,0,1,833.75,120.66Zm-10,0a1.5,1.5,0,0,1,1.5-1.5h0a1.51,1.51,0,0,1,1.5,1.5h0a1.5,1.5,0,0,1-1.5,1.5h0A1.5,1.5,0,0,1,823.77,120.66Zm-10,0a1.5,1.5,0,0,1,1.5-1.5h0a1.5,1.5,0,0,1,1.5,1.5h0a1.5,1.5,0,0,1-1.5,1.5h0A1.5,1.5,0,0,1,813.79,120.66Zm-10,0a1.5,1.5,0,0,1,1.5-1.5h0a1.5,1.5,0,0,1,1.5,1.5h0a1.5,1.5,0,0,1-1.5,1.5h0A1.5,1.5,0,0,1,803.82,120.66Zm-10,0a1.51,1.51,0,0,1,1.49-1.5h0a1.51,1.51,0,0,1,1.51,1.5h0a1.5,1.5,0,0,1-1.51,1.5h0A1.5,1.5,0,0,1,793.84,120.66Zm-10,0a1.5,1.5,0,0,1,1.5-1.5h0a1.5,1.5,0,0,1,1.5,1.5h0a1.5,1.5,0,0,1-1.5,1.5h0A1.5,1.5,0,0,1,783.87,120.66Zm-10,0a1.5,1.5,0,0,1,1.5-1.5h0a1.52,1.52,0,0,1,1.5,1.5h0a1.51,1.51,0,0,1-1.5,1.5h0A1.5,1.5,0,0,1,773.9,120.66Zm-10,0a1.5,1.5,0,0,1,1.5-1.5h0a1.5,1.5,0,0,1,1.5,1.5h0a1.5,1.5,0,0,1-1.5,1.5h0A1.49,1.49,0,0,1,763.92,120.66Zm-10,0a1.5,1.5,0,0,1,1.5-1.5h0a1.5,1.5,0,0,1,1.5,1.5h0a1.5,1.5,0,0,1-1.5,1.5h0A1.5,1.5,0,0,1,754,120.66Zm-10,0a1.5,1.5,0,0,1,1.5-1.5h0a1.5,1.5,0,0,1,1.5,1.5h0a1.5,1.5,0,0,1-1.5,1.5h0A1.5,1.5,0,0,1,744,120.66Zm-10,0a1.5,1.5,0,0,1,1.5-1.5h0a1.5,1.5,0,0,1,1.5,1.5h0a1.5,1.5,0,0,1-1.5,1.5h0A1.5,1.5,0,0,1,734,120.66Zm-10,0a1.5,1.5,0,0,1,1.5-1.5h0a1.51,1.51,0,0,1,1.5,1.5h0a1.5,1.5,0,0,1-1.5,1.5h0A1.5,1.5,0,0,1,724,120.66Zm-10,0a1.5,1.5,0,0,1,1.5-1.5h0a1.5,1.5,0,0,1,1.5,1.5h0a1.49,1.49,0,0,1-1.5,1.5h0A1.5,1.5,0,0,1,714,120.66Zm-10,0a1.51,1.51,0,0,1,1.5-1.5h0a1.5,1.5,0,0,1,1.5,1.5h0a1.5,1.5,0,0,1-1.5,1.5h0A1.5,1.5,0,0,1,704.07,120.66Zm-10,0a1.51,1.51,0,0,1,1.5-1.5h0a1.5,1.5,0,0,1,1.5,1.5h0a1.5,1.5,0,0,1-1.5,1.5h0A1.5,1.5,0,0,1,694.09,120.66Zm-10,0a1.5,1.5,0,0,1,1.5-1.5h0a1.5,1.5,0,0,1,1.5,1.5h0a1.5,1.5,0,0,1-1.5,1.5h0A1.5,1.5,0,0,1,684.12,120.66Zm-10,0a1.5,1.5,0,0,1,1.5-1.5h0a1.5,1.5,0,0,1,1.5,1.5h0a1.5,1.5,0,0,1-1.5,1.5h0A1.5,1.5,0,0,1,674.15,120.66Zm-10,0a1.5,1.5,0,0,1,1.5-1.5h0a1.5,1.5,0,0,1,1.5,1.5h0a1.5,1.5,0,0,1-1.5,1.5h0A1.5,1.5,0,0,1,664.17,120.66Zm-10,0a1.5,1.5,0,0,1,1.5-1.5h0a1.5,1.5,0,0,1,1.5,1.5h0a1.5,1.5,0,0,1-1.5,1.5h0A1.5,1.5,0,0,1,654.2,120.66Zm-10,0a1.5,1.5,0,0,1,1.5-1.5h0a1.52,1.52,0,0,1,1.5,1.5h0a1.51,1.51,0,0,1-1.5,1.5h0A1.5,1.5,0,0,1,644.23,120.66Zm-10,0a1.5,1.5,0,0,1,1.5-1.5h0a1.5,1.5,0,0,1,1.5,1.5h0a1.5,1.5,0,0,1-1.5,1.5h0A1.5,1.5,0,0,1,634.25,120.66Zm-10,0a1.5,1.5,0,0,1,1.5-1.5h0a1.52,1.52,0,0,1,1.5,1.5h0a1.51,1.51,0,0,1-1.5,1.5h0A1.5,1.5,0,0,1,624.28,120.66Zm-10,0a1.5,1.5,0,0,1,1.5-1.5h0a1.5,1.5,0,0,1,1.5,1.5h0a1.5,1.5,0,0,1-1.5,1.5h0A1.5,1.5,0,0,1,614.29,120.66Zm-10,0a1.5,1.5,0,0,1,1.5-1.5h0a1.51,1.51,0,0,1,1.5,1.5h0a1.5,1.5,0,0,1-1.5,1.5h0A1.5,1.5,0,0,1,604.33,120.66Zm-10,0a1.51,1.51,0,0,1,1.5-1.5h0a1.5,1.5,0,0,1,1.5,1.5h0a1.5,1.5,0,0,1-1.5,1.5h0A1.5,1.5,0,0,1,594.34,120.66Zm-10,0a1.5,1.5,0,0,1,1.5-1.5h0a1.51,1.51,0,0,1,1.5,1.5h0a1.5,1.5,0,0,1-1.5,1.5h0A1.49,1.49,0,0,1,584.38,120.66Zm-10,0a1.5,1.5,0,0,1,1.5-1.5h0a1.5,1.5,0,0,1,1.5,1.5h0a1.5,1.5,0,0,1-1.5,1.5h0A1.49,1.49,0,0,1,574.4,120.66Zm-10,0a1.5,1.5,0,0,1,1.5-1.5h0a1.5,1.5,0,0,1,1.5,1.5h0a1.5,1.5,0,0,1-1.5,1.5h0A1.5,1.5,0,0,1,564.43,120.66Zm-10,0a1.5,1.5,0,0,1,1.5-1.5h0a1.5,1.5,0,0,1,1.5,1.5h0a1.5,1.5,0,0,1-1.5,1.5h0A1.5,1.5,0,0,1,554.45,120.66Zm-10,0a1.5,1.5,0,0,1,1.5-1.5h0a1.5,1.5,0,0,1,1.5,1.5h0a1.5,1.5,0,0,1-1.5,1.5h0A1.5,1.5,0,0,1,544.48,120.66Zm-10,0a1.51,1.51,0,0,1,1.5-1.5h0a1.5,1.5,0,0,1,1.5,1.5h0a1.5,1.5,0,0,1-1.5,1.5h0A1.5,1.5,0,0,1,534.5,120.66Zm-10,0a1.5,1.5,0,0,1,1.5-1.5h0a1.51,1.51,0,0,1,1.5,1.5h0a1.5,1.5,0,0,1-1.5,1.5h0A1.5,1.5,0,0,1,524.53,120.66Zm-10,0a1.51,1.51,0,0,1,1.5-1.5h0a1.5,1.5,0,0,1,1.5,1.5h0a1.5,1.5,0,0,1-1.5,1.5h0A1.5,1.5,0,0,1,514.55,120.66Zm-10,0a1.5,1.5,0,0,1,1.5-1.5h0a1.5,1.5,0,0,1,1.5,1.5h0a1.5,1.5,0,0,1-1.5,1.5h0A1.5,1.5,0,0,1,504.58,120.66Zm-10,0a1.5,1.5,0,0,1,1.5-1.5h0a1.5,1.5,0,0,1,1.5,1.5h0a1.5,1.5,0,0,1-1.5,1.5h0A1.5,1.5,0,0,1,494.6,120.66Zm-10,0a1.51,1.51,0,0,1,1.5-1.5h0a1.5,1.5,0,0,1,1.5,1.5h0a1.49,1.49,0,0,1-1.5,1.5h0A1.5,1.5,0,0,1,484.62,120.66Zm-10,0a1.51,1.51,0,0,1,1.5-1.5h0a1.5,1.5,0,0,1,1.5,1.5h0a1.5,1.5,0,0,1-1.5,1.5h0A1.5,1.5,0,0,1,474.65,120.66Zm-10,0a1.5,1.5,0,0,1,1.5-1.5h0a1.5,1.5,0,0,1,1.5,1.5h0a1.5,1.5,0,0,1-1.5,1.5h0A1.5,1.5,0,0,1,464.68,120.66Zm-10,0a1.51,1.51,0,0,1,1.51-1.5h0a1.51,1.51,0,0,1,1.5,1.5h0a1.5,1.5,0,0,1-1.5,1.5h0A1.51,1.51,0,0,1,454.7,120.66Zm-10,0a1.5,1.5,0,0,1,1.5-1.5h0a1.5,1.5,0,0,1,1.5,1.5h0a1.5,1.5,0,0,1-1.5,1.5h0A1.5,1.5,0,0,1,444.73,120.66Zm-10,0a1.5,1.5,0,0,1,1.49-1.5h0a1.51,1.51,0,0,1,1.51,1.5h0a1.51,1.51,0,0,1-1.51,1.5h0A1.5,1.5,0,0,1,434.76,120.66Zm-10,0a1.5,1.5,0,0,1,1.5-1.5h0a1.51,1.51,0,0,1,1.5,1.5h0a1.5,1.5,0,0,1-1.5,1.5h0A1.5,1.5,0,0,1,424.78,120.66Zm-10,0a1.5,1.5,0,0,1,1.5-1.5h0a1.52,1.52,0,0,1,1.5,1.5h0a1.51,1.51,0,0,1-1.5,1.5h0A1.5,1.5,0,0,1,414.81,120.66Zm-10,0a1.5,1.5,0,0,1,1.5-1.5h0a1.5,1.5,0,0,1,1.5,1.5h0a1.5,1.5,0,0,1-1.5,1.5h0A1.5,1.5,0,0,1,404.83,120.66Zm-10,0a1.51,1.51,0,0,1,1.5-1.5h0a1.5,1.5,0,0,1,1.5,1.5h0a1.5,1.5,0,0,1-1.5,1.5h0A1.5,1.5,0,0,1,394.85,120.66Zm-10,0a1.5,1.5,0,0,1,1.5-1.5h0a1.5,1.5,0,0,1,1.5,1.5h0a1.5,1.5,0,0,1-1.5,1.5h0A1.5,1.5,0,0,1,384.88,120.66Zm-10,0a1.5,1.5,0,0,1,1.5-1.5h0a1.5,1.5,0,0,1,1.5,1.5h0a1.5,1.5,0,0,1-1.5,1.5h0A1.5,1.5,0,0,1,374.91,120.66Zm-10,0a1.5,1.5,0,0,1,1.5-1.5h0a1.5,1.5,0,0,1,1.5,1.5h0a1.5,1.5,0,0,1-1.5,1.5h0A1.5,1.5,0,0,1,364.93,120.66Zm-10,0a1.5,1.5,0,0,1,1.5-1.5h0a1.51,1.51,0,0,1,1.5,1.5h0a1.5,1.5,0,0,1-1.5,1.5h0A1.49,1.49,0,0,1,355,120.66Zm-10,0a1.5,1.5,0,0,1,1.5-1.5h0a1.5,1.5,0,0,1,1.5,1.5h0a1.5,1.5,0,0,1-1.5,1.5h0A1.5,1.5,0,0,1,345,120.66Zm-10,0a1.5,1.5,0,0,1,1.5-1.5h0a1.51,1.51,0,0,1,1.5,1.5h0a1.5,1.5,0,0,1-1.5,1.5h0A1.5,1.5,0,0,1,335,120.66Zm-10,0a1.5,1.5,0,0,1,1.5-1.5h0a1.51,1.51,0,0,1,1.5,1.5h0a1.5,1.5,0,0,1-1.5,1.5h0A1.5,1.5,0,0,1,325,120.66Zm-10,0a1.5,1.5,0,0,1,1.5-1.5h0a1.5,1.5,0,0,1,1.5,1.5h0a1.5,1.5,0,0,1-1.5,1.5h0A1.5,1.5,0,0,1,315.06,120.66Zm-10,0a1.5,1.5,0,0,1,1.5-1.5h0a1.5,1.5,0,0,1,1.5,1.5h0a1.5,1.5,0,0,1-1.5,1.5h0A1.5,1.5,0,0,1,305.08,120.66Zm-10,0a1.51,1.51,0,0,1,1.5-1.5h0a1.5,1.5,0,0,1,1.5,1.5h0a1.49,1.49,0,0,1-1.5,1.5h0A1.5,1.5,0,0,1,295.1,120.66Zm-10,0a1.51,1.51,0,0,1,1.5-1.5h0a1.5,1.5,0,0,1,1.5,1.5h0a1.49,1.49,0,0,1-1.5,1.5h0A1.5,1.5,0,0,1,285.12,120.66Zm-10,0a1.5,1.5,0,0,1,1.5-1.5h0a1.5,1.5,0,0,1,1.5,1.5h0a1.5,1.5,0,0,1-1.5,1.5h0A1.5,1.5,0,0,1,275.16,120.66Zm-10,0a1.5,1.5,0,0,1,1.5-1.5h0a1.5,1.5,0,0,1,1.5,1.5h0a1.5,1.5,0,0,1-1.5,1.5h0A1.5,1.5,0,0,1,265.18,120.66Zm-10,0a1.5,1.5,0,0,1,1.5-1.5h0a1.5,1.5,0,0,1,1.5,1.5h0a1.5,1.5,0,0,1-1.5,1.5h0A1.5,1.5,0,0,1,255.21,120.66Zm-10,0a1.51,1.51,0,0,1,1.5-1.5h0a1.5,1.5,0,0,1,1.5,1.5h0a1.5,1.5,0,0,1-1.5,1.5h0A1.5,1.5,0,0,1,245.23,120.66Zm-10,0a1.5,1.5,0,0,1,1.5-1.5h0a1.51,1.51,0,0,1,1.5,1.5h0a1.5,1.5,0,0,1-1.5,1.5h0A1.5,1.5,0,0,1,235.26,120.66Zm-10,0a1.51,1.51,0,0,1,1.51-1.5h0a1.52,1.52,0,0,1,1.5,1.5h0a1.51,1.51,0,0,1-1.5,1.5h0A1.51,1.51,0,0,1,225.28,120.66Zm-10,0a1.5,1.5,0,0,1,1.5-1.5h0a1.5,1.5,0,0,1,1.5,1.5h0a1.5,1.5,0,0,1-1.5,1.5h0A1.5,1.5,0,0,1,215.31,120.66Zm-10,0a1.51,1.51,0,0,1,1.5-1.5h0a1.5,1.5,0,0,1,1.5,1.5h0a1.5,1.5,0,0,1-1.5,1.5h0A1.5,1.5,0,0,1,205.33,120.66Zm-10,0a1.51,1.51,0,0,1,1.5-1.5h0a1.5,1.5,0,0,1,1.5,1.5h0a1.49,1.49,0,0,1-1.5,1.5h0A1.5,1.5,0,0,1,195.35,120.66Zm-10,0a1.5,1.5,0,0,1,1.5-1.5h0a1.5,1.5,0,0,1,1.49,1.5h0a1.5,1.5,0,0,1-1.49,1.5h0A1.5,1.5,0,0,1,185.39,120.66Zm-10,0a1.5,1.5,0,0,1,1.5-1.5h0a1.5,1.5,0,0,1,1.5,1.5h0a1.5,1.5,0,0,1-1.5,1.5h0A1.5,1.5,0,0,1,175.41,120.66Zm-10,0a1.51,1.51,0,0,1,1.51-1.5h0a1.51,1.51,0,0,1,1.5,1.5h0a1.5,1.5,0,0,1-1.5,1.5h0A1.5,1.5,0,0,1,165.43,120.66Zm-10,0a1.5,1.5,0,0,1,1.5-1.5h0a1.5,1.5,0,0,1,1.5,1.5h0a1.5,1.5,0,0,1-1.5,1.5h0A1.49,1.49,0,0,1,155.46,120.66Zm-10,0a1.5,1.5,0,0,1,1.5-1.5h0a1.51,1.51,0,0,1,1.5,1.5h0a1.5,1.5,0,0,1-1.5,1.5h0A1.5,1.5,0,0,1,145.49,120.66Zm-10,0a1.5,1.5,0,0,1,1.5-1.5h0a1.51,1.51,0,0,1,1.5,1.5h0a1.5,1.5,0,0,1-1.5,1.5h0A1.5,1.5,0,0,1,135.51,120.66Zm-10,0a1.5,1.5,0,0,1,1.5-1.5h0a1.52,1.52,0,0,1,1.5,1.5h0a1.51,1.51,0,0,1-1.5,1.5h0A1.5,1.5,0,0,1,125.54,120.66Zm-10,0a1.5,1.5,0,0,1,1.5-1.5h0a1.5,1.5,0,0,1,1.5,1.5h0a1.5,1.5,0,0,1-1.5,1.5h0A1.5,1.5,0,0,1,115.56,120.66Zm-10,0a1.51,1.51,0,0,1,1.5-1.5h0a1.5,1.5,0,0,1,1.5,1.5h0a1.49,1.49,0,0,1-1.5,1.5h0A1.5,1.5,0,0,1,105.58,120.66Zm-10,0a1.51,1.51,0,0,1,1.5-1.5h0a1.5,1.5,0,0,1,1.5,1.5h0a1.49,1.49,0,0,1-1.5,1.5h0A1.5,1.5,0,0,1,95.6,120.66Zm-10,0a1.5,1.5,0,0,1,1.5-1.5h0a1.5,1.5,0,0,1,1.5,1.5h0a1.5,1.5,0,0,1-1.5,1.5h0A1.5,1.5,0,0,1,85.64,120.66Zm-10,0a1.5,1.5,0,0,1,1.5-1.5h0a1.5,1.5,0,0,1,1.5,1.5h0a1.5,1.5,0,0,1-1.5,1.5h0A1.5,1.5,0,0,1,75.66,120.66Zm-10,0a1.5,1.5,0,0,1,1.5-1.5h0a1.5,1.5,0,0,1,1.5,1.5h0a1.5,1.5,0,0,1-1.5,1.5h0A1.49,1.49,0,0,1,65.69,120.66Z"/><path class="cls-1" d="M1014.79,122.16a1.53,1.53,0,0,1-1.06-.43,1.51,1.51,0,0,1,0-2.13,1.55,1.55,0,0,1,2.11,0,1.49,1.49,0,0,1,0,2.13A1.49,1.49,0,0,1,1014.79,122.16Z"/><path class="cls-2" d="M238.29,175.16a7.78,7.78,0,0,1-1.36,4.93,4.63,4.63,0,0,1-3.88,1.73,4.72,4.72,0,0,1-3.82-1.68,7.41,7.41,0,0,1-1.45-4.75v-2.95a7.83,7.83,0,0,1,1.38-4.91,4.63,4.63,0,0,1,3.87-1.78,4.69,4.69,0,0,1,3.85,1.7,7.69,7.69,0,0,1,1.41,4.87Zm-2-2.74a6.73,6.73,0,0,0-.81-3.69,2.8,2.8,0,0,0-2.49-1.21,2.76,2.76,0,0,0-2.45,1.23,6.48,6.48,0,0,0-.85,3.61v2.8a6.7,6.7,0,0,0,.83,3.66,2.81,2.81,0,0,0,2.49,1.25,2.78,2.78,0,0,0,2.45-1.16,6.49,6.49,0,0,0,.83-3.55Z"/><path class="cls-2" d="M244.36,178.72l2.2-8.73h1.94l-3.45,11.62h-1.42L240.14,170h1.93Z"/><path class="cls-2" d="M254.49,181.82a4.27,4.27,0,0,1-3.33-1.29,5.66,5.66,0,0,1-1.18-3.8v-1.41a6.56,6.56,0,0,1,1.13-4.07,3.76,3.76,0,0,1,3.17-1.48,3.61,3.61,0,0,1,3,1.3,6.69,6.69,0,0,1,1,4.05v1.25h-6.49v.26a4.22,4.22,0,0,0,.71,2.72,2.45,2.45,0,0,0,2,.85,3.32,3.32,0,0,0,1.48-.32,3.63,3.63,0,0,0,1.19-1l1,1.2A4.31,4.31,0,0,1,254.49,181.82Zm-.21-10.42a2,2,0,0,0-1.75.81,4.8,4.8,0,0,0-.65,2.52h4.58v-.25a4.41,4.41,0,0,0-.6-2.37A1.84,1.84,0,0,0,254.28,171.4Z"/><path class="cls-2" d="M265.44,171.77a4.65,4.65,0,0,0-.86-.08,2.1,2.1,0,0,0-2,1.6v8.32h-1.9V170h1.84l0,1.18a2.37,2.37,0,0,1,2.16-1.4,1.67,1.67,0,0,1,.75.15Z"/><path class="cls-2" d="M273,173.77l.68-7.8h6.8v1.83h-5.2l-.37,4.27a3.59,3.59,0,0,1,2.09-.68,3.34,3.34,0,0,1,2.86,1.42,6.26,6.26,0,0,1,1.05,3.81,5.86,5.86,0,0,1-1.14,3.82,4.18,4.18,0,0,1-6,.23,5,5,0,0,1-1.26-3.18h1.78a3.64,3.64,0,0,0,.77,2,2,2,0,0,0,1.58.68,2,2,0,0,0,1.73-1,4.68,4.68,0,0,0,.63-2.59,4.3,4.3,0,0,0-.68-2.51,2.1,2.1,0,0,0-1.81-1,2.22,2.22,0,0,0-1.51.5l-.51.5Z"/><path class="cls-2" d="M291.42,174.94a10.35,10.35,0,0,1-1,5.17,3.4,3.4,0,0,1-3.16,1.71,3.45,3.45,0,0,1-3.13-1.64,9.58,9.58,0,0,1-1.07-4.94v-2.69a10.1,10.1,0,0,1,1-5.11,3.44,3.44,0,0,1,3.16-1.69,3.48,3.48,0,0,1,3.14,1.6,9.53,9.53,0,0,1,1.06,4.85Zm-1.9-2.72a9.32,9.32,0,0,0-.54-3.66,1.83,1.83,0,0,0-1.76-1.17,1.78,1.78,0,0,0-1.71,1.15,8.53,8.53,0,0,0-.57,3.49v3.22a9.28,9.28,0,0,0,.57,3.71,1.82,1.82,0,0,0,1.74,1.24A1.78,1.78,0,0,0,289,179a8.88,8.88,0,0,0,.57-3.58Z"/><path class="cls-2" d="M302.28,174.94a10.35,10.35,0,0,1-1,5.17,3.4,3.4,0,0,1-3.16,1.71,3.45,3.45,0,0,1-3.13-1.64,9.58,9.58,0,0,1-1.07-4.94v-2.69a10.1,10.1,0,0,1,1-5.11,3.84,3.84,0,0,1,6.3-.09,9.53,9.53,0,0,1,1.06,4.85Zm-1.9-2.72a9.32,9.32,0,0,0-.54-3.66,1.83,1.83,0,0,0-1.76-1.17,1.78,1.78,0,0,0-1.71,1.15,8.53,8.53,0,0,0-.57,3.49v3.22a9.28,9.28,0,0,0,.57,3.71,1.84,1.84,0,0,0,1.74,1.24,1.78,1.78,0,0,0,1.7-1.17,8.88,8.88,0,0,0,.57-3.58Z"/><path class="cls-2" d="M312.19,166.9a1.24,1.24,0,0,1-.27.81,1,1,0,0,1-.82.32,1,1,0,0,1-.8-.32,1.24,1.24,0,0,1-.27-.81,1.28,1.28,0,0,1,.27-.82,1,1,0,0,1,.8-.33,1,1,0,0,1,.82.34A1.28,1.28,0,0,1,312.19,166.9ZM312,181.61h-1.9V170H312Z"/><path class="cls-2" d="M316.82,170l.05,1.25a3.4,3.4,0,0,1,2.83-1.47q3.07,0,3.12,4.11v7.73h-1.89V174a3.2,3.2,0,0,0-.45-1.94,1.66,1.66,0,0,0-1.37-.57,1.91,1.91,0,0,0-1.28.47,3.48,3.48,0,0,0-.9,1.23v8.45H315V170Z"/><path class="cls-2" d="M325.27,175.27a7,7,0,0,1,1-4.09,3.32,3.32,0,0,1,2.88-1.41,3,3,0,0,1,2.6,1.35v-6h1.9v16.5h-1.74l-.09-1.25a3,3,0,0,1-2.68,1.46,3.3,3.3,0,0,1-2.83-1.4,6.76,6.76,0,0,1-1.05-4Zm1.9,1.08a5.58,5.58,0,0,0,.58,2.87,2.08,2.08,0,0,0,1.9.92,2.25,2.25,0,0,0,2.11-1.43v-5.86a2.28,2.28,0,0,0-2.1-1.39,2,2,0,0,0-1.89.91,5.45,5.45,0,0,0-.6,2.82Z"/><path class="cls-2" d="M338.79,166.9a1.24,1.24,0,0,1-.27.81,1,1,0,0,1-.82.32,1,1,0,0,1-.8-.32,1.24,1.24,0,0,1-.27-.81,1.28,1.28,0,0,1,.27-.82,1,1,0,0,1,.8-.33,1,1,0,0,1,.81.34A1.23,1.23,0,0,1,338.79,166.9Zm-.15,14.71h-1.91V170h1.91Z"/><path class="cls-2" d="M344.92,178.72l2.2-8.73h1.94l-3.45,11.62h-1.42L340.7,170h1.93Z"/><path class="cls-2" d="M353.23,166.9a1.23,1.23,0,0,1-.26.81,1.2,1.2,0,0,1-1.63,0,1.29,1.29,0,0,1-.26-.81,1.34,1.34,0,0,1,.26-.82,1,1,0,0,1,.81-.33,1,1,0,0,1,.81.34A1.28,1.28,0,0,1,353.23,166.9Zm-.15,14.71h-1.9V170h1.9Z"/><path class="cls-2" d="M355.67,175.27a7,7,0,0,1,1-4.09,3.32,3.32,0,0,1,2.88-1.41,3,3,0,0,1,2.6,1.35v-6h1.9v16.5h-1.74l-.09-1.25a3,3,0,0,1-2.68,1.46,3.3,3.3,0,0,1-2.83-1.4,6.76,6.76,0,0,1-1.05-4Zm1.9,1.08a5.58,5.58,0,0,0,.58,2.87,2.08,2.08,0,0,0,1.9.92,2.25,2.25,0,0,0,2.11-1.43v-5.86a2.28,2.28,0,0,0-2.1-1.39,2,2,0,0,0-1.89.91,5.45,5.45,0,0,0-.6,2.82Z"/><path class="cls-2" d="M372.91,180.59a3.27,3.27,0,0,1-2.76,1.23,2.77,2.77,0,0,1-2.38-1.09,5.31,5.31,0,0,1-.82-3.17V170h1.89v7.43c0,1.81.55,2.72,1.64,2.72a2.38,2.38,0,0,0,2.38-1.55V170h1.9v11.62H373Z"/><path class="cls-2" d="M383.6,181.61a4.43,4.43,0,0,1-.24-1.27,3,3,0,0,1-2.58,1.48,3.35,3.35,0,0,1-2.47-.88,3.39,3.39,0,0,1-.88-2.5,3.56,3.56,0,0,1,1.2-2.82,5,5,0,0,1,3.3-1.06h1.39v-1.24a1.63,1.63,0,0,0-1.87-1.92,1.94,1.94,0,0,0-1.39.51,1.7,1.7,0,0,0-.54,1.3h-1.9a3,3,0,0,1,.53-1.71,3.68,3.68,0,0,1,1.41-1.27,4.26,4.26,0,0,1,2-.46,3.78,3.78,0,0,1,2.71.89,3.44,3.44,0,0,1,.95,2.58v5.86a7.09,7.09,0,0,0,.37,2.34v.17Zm-2.53-1.52a2.58,2.58,0,0,0,1.33-.38,2.37,2.37,0,0,0,.92-1V176h-1.07a3.58,3.58,0,0,0-2.14.6,2,2,0,0,0-.78,1.64,2.12,2.12,0,0,0,.4,1.44A1.74,1.74,0,0,0,381.07,180.09Z"/><path class="cls-2" d="M390.21,181.61h-1.9v-16.5h1.9Z"/><path class="cls-2" d="M398.85,178.63a1.39,1.39,0,0,0-.47-1,6.67,6.67,0,0,0-1.78-1,11.59,11.59,0,0,1-2.16-1.09,3,3,0,0,1-.94-1,2.83,2.83,0,0,1-.31-1.37,3,3,0,0,1,1-2.36,4.23,4.23,0,0,1,5.38,0,3.34,3.34,0,0,1,1,2.53h-1.89a1.85,1.85,0,0,0-.53-1.33,1.77,1.77,0,0,0-1.34-.56,1.9,1.9,0,0,0-1.32.44,1.47,1.47,0,0,0-.47,1.16,1.29,1.29,0,0,0,.34.93,6.14,6.14,0,0,0,1.69.93,8.23,8.23,0,0,1,2.87,1.62,2.79,2.79,0,0,1,.77,2,3.05,3.05,0,0,1-1,2.42,4.72,4.72,0,0,1-5.74-.13,3.43,3.43,0,0,1-1.13-2.64h1.91a2.12,2.12,0,0,0,.59,1.51,2.15,2.15,0,0,0,1.57.55,2.17,2.17,0,0,0,1.44-.42A1.46,1.46,0,0,0,398.85,178.63Z"/><path class="cls-2" d="M416.66,176.35a6.89,6.89,0,0,1-1,4.12,3.28,3.28,0,0,1-2.81,1.35,3.11,3.11,0,0,1-2.69-1.32v5.58h-1.89V170H410l.09,1.28a3.06,3.06,0,0,1,2.74-1.5,3.26,3.26,0,0,1,2.86,1.33,7.05,7.05,0,0,1,1,4Zm-1.89-1.08a5.3,5.3,0,0,0-.61-2.88,2.12,2.12,0,0,0-1.93-.93,2.23,2.23,0,0,0-2.07,1.36v6.05a2.23,2.23,0,0,0,2.09,1.33,2.11,2.11,0,0,0,1.9-.93,5.41,5.41,0,0,0,.62-2.84Z"/><path class="cls-2" d="M423.91,171.77a4.65,4.65,0,0,0-.86-.08,2.08,2.08,0,0,0-2,1.6v8.32h-1.9V170H421l0,1.18a2.35,2.35,0,0,1,2.16-1.4,1.67,1.67,0,0,1,.75.15Z"/><path class="cls-2" d="M425.19,175.26a6.06,6.06,0,0,1,1.23-4,4,4,0,0,1,3.25-1.48,4.09,4.09,0,0,1,3.25,1.44,6,6,0,0,1,1.26,3.92v1.22a6,6,0,0,1-1.23,4,4.37,4.37,0,0,1-6.5,0,5.88,5.88,0,0,1-1.26-3.86Zm1.9,1.09a4.9,4.9,0,0,0,.7,2.82,2.18,2.18,0,0,0,1.9,1c1.67,0,2.54-1.21,2.59-3.63v-1.31a4.94,4.94,0,0,0-.71-2.82,2.21,2.21,0,0,0-1.9-1,2.17,2.17,0,0,0-1.88,1,4.93,4.93,0,0,0-.7,2.81Z"/><path class="cls-2" d="M439.76,178.72,442,170h1.93l-3.45,11.62H439L435.54,170h1.94Z"/><path class="cls-2" d="M448.08,166.9a1.24,1.24,0,0,1-.27.81,1,1,0,0,1-.82.32,1,1,0,0,1-.8-.32,1.24,1.24,0,0,1-.27-.81,1.28,1.28,0,0,1,.27-.82,1.13,1.13,0,0,1,1.61,0A1.23,1.23,0,0,1,448.08,166.9Zm-.15,14.71H446V170h1.9Z"/><path class="cls-2" d="M450.52,175.27a7,7,0,0,1,1-4.09,3.32,3.32,0,0,1,2.88-1.41,3,3,0,0,1,2.6,1.35v-6h1.91v16.5h-1.74l-.1-1.25a3,3,0,0,1-2.68,1.46,3.31,3.31,0,0,1-2.83-1.4,6.69,6.69,0,0,1-1-4Zm1.9,1.08a5.48,5.48,0,0,0,.58,2.87,2.06,2.06,0,0,0,1.89.92,2.25,2.25,0,0,0,2.11-1.43v-5.86a2.26,2.26,0,0,0-2.1-1.39,2.06,2.06,0,0,0-1.89.91,5.36,5.36,0,0,0-.59,2.82Z"/><path class="cls-2" d="M466,181.82a4.27,4.27,0,0,1-3.33-1.29,5.66,5.66,0,0,1-1.18-3.8v-1.41a6.5,6.5,0,0,1,1.14-4.07,3.74,3.74,0,0,1,3.16-1.48,3.61,3.61,0,0,1,3.05,1.3,6.69,6.69,0,0,1,1,4.05v1.25h-6.49v.26a4.22,4.22,0,0,0,.71,2.72,2.46,2.46,0,0,0,2,.85,3.32,3.32,0,0,0,1.48-.32,3.66,3.66,0,0,0,1.2-1l1,1.2A4.34,4.34,0,0,1,466,181.82Zm-.21-10.42a2,2,0,0,0-1.75.81,4.8,4.8,0,0,0-.65,2.52H468v-.25a4.41,4.41,0,0,0-.6-2.37A1.83,1.83,0,0,0,465.77,171.4Z"/><path class="cls-2" d="M471.73,175.27a7,7,0,0,1,1-4.09,3.32,3.32,0,0,1,2.88-1.41,3,3,0,0,1,2.6,1.35v-6h1.9v16.5h-1.74l-.1-1.25a3,3,0,0,1-2.67,1.46,3.3,3.3,0,0,1-2.83-1.4,6.76,6.76,0,0,1-1-4Zm1.9,1.08a5.58,5.58,0,0,0,.58,2.87,2.08,2.08,0,0,0,1.89.92,2.26,2.26,0,0,0,2.12-1.43v-5.86a2.29,2.29,0,0,0-2.11-1.39,2.07,2.07,0,0,0-1.89.91,5.56,5.56,0,0,0-.59,2.82Z"/><path class="cls-2" d="M498.59,181.61h-2v-7.23h-6.29v7.23h-2V166h2v6.72h6.29V166h2Z"/><path class="cls-2" d="M505.88,181.82a4.24,4.24,0,0,1-3.33-1.29,5.61,5.61,0,0,1-1.18-3.8v-1.41a6.56,6.56,0,0,1,1.13-4.07,3.76,3.76,0,0,1,3.17-1.48,3.62,3.62,0,0,1,3.05,1.3,6.76,6.76,0,0,1,1,4.05v1.25h-6.49v.26a4.22,4.22,0,0,0,.7,2.72,2.48,2.48,0,0,0,2,.85,3.32,3.32,0,0,0,1.48-.32,3.63,3.63,0,0,0,1.19-1l1,1.2A4.31,4.31,0,0,1,505.88,181.82Zm-.21-10.42a2,2,0,0,0-1.75.81,4.8,4.8,0,0,0-.65,2.52h4.58v-.25a4.41,4.41,0,0,0-.6-2.37A1.84,1.84,0,0,0,505.67,171.4Z"/><path class="cls-2" d="M518,181.61a4,4,0,0,1-.25-1.27,3,3,0,0,1-2.58,1.48,3.32,3.32,0,0,1-2.46-.88,3.39,3.39,0,0,1-.89-2.5,3.53,3.53,0,0,1,1.21-2.82,4.94,4.94,0,0,1,3.29-1.06h1.4v-1.24a1.63,1.63,0,0,0-1.87-1.92,2,2,0,0,0-1.4.51,1.73,1.73,0,0,0-.53,1.3H512a3.11,3.11,0,0,1,.52-1.71,3.71,3.71,0,0,1,1.42-1.27,4.23,4.23,0,0,1,2-.46,3.78,3.78,0,0,1,2.71.89,3.44,3.44,0,0,1,1,2.58v5.86a7.09,7.09,0,0,0,.37,2.34v.17Zm-2.54-1.52a2.62,2.62,0,0,0,1.34-.38,2.37,2.37,0,0,0,.92-1V176h-1.07a3.55,3.55,0,0,0-2.14.6,2,2,0,0,0-.79,1.64,2.17,2.17,0,0,0,.4,1.44A1.75,1.75,0,0,0,515.47,180.09Z"/><path class="cls-2" d="M524.62,181.61h-1.91v-16.5h1.91Z"/><path class="cls-2" d="M530.09,167.17V170h1.76v1.53h-1.76v7.22a2,2,0,0,0,.23,1,.84.84,0,0,0,.77.36,2.65,2.65,0,0,0,.77-.13l0,1.6a4.24,4.24,0,0,1-1.32.21,2,2,0,0,1-1.72-.8,3.84,3.84,0,0,1-.59-2.28v-7.22h-1.77V170h1.77v-2.82Z"/><path class="cls-2" d="M536,171.18a3.36,3.36,0,0,1,2.77-1.41q3.09,0,3.13,4.11v7.73H540V174a3.12,3.12,0,0,0-.46-1.94,1.64,1.64,0,0,0-1.37-.57,1.91,1.91,0,0,0-1.27.47,3.38,3.38,0,0,0-.91,1.23v8.45h-1.9v-16.5H536Z"/><path class="cls-2" d="M549.45,177.41a4.15,4.15,0,0,1,.53-2,9.23,9.23,0,0,1,2-2.19,10.81,10.81,0,0,1-1.21-2,4.11,4.11,0,0,1-.33-1.58,4,4,0,0,1,.92-2.8,3.19,3.19,0,0,1,2.47-1,3.11,3.11,0,0,1,2.33.95,3.26,3.26,0,0,1,.91,2.36,4,4,0,0,1-.36,1.71,5.24,5.24,0,0,1-1.29,1.59l-1.11.94,2.75,4a7.7,7.7,0,0,0,.5-2.88h1.7a8.36,8.36,0,0,1-1.09,4.47l1.91,2.75h-2.28l-.79-1.15a4.59,4.59,0,0,1-1.49,1,4.66,4.66,0,0,1-1.8.36,4.16,4.16,0,0,1-3.14-1.22A4.43,4.43,0,0,1,549.45,177.41Zm4.31,2.79a3.06,3.06,0,0,0,2.31-1.18L553,174.5l-.32.26a3.68,3.68,0,0,0-1.3,2.65,3.06,3.06,0,0,0,.65,2A2.2,2.2,0,0,0,553.76,180.2Zm-1.39-10.71a2.81,2.81,0,0,0,.29,1.19,10.83,10.83,0,0,0,.76,1.3l.82-.71a3,3,0,0,0,.89-1,2.73,2.73,0,0,0,.24-1.2,1.71,1.71,0,0,0-.43-1.19,1.4,1.4,0,0,0-1.08-.48,1.23,1.23,0,0,0-1.09.6A2.62,2.62,0,0,0,552.37,169.49Z"/><path class="cls-2" d="M231.11,203.08l.2,1.75.31-1.55,2.51-10.91h1.64l2.43,10.91.31,1.59.22-1.8,1.92-10.7h2L239.5,208h-1.78l-2.61-11.4-.16-.92-.16.92L232.08,208H230.3l-3.1-15.64h2Z"/><path class="cls-2" d="M248.43,208.22a4.27,4.27,0,0,1-3.33-1.29,5.64,5.64,0,0,1-1.18-3.8v-1.41a6.5,6.5,0,0,1,1.14-4.07,3.74,3.74,0,0,1,3.16-1.48,3.61,3.61,0,0,1,3.05,1.3,6.69,6.69,0,0,1,1,4.05v1.25h-6.49V203a4.22,4.22,0,0,0,.71,2.72,2.46,2.46,0,0,0,2,.85,3.32,3.32,0,0,0,1.48-.32,3.76,3.76,0,0,0,1.2-1l1,1.2A4.31,4.31,0,0,1,248.43,208.22Zm-.21-10.42a2,2,0,0,0-1.75.81,4.83,4.83,0,0,0-.65,2.52h4.58v-.26a4.4,4.4,0,0,0-.6-2.36A1.83,1.83,0,0,0,248.22,197.8Z"/><path class="cls-2" d="M256.63,208h-1.9v-16.5h1.9Z"/><path class="cls-2" d="M261.67,208h-1.9v-16.5h1.9Z"/><path class="cls-2" d="M266.45,196.38l.05,1.26a3.4,3.4,0,0,1,2.83-1.47q3.07,0,3.12,4.11V208h-1.89v-7.64a3.2,3.2,0,0,0-.45-1.94,1.66,1.66,0,0,0-1.37-.57,1.91,1.91,0,0,0-1.28.47,3.48,3.48,0,0,0-.9,1.23V208h-1.91V196.38Z"/><path class="cls-2" d="M279.46,208.22a4.24,4.24,0,0,1-3.33-1.29,5.54,5.54,0,0,1-1.18-3.8v-1.41a6.5,6.5,0,0,1,1.13-4.07,3.74,3.74,0,0,1,3.16-1.48,3.61,3.61,0,0,1,3.05,1.3,6.62,6.62,0,0,1,1,4.05v1.25h-6.48V203a4.22,4.22,0,0,0,.7,2.72,2.46,2.46,0,0,0,2,.85,3.29,3.29,0,0,0,1.48-.32,3.56,3.56,0,0,0,1.2-1l1,1.2A4.32,4.32,0,0,1,279.46,208.22Zm-.22-10.42a2,2,0,0,0-1.75.81,4.84,4.84,0,0,0-.64,2.52h4.57v-.26a4.5,4.5,0,0,0-.59-2.36A1.86,1.86,0,0,0,279.24,197.8Z"/><path class="cls-2" d="M291.25,205a1.38,1.38,0,0,0-.46-1.05,6.85,6.85,0,0,0-1.78-1,11.43,11.43,0,0,1-2.17-1.09,3.11,3.11,0,0,1-.94-1,2.83,2.83,0,0,1-.31-1.37,3.06,3.06,0,0,1,1-2.36,4.22,4.22,0,0,1,5.37,0,3.35,3.35,0,0,1,1,2.53h-1.89a1.87,1.87,0,0,0-.53-1.33,1.77,1.77,0,0,0-1.34-.56,1.9,1.9,0,0,0-1.32.44,1.48,1.48,0,0,0-.48,1.16,1.29,1.29,0,0,0,.35.93,5.88,5.88,0,0,0,1.68.93,8.39,8.39,0,0,1,2.88,1.62,2.78,2.78,0,0,1,.76,2,3,3,0,0,1-1,2.42,4.06,4.06,0,0,1-2.79.91,4.13,4.13,0,0,1-2.94-1,3.4,3.4,0,0,1-1.13-2.64h1.91a2,2,0,0,0,2.16,2.06,2.17,2.17,0,0,0,1.44-.42A1.45,1.45,0,0,0,291.25,205Z"/><path class="cls-2" d="M301.27,205a1.38,1.38,0,0,0-.46-1.05,6.85,6.85,0,0,0-1.78-1,11.27,11.27,0,0,1-2.16-1.09,3,3,0,0,1-.94-1,2.83,2.83,0,0,1-.32-1.37,3.06,3.06,0,0,1,1-2.36,4.23,4.23,0,0,1,5.38,0,3.38,3.38,0,0,1,1,2.53h-1.89a1.87,1.87,0,0,0-.53-1.33,1.77,1.77,0,0,0-1.34-.56,1.9,1.9,0,0,0-1.32.44,1.48,1.48,0,0,0-.48,1.16,1.29,1.29,0,0,0,.35.93,6.2,6.2,0,0,0,1.68.93,8.29,8.29,0,0,1,2.88,1.62,2.79,2.79,0,0,1,.77,2,3,3,0,0,1-1.05,2.42,4.06,4.06,0,0,1-2.79.91,4.13,4.13,0,0,1-2.94-1,3.43,3.43,0,0,1-1.13-2.64h1.91a2.12,2.12,0,0,0,.59,1.51,2.15,2.15,0,0,0,1.57.55,2.17,2.17,0,0,0,1.44-.42A1.45,1.45,0,0,0,301.27,205Z"/><path class="cls-2" d="M317.79,204.05a2.42,2.42,0,0,0-.64-1.79,6.44,6.44,0,0,0-2.29-1.21,10.43,10.43,0,0,1-2.53-1.24,4.47,4.47,0,0,1-1.31-1.49,4.4,4.4,0,0,1,.81-5,4.45,4.45,0,0,1,3.25-1.21,4.85,4.85,0,0,1,2.45.62,4.1,4.1,0,0,1,1.65,1.7,5,5,0,0,1,.58,2.41h-2a3.33,3.33,0,0,0-.7-2.25,2.54,2.54,0,0,0-2-.79,2.46,2.46,0,0,0-1.85.67,2.52,2.52,0,0,0-.65,1.87,2.2,2.2,0,0,0,.7,1.66,6.45,6.45,0,0,0,2.2,1.19,7.56,7.56,0,0,1,3.3,1.88,4.25,4.25,0,0,1,1,2.92,4,4,0,0,1-1.23,3.05,4.78,4.78,0,0,1-3.36,1.14,5.5,5.5,0,0,1-2.52-.59,4.54,4.54,0,0,1-1.82-1.68,4.64,4.64,0,0,1-.66-2.48h2a3,3,0,0,0,.81,2.26,3,3,0,0,0,2.21.81,2.65,2.65,0,0,0,1.95-.67A2.46,2.46,0,0,0,317.79,204.05Z"/><path class="cls-2" d="M326.24,208.22a4.24,4.24,0,0,1-3.33-1.29,5.59,5.59,0,0,1-1.18-3.8v-1.41a6.56,6.56,0,0,1,1.13-4.07,3.75,3.75,0,0,1,3.16-1.48,3.63,3.63,0,0,1,3.06,1.3,6.76,6.76,0,0,1,1,4.05v1.25h-6.49V203a4.22,4.22,0,0,0,.7,2.72,2.48,2.48,0,0,0,2,.85,3.25,3.25,0,0,0,1.47-.32,3.56,3.56,0,0,0,1.2-1l1,1.2A4.31,4.31,0,0,1,326.24,208.22ZM326,197.8a2,2,0,0,0-1.75.81,4.84,4.84,0,0,0-.64,2.52h4.58v-.26a4.4,4.4,0,0,0-.6-2.36A1.86,1.86,0,0,0,326,197.8Z"/><path class="cls-2" d="M337.19,198.17a4.74,4.74,0,0,0-.86-.08,2.08,2.08,0,0,0-2,1.6V208h-1.91V196.38h1.85l0,1.19a2.37,2.37,0,0,1,2.16-1.4,1.75,1.75,0,0,1,.76.15Z"/><path class="cls-2" d="M342.57,205.12l2.2-8.74h1.93L343.26,208h-1.42l-3.49-11.63h1.93Z"/><path class="cls-2" d="M350.88,193.3a1.24,1.24,0,0,1-.27.81,1.19,1.19,0,0,1-1.62,0,1.35,1.35,0,0,1,0-1.62,1.13,1.13,0,0,1,1.62,0A1.28,1.28,0,0,1,350.88,193.3ZM350.73,208h-1.9V196.38h1.9Z"/><path class="cls-2" d="M357.76,206.6a2,2,0,0,0,1.51-.59,2.49,2.49,0,0,0,.63-1.67h1.79a3.93,3.93,0,0,1-1.19,2.78,3.74,3.74,0,0,1-2.74,1.1,4.05,4.05,0,0,1-3.3-1.36,6.2,6.2,0,0,1-1.13-4v-1.28a6.17,6.17,0,0,1,1.13-4,4,4,0,0,1,3.29-1.37,3.68,3.68,0,0,1,2.83,1.13,4.56,4.56,0,0,1,1.11,3.08H359.9a3.18,3.18,0,0,0-.62-1.93,1.92,1.92,0,0,0-1.53-.65,2.16,2.16,0,0,0-1.88.84,4.8,4.8,0,0,0-.64,2.73v1.48a5.19,5.19,0,0,0,.61,2.9A2.18,2.18,0,0,0,357.76,206.6Z"/><path class="cls-2" d="M368,208.22a4.24,4.24,0,0,1-3.33-1.29,5.54,5.54,0,0,1-1.18-3.8v-1.41a6.5,6.5,0,0,1,1.13-4.07,3.74,3.74,0,0,1,3.16-1.48,3.61,3.61,0,0,1,3.05,1.3,6.62,6.62,0,0,1,1,4.05v1.25h-6.48V203a4.22,4.22,0,0,0,.7,2.72,2.47,2.47,0,0,0,2,.85,3.28,3.28,0,0,0,1.47-.32,3.56,3.56,0,0,0,1.2-1l1,1.2A4.32,4.32,0,0,1,368,208.22Zm-.22-10.42a2,2,0,0,0-1.75.81,4.84,4.84,0,0,0-.64,2.52H370v-.26a4.5,4.5,0,0,0-.59-2.36A1.86,1.86,0,0,0,367.82,197.8Z"/><path class="cls-2" d="M379.83,205a1.38,1.38,0,0,0-.46-1.05,6.85,6.85,0,0,0-1.78-1,11.43,11.43,0,0,1-2.17-1.09,3.11,3.11,0,0,1-.94-1,2.83,2.83,0,0,1-.31-1.37,3.06,3.06,0,0,1,1-2.36,4.22,4.22,0,0,1,5.37,0,3.35,3.35,0,0,1,1,2.53h-1.89a1.87,1.87,0,0,0-.53-1.33,1.77,1.77,0,0,0-1.34-.56,1.9,1.9,0,0,0-1.32.44,1.48,1.48,0,0,0-.48,1.16,1.29,1.29,0,0,0,.35.93,5.88,5.88,0,0,0,1.68.93,8.39,8.39,0,0,1,2.88,1.62,2.78,2.78,0,0,1,.76,2,3,3,0,0,1-1,2.42,4.06,4.06,0,0,1-2.79.91,4.13,4.13,0,0,1-2.94-1,3.4,3.4,0,0,1-1.13-2.64h1.91a2,2,0,0,0,2.16,2.06,2.17,2.17,0,0,0,1.44-.42A1.45,1.45,0,0,0,379.83,205Z"/><path class="cls-2" d="M391.73,193.57v2.81h1.76v1.54h-1.76v7.22a2,2,0,0,0,.23,1,.84.84,0,0,0,.77.36,2.65,2.65,0,0,0,.77-.13l0,1.6a4.3,4.3,0,0,1-1.33.21,2,2,0,0,1-1.71-.8,3.77,3.77,0,0,1-.6-2.28v-7.22h-1.77v-1.54h1.77v-2.81Z"/><path class="cls-2" d="M397.64,197.58a3.36,3.36,0,0,1,2.77-1.41q3.09,0,3.13,4.11V208h-1.89v-7.64a3.12,3.12,0,0,0-.46-1.94,1.64,1.64,0,0,0-1.37-.57,1.91,1.91,0,0,0-1.27.47,3.38,3.38,0,0,0-.91,1.23V208h-1.9v-16.5h1.9Z"/><path class="cls-2" d="M411.17,198.17a4.65,4.65,0,0,0-.86-.08,2.08,2.08,0,0,0-2,1.6V208h-1.9V196.38h1.84l0,1.19a2.35,2.35,0,0,1,2.15-1.4,1.69,1.69,0,0,1,.76.15Z"/><path class="cls-2" d="M412.45,201.66a6.06,6.06,0,0,1,1.23-4,4,4,0,0,1,3.25-1.48,4.05,4.05,0,0,1,3.24,1.44,6,6,0,0,1,1.27,3.92v1.22a6,6,0,0,1-1.23,4,4.37,4.37,0,0,1-6.5,0,5.88,5.88,0,0,1-1.26-3.86Zm1.9,1.09a4.9,4.9,0,0,0,.7,2.82,2.18,2.18,0,0,0,1.9,1c1.67,0,2.54-1.21,2.59-3.63v-1.31a4.94,4.94,0,0,0-.71-2.82,2.21,2.21,0,0,0-1.9-1,2.17,2.17,0,0,0-1.88,1,4.93,4.93,0,0,0-.7,2.81Z"/><path class="cls-2" d="M429.82,207a3.27,3.27,0,0,1-2.76,1.23,2.77,2.77,0,0,1-2.39-1.09,5.31,5.31,0,0,1-.82-3.17v-7.58h1.89v7.44c0,1.81.55,2.72,1.64,2.72a2.38,2.38,0,0,0,2.38-1.55v-8.61h1.9V208h-1.8Z"/><path class="cls-2" d="M434.15,201.67a7.09,7.09,0,0,1,1-4.11,3.32,3.32,0,0,1,2.89-1.39,3,3,0,0,1,2.7,1.51l.1-1.3h1.71v11.73a4.61,4.61,0,0,1-1.1,3.32,4.07,4.07,0,0,1-3.08,1.15,5.31,5.31,0,0,1-1.93-.42,4,4,0,0,1-1.61-1l.77-1.31a3.68,3.68,0,0,0,2.61,1.16c1.59,0,2.4-.86,2.44-2.59v-1.51a3,3,0,0,1-2.62,1.36,3.29,3.29,0,0,1-2.81-1.36,6.52,6.52,0,0,1-1.05-3.9Zm1.9,1.08a5.59,5.59,0,0,0,.57,2.87,2.06,2.06,0,0,0,1.89.92,2.27,2.27,0,0,0,2.12-1.45v-5.81a2.28,2.28,0,0,0-2.1-1.42,2,2,0,0,0-1.89.91,5.36,5.36,0,0,0-.59,2.82Z"/><path class="cls-2" d="M447.26,197.58a3.35,3.35,0,0,1,2.77-1.41q3.09,0,3.13,4.11V208h-1.89v-7.64a3.12,3.12,0,0,0-.46-1.94,1.64,1.64,0,0,0-1.37-.57,1.89,1.89,0,0,0-1.27.47,3.38,3.38,0,0,0-.91,1.23V208h-1.9v-16.5h1.9Z"/><path class="cls-2" d="M471.1,203a5.88,5.88,0,0,1-1.41,3.86,4.81,4.81,0,0,1-3.63,1.33,4.47,4.47,0,0,1-3.74-1.79,7.74,7.74,0,0,1-1.38-4.85v-2.83a7.51,7.51,0,0,1,1.42-4.83,4.71,4.71,0,0,1,3.88-1.77,4.51,4.51,0,0,1,3.51,1.36,5.89,5.89,0,0,1,1.35,3.87h-2a4.85,4.85,0,0,0-.8-2.72,2.53,2.53,0,0,0-2.07-.82,2.83,2.83,0,0,0-2.46,1.25,6.5,6.5,0,0,0-.86,3.67v2.87a6.9,6.9,0,0,0,.8,3.64,2.62,2.62,0,0,0,2.34,1.27,2.82,2.82,0,0,0,2.21-.77,4.83,4.83,0,0,0,.84-2.74Z"/><path class="cls-2" d="M479.48,208a4,4,0,0,1-.25-1.27,3,3,0,0,1-2.58,1.48,3.32,3.32,0,0,1-2.46-.88,3.41,3.41,0,0,1-.89-2.5,3.56,3.56,0,0,1,1.2-2.82,5,5,0,0,1,3.3-1.06h1.4v-1.23a2,2,0,0,0-.46-1.49,2,2,0,0,0-1.41-.44,2,2,0,0,0-1.4.51,1.7,1.7,0,0,0-.53,1.3h-1.91a3.07,3.07,0,0,1,.53-1.7,3.59,3.59,0,0,1,1.42-1.28,4.2,4.2,0,0,1,2-.46,3.8,3.8,0,0,1,2.71.89,3.48,3.48,0,0,1,.95,2.58v5.86a7.38,7.38,0,0,0,.36,2.34V208Zm-2.54-1.52a2.56,2.56,0,0,0,1.33-.38,2.4,2.4,0,0,0,.93-1v-2.77h-1.08A3.48,3.48,0,0,0,476,203a1.9,1.9,0,0,0-.79,1.63,2.12,2.12,0,0,0,.4,1.44A1.74,1.74,0,0,0,476.94,206.49Z"/><path class="cls-2" d="M488.83,198.17a4.57,4.57,0,0,0-.86-.08,2.1,2.1,0,0,0-2,1.6V208H484V196.38h1.85l0,1.19a2.37,2.37,0,0,1,2.16-1.4,1.67,1.67,0,0,1,.75.15Z"/><path class="cls-2" d="M494.68,208.22a4.24,4.24,0,0,1-3.33-1.29,5.54,5.54,0,0,1-1.18-3.8v-1.41a6.5,6.5,0,0,1,1.13-4.07,3.74,3.74,0,0,1,3.16-1.48,3.61,3.61,0,0,1,3.05,1.3,6.62,6.62,0,0,1,1,4.05v1.25h-6.48V203a4.22,4.22,0,0,0,.7,2.72,2.46,2.46,0,0,0,2,.85,3.29,3.29,0,0,0,1.48-.32,3.56,3.56,0,0,0,1.2-1l1,1.2A4.32,4.32,0,0,1,494.68,208.22Zm-.22-10.42a2,2,0,0,0-1.75.81,4.84,4.84,0,0,0-.64,2.52h4.57v-.26a4.5,4.5,0,0,0-.59-2.36A1.86,1.86,0,0,0,494.46,197.8Z"/><path class="cls-2" d="M515.94,203a5.83,5.83,0,0,1-1.42,3.86,4.77,4.77,0,0,1-3.62,1.33,4.46,4.46,0,0,1-3.74-1.79,7.74,7.74,0,0,1-1.39-4.85v-2.83a7.51,7.51,0,0,1,1.43-4.83,4.71,4.71,0,0,1,3.88-1.77,4.51,4.51,0,0,1,3.51,1.36,5.94,5.94,0,0,1,1.35,3.87h-2a4.84,4.84,0,0,0-.81-2.72,2.51,2.51,0,0,0-2.06-.82,2.81,2.81,0,0,0-2.46,1.25,6.5,6.5,0,0,0-.86,3.67v2.87a6.9,6.9,0,0,0,.8,3.64,2.6,2.6,0,0,0,2.34,1.27,2.82,2.82,0,0,0,2.21-.77A4.83,4.83,0,0,0,514,203Z"/><path class="cls-2" d="M517.93,201.66a6.06,6.06,0,0,1,1.23-4,4,4,0,0,1,3.25-1.48,4.06,4.06,0,0,1,3.25,1.44,6,6,0,0,1,1.27,3.92v1.22a6,6,0,0,1-1.23,4,4.37,4.37,0,0,1-6.5,0,5.89,5.89,0,0,1-1.27-3.86Zm1.91,1.09a4.9,4.9,0,0,0,.7,2.82,2.18,2.18,0,0,0,1.9,1q2.5,0,2.58-3.63v-1.31a4.87,4.87,0,0,0-.71-2.82,2.19,2.19,0,0,0-1.9-1,2.17,2.17,0,0,0-1.87,1,4.93,4.93,0,0,0-.7,2.81Z"/><path class="cls-2" d="M529,201.66a6.06,6.06,0,0,1,1.23-4,4,4,0,0,1,3.25-1.48,4.07,4.07,0,0,1,3.25,1.44,6,6,0,0,1,1.26,3.92v1.22a6,6,0,0,1-1.23,4,4.37,4.37,0,0,1-6.5,0,5.94,5.94,0,0,1-1.26-3.86Zm1.9,1.09a4.9,4.9,0,0,0,.7,2.82,2.18,2.18,0,0,0,1.9,1c1.67,0,2.54-1.21,2.59-3.63v-1.31a4.94,4.94,0,0,0-.71-2.82,2.24,2.24,0,0,0-3.78,0,4.93,4.93,0,0,0-.7,2.81Z"/><path class="cls-2" d="M545.22,198.17a4.65,4.65,0,0,0-.86-.08,2.1,2.1,0,0,0-2,1.6V208h-1.9V196.38h1.85l0,1.19a2.37,2.37,0,0,1,2.16-1.4,1.67,1.67,0,0,1,.75.15Z"/><path class="cls-2" d="M546.51,201.67a7,7,0,0,1,1-4.09,3.33,3.33,0,0,1,2.89-1.41,3,3,0,0,1,2.6,1.35v-6h1.9V208h-1.74l-.1-1.25a3,3,0,0,1-2.67,1.46,3.31,3.31,0,0,1-2.83-1.4,6.62,6.62,0,0,1-1-4Zm1.9,1.08a5.48,5.48,0,0,0,.58,2.87,2.08,2.08,0,0,0,1.89.92,2.26,2.26,0,0,0,2.12-1.43v-5.86a2.29,2.29,0,0,0-2.11-1.39,2.07,2.07,0,0,0-1.89.91,5.46,5.46,0,0,0-.59,2.82Z"/><path class="cls-2" d="M560,193.3a1.24,1.24,0,0,1-.27.81,1.19,1.19,0,0,1-1.62,0,1.35,1.35,0,0,1,0-1.62,1,1,0,0,1,.81-.34,1,1,0,0,1,.81.34A1.28,1.28,0,0,1,560,193.3ZM559.87,208H558V196.38h1.9Z"/><path class="cls-2" d="M564.65,196.38l.06,1.26a3.37,3.37,0,0,1,2.82-1.47q3.09,0,3.13,4.11V208h-1.89v-7.64a3.19,3.19,0,0,0-.46-1.94,1.66,1.66,0,0,0-1.37-.57,1.89,1.89,0,0,0-1.27.47,3.38,3.38,0,0,0-.91,1.23V208h-1.9V196.38Z"/><path class="cls-2" d="M579.49,208a4,4,0,0,1-.25-1.27,3,3,0,0,1-2.58,1.48,3.32,3.32,0,0,1-2.46-.88,3.41,3.41,0,0,1-.89-2.5,3.56,3.56,0,0,1,1.2-2.82,5,5,0,0,1,3.3-1.06h1.4v-1.23a2,2,0,0,0-.46-1.49,2,2,0,0,0-1.41-.44,2,2,0,0,0-1.4.51,1.7,1.7,0,0,0-.54,1.3h-1.9a3.07,3.07,0,0,1,.53-1.7,3.59,3.59,0,0,1,1.42-1.28,4.2,4.2,0,0,1,2-.46,3.8,3.8,0,0,1,2.71.89,3.48,3.48,0,0,1,1,2.58v5.86a7.1,7.1,0,0,0,.36,2.34V208ZM577,206.49a2.56,2.56,0,0,0,1.33-.38,2.4,2.4,0,0,0,.93-1v-2.77h-1.08A3.48,3.48,0,0,0,576,203a1.9,1.9,0,0,0-.79,1.63,2.12,2.12,0,0,0,.4,1.44A1.74,1.74,0,0,0,577,206.49Z"/><path class="cls-2" d="M586.53,193.57v2.81h1.75v1.54h-1.75v7.22a2,2,0,0,0,.23,1,.84.84,0,0,0,.77.36,2.65,2.65,0,0,0,.77-.13l0,1.6a4.24,4.24,0,0,1-1.32.21,2,2,0,0,1-1.72-.8,3.84,3.84,0,0,1-.59-2.28v-7.22h-1.77v-1.54h1.77v-2.81Z"/><path class="cls-2" d="M592.74,193.3a1.24,1.24,0,0,1-.27.81,1.19,1.19,0,0,1-1.62,0,1.35,1.35,0,0,1,0-1.62,1.13,1.13,0,0,1,1.62,0A1.28,1.28,0,0,1,592.74,193.3ZM592.59,208h-1.9V196.38h1.9Z"/><path class="cls-2" d="M595.18,201.66a6.06,6.06,0,0,1,1.23-4,4,4,0,0,1,3.25-1.48,4.06,4.06,0,0,1,3.25,1.44,6,6,0,0,1,1.26,3.92v1.22a6.09,6.09,0,0,1-1.22,4,4.38,4.38,0,0,1-6.51,0,5.94,5.94,0,0,1-1.26-3.86Zm1.9,1.09a4.9,4.9,0,0,0,.71,2.82,2.16,2.16,0,0,0,1.89,1q2.52,0,2.59-3.63v-1.31a4.94,4.94,0,0,0-.71-2.82,2.19,2.19,0,0,0-1.9-1,2.15,2.15,0,0,0-1.87,1,4.93,4.93,0,0,0-.71,2.81Z"/><path class="cls-2" d="M608.42,196.38l.05,1.26a3.39,3.39,0,0,1,2.82-1.47q3.09,0,3.13,4.11V208h-1.89v-7.64a3.12,3.12,0,0,0-.46-1.94,1.64,1.64,0,0,0-1.37-.57,1.91,1.91,0,0,0-1.27.47,3.38,3.38,0,0,0-.91,1.23V208h-1.9V196.38Z"/><path class="cls-2" d="M833.22,175.79a7.8,7.8,0,0,1-1.36,4.93,4.66,4.66,0,0,1-3.88,1.73,4.72,4.72,0,0,1-3.82-1.68,7.44,7.44,0,0,1-1.45-4.76v-2.94a7.81,7.81,0,0,1,1.38-4.91,4.63,4.63,0,0,1,3.87-1.78,4.69,4.69,0,0,1,3.85,1.7,7.68,7.68,0,0,1,1.41,4.86Zm-2-2.74a6.71,6.71,0,0,0-.81-3.69,3.11,3.11,0,0,0-4.94,0,6.45,6.45,0,0,0-.85,3.61v2.8a6.57,6.57,0,0,0,.84,3.65,3.12,3.12,0,0,0,4.93.1,6.53,6.53,0,0,0,.83-3.56Z"/><path class="cls-2" d="M839.29,179.34l2.21-8.73h1.93L840,182.23h-1.42l-3.49-11.62H837Z"/><path class="cls-2" d="M849.42,182.45a4.24,4.24,0,0,1-3.33-1.3,5.61,5.61,0,0,1-1.18-3.79V176a6.61,6.61,0,0,1,1.13-4.08,3.78,3.78,0,0,1,3.17-1.47,3.61,3.61,0,0,1,3,1.3,6.65,6.65,0,0,1,1,4.05V177H846.8v.27a4.24,4.24,0,0,0,.71,2.72,2.48,2.48,0,0,0,2,.85,3.32,3.32,0,0,0,1.48-.32,3.9,3.9,0,0,0,1.2-1l1,1.2A4.31,4.31,0,0,1,849.42,182.45ZM849.21,172a2,2,0,0,0-1.75.81,4.8,4.8,0,0,0-.65,2.52h4.58v-.26a4.4,4.4,0,0,0-.6-2.36A1.83,1.83,0,0,0,849.21,172Z"/><path class="cls-2" d="M860.37,172.39a4.68,4.68,0,0,0-.86-.07,2.09,2.09,0,0,0-2,1.6v8.31h-1.9V170.61h1.85l0,1.18a2.36,2.36,0,0,1,2.16-1.39,1.67,1.67,0,0,1,.75.15Z"/><path class="cls-2" d="M875.76,167.71l-5.38,14.52h-2l5.37-14h-7v-1.64h9Z"/><path class="cls-2" d="M886.35,175.56a10.4,10.4,0,0,1-1,5.18,3.4,3.4,0,0,1-3.16,1.71,3.45,3.45,0,0,1-3.13-1.64,9.62,9.62,0,0,1-1.07-4.95v-2.68a10.08,10.08,0,0,1,1-5.11,3.84,3.84,0,0,1,6.3-.09,9.51,9.51,0,0,1,1.06,4.84Zm-1.9-2.71a9.25,9.25,0,0,0-.54-3.66,1.83,1.83,0,0,0-1.75-1.18,1.8,1.8,0,0,0-1.72,1.16,8.51,8.51,0,0,0-.57,3.48v3.22a9.33,9.33,0,0,0,.57,3.72,1.86,1.86,0,0,0,1.74,1.24,1.78,1.78,0,0,0,1.7-1.17,8.92,8.92,0,0,0,.57-3.58Z"/><path class="cls-2" d="M897.22,175.56a10.51,10.51,0,0,1-1,5.18,3.8,3.8,0,0,1-6.3.07,9.62,9.62,0,0,1-1.07-4.95v-2.68a10.08,10.08,0,0,1,1-5.11,3.84,3.84,0,0,1,6.3-.09,9.61,9.61,0,0,1,1.07,4.84Zm-1.91-2.71a9.25,9.25,0,0,0-.54-3.66A1.83,1.83,0,0,0,893,168a1.79,1.79,0,0,0-1.71,1.16,8.51,8.51,0,0,0-.57,3.48v3.22a9.33,9.33,0,0,0,.57,3.72,1.86,1.86,0,0,0,1.74,1.24,1.81,1.81,0,0,0,1.71-1.17,9.13,9.13,0,0,0,.56-3.58Z"/><path class="cls-2" d="M909,180.83a2,2,0,0,0,1.51-.59,2.46,2.46,0,0,0,.62-1.67h1.8a4,4,0,0,1-1.19,2.78,3.78,3.78,0,0,1-2.74,1.1,4.05,4.05,0,0,1-3.3-1.36,6.22,6.22,0,0,1-1.13-4v-1.28a6.15,6.15,0,0,1,1.13-4A4,4,0,0,1,909,170.4a3.69,3.69,0,0,1,2.83,1.12,4.69,4.69,0,0,1,1.11,3.09h-1.8a3.22,3.22,0,0,0-.61-1.94A1.91,1.91,0,0,0,909,172a2.18,2.18,0,0,0-1.88.83,4.86,4.86,0,0,0-.64,2.74v1.48A5.12,5.12,0,0,0,907,180,2.2,2.2,0,0,0,909,180.83Z"/><path class="cls-2" d="M914.68,175.89a6.11,6.11,0,0,1,1.23-4,4.36,4.36,0,0,1,6.5,0,5.94,5.94,0,0,1,1.26,3.92V177a6.1,6.1,0,0,1-1.22,4,4.38,4.38,0,0,1-6.51,0,6,6,0,0,1-1.26-3.87Zm1.9,1.09a4.9,4.9,0,0,0,.71,2.82,2.18,2.18,0,0,0,1.89,1q2.52,0,2.59-3.63v-1.31a4.87,4.87,0,0,0-.71-2.82,2.17,2.17,0,0,0-1.9-1,2.14,2.14,0,0,0-1.87,1,4.9,4.9,0,0,0-.71,2.8Z"/><path class="cls-2" d="M927.92,170.61l.05,1.26a3.4,3.4,0,0,1,2.83-1.47q3.08,0,3.12,4.11v7.72H932V174.6a3.12,3.12,0,0,0-.46-1.94,1.62,1.62,0,0,0-1.37-.58,1.92,1.92,0,0,0-1.27.48,3.41,3.41,0,0,0-.91,1.23v8.44h-1.9V170.61Z"/><path class="cls-2" d="M939.26,167.8v2.81H941v1.54h-1.75v7.21a1.9,1.9,0,0,0,.23,1,.84.84,0,0,0,.77.35,2.29,2.29,0,0,0,.76-.13l0,1.61a4.24,4.24,0,0,1-1.32.21,2,2,0,0,1-1.72-.81,3.79,3.79,0,0,1-.59-2.27v-7.22H935.6v-1.54h1.77V167.8Z"/><path class="cls-2" d="M948.07,172.39a4.68,4.68,0,0,0-.86-.07,2.09,2.09,0,0,0-2,1.6v8.31h-1.9V170.61h1.84l0,1.18a2.36,2.36,0,0,1,2.16-1.39,1.67,1.67,0,0,1,.75.15Z"/><path class="cls-2" d="M952.16,167.53a1.19,1.19,0,0,1-.27.8,1.16,1.16,0,0,1-1.62,0,1.19,1.19,0,0,1-.27-.8,1.26,1.26,0,0,1,.27-.82,1,1,0,0,1,.81-.33,1,1,0,0,1,.81.34A1.24,1.24,0,0,1,952.16,167.53Zm-.15,14.7h-1.9V170.61H952Z"/><path class="cls-2" d="M963.42,177a7.05,7.05,0,0,1-1,4.09,3.26,3.26,0,0,1-2.83,1.38,3,3,0,0,1-2.78-1.59l-.09,1.37H955v-16.5h1.89v6.16a3,3,0,0,1,2.68-1.49,3.27,3.27,0,0,1,2.87,1.35,7.13,7.13,0,0,1,1,4.08Zm-1.89-1.09A5.48,5.48,0,0,0,961,173a2,2,0,0,0-1.86-.88,2.33,2.33,0,0,0-2.19,1.59v5.53a2.32,2.32,0,0,0,2.21,1.56,2,2,0,0,0,1.85-.9,5.56,5.56,0,0,0,.57-2.8Z"/><path class="cls-2" d="M971.78,181.21a3.25,3.25,0,0,1-2.76,1.24,2.77,2.77,0,0,1-2.39-1.09,5.29,5.29,0,0,1-.81-3.18v-7.57h1.89V178c0,1.82.54,2.72,1.63,2.72a2.37,2.37,0,0,0,2.38-1.54v-8.61h1.9v11.62h-1.8Z"/><path class="cls-2" d="M979,167.8v2.81h1.76v1.54H979v7.21a2,2,0,0,0,.23,1,.86.86,0,0,0,.77.35,2.35,2.35,0,0,0,.77-.13l0,1.61a4.24,4.24,0,0,1-1.32.21,2,2,0,0,1-1.72-.81,3.79,3.79,0,0,1-.59-2.27v-7.22h-1.77v-1.54h1.77V167.8Z"/><path class="cls-2" d="M982.37,175.89a6.11,6.11,0,0,1,1.23-4,4,4,0,0,1,3.25-1.47,4.07,4.07,0,0,1,3.25,1.44,5.94,5.94,0,0,1,1.26,3.92V177a6.1,6.1,0,0,1-1.22,4,4.38,4.38,0,0,1-6.51,0,6,6,0,0,1-1.26-3.87Zm1.9,1.09a4.9,4.9,0,0,0,.7,2.82,2.19,2.19,0,0,0,1.9,1q2.52,0,2.59-3.63v-1.31a4.94,4.94,0,0,0-.71-2.82,2.24,2.24,0,0,0-3.78,0,4.9,4.9,0,0,0-.7,2.8Z"/><path class="cls-2" d="M998.61,172.39a4.61,4.61,0,0,0-.86-.07,2.09,2.09,0,0,0-2,1.6v8.31h-1.9V170.61h1.85l0,1.18a2.36,2.36,0,0,1,2.16-1.39,1.67,1.67,0,0,1,.75.15Z"/><path class="cls-2" d="M1006.15,179.26a1.38,1.38,0,0,0-.46-1,6.81,6.81,0,0,0-1.78-1,11.54,11.54,0,0,1-2.17-1.08,3,3,0,0,1-.94-1,2.8,2.8,0,0,1-.31-1.37,3,3,0,0,1,1-2.35,4.24,4.24,0,0,1,5.37,0,3.36,3.36,0,0,1,1,2.54H1006a1.88,1.88,0,0,0-.52-1.34,1.77,1.77,0,0,0-1.35-.55,1.88,1.88,0,0,0-1.31.43,1.49,1.49,0,0,0-.48,1.16,1.3,1.3,0,0,0,.35.94,6.43,6.43,0,0,0,1.68.93,8.39,8.39,0,0,1,2.88,1.62,2.74,2.74,0,0,1,.76,2,3.06,3.06,0,0,1-1,2.43,4.06,4.06,0,0,1-2.79.91,4.22,4.22,0,0,1-3-1,3.46,3.46,0,0,1-1.12-2.65h1.91a2,2,0,0,0,2.16,2.07,2.12,2.12,0,0,0,1.44-.43A1.41,1.41,0,0,0,1006.15,179.26Z"/><path class="cls-2" d="M825.27,194.2V197H827v1.54h-1.76v7.21a2,2,0,0,0,.23,1.05.86.86,0,0,0,.77.35A2.35,2.35,0,0,0,827,207l0,1.61a4.19,4.19,0,0,1-1.32.21A2,2,0,0,1,824,208a3.72,3.72,0,0,1-.6-2.27v-7.22h-1.77V197h1.77V194.2Z"/><path class="cls-2" d="M828.67,202.28a6.1,6.1,0,0,1,1.23-4,4.36,4.36,0,0,1,6.5,0,5.94,5.94,0,0,1,1.26,3.92v1.22a6.1,6.1,0,0,1-1.22,4,4.38,4.38,0,0,1-6.51,0,6,6,0,0,1-1.26-3.87Zm1.9,1.1a5,5,0,0,0,.7,2.82,2.22,2.22,0,0,0,1.9,1q2.52,0,2.59-3.63v-1.32a4.93,4.93,0,0,0-.71-2.81,2.24,2.24,0,0,0-3.78,0,5,5,0,0,0-.7,2.8Z"/><path class="cls-2" d="M844.75,202.28a6.1,6.1,0,0,1,1.23-4,4.36,4.36,0,0,1,6.5,0,5.94,5.94,0,0,1,1.26,3.92v1.22a6.1,6.1,0,0,1-1.22,4,4.38,4.38,0,0,1-6.51,0,6,6,0,0,1-1.26-3.87Zm1.9,1.1a4.9,4.9,0,0,0,.71,2.82,2.19,2.19,0,0,0,1.89,1q2.52,0,2.59-3.63v-1.32a4.93,4.93,0,0,0-.71-2.81,2.18,2.18,0,0,0-1.9-1,2.13,2.13,0,0,0-1.87,1,4.9,4.9,0,0,0-.71,2.8Z"/><path class="cls-2" d="M862.12,207.61a3.25,3.25,0,0,1-2.76,1.24,2.75,2.75,0,0,1-2.38-1.09,5.36,5.36,0,0,1-.82-3.18V197h1.89v7.43c0,1.82.54,2.72,1.63,2.72a2.38,2.38,0,0,0,2.39-1.55V197H864v11.62h-1.81Z"/><path class="cls-2" d="M871.63,198.79a4.68,4.68,0,0,0-.86-.07,2.07,2.07,0,0,0-2,1.6v8.31h-1.9V197h1.84l0,1.18a2.34,2.34,0,0,1,2.15-1.39,1.69,1.69,0,0,1,.76.15Z"/><path class="cls-2" d="M880.61,208.63h-1.9v-16.5h1.9Z"/><path class="cls-2" d="M883.2,202.28a6.1,6.1,0,0,1,1.23-4,4,4,0,0,1,3.25-1.47,4.07,4.07,0,0,1,3.25,1.44,5.94,5.94,0,0,1,1.26,3.92v1.22a6.05,6.05,0,0,1-1.23,4,4.37,4.37,0,0,1-6.5,0,6,6,0,0,1-1.26-3.87Zm1.9,1.1a4.9,4.9,0,0,0,.7,2.82,2.2,2.2,0,0,0,1.9,1c1.67,0,2.54-1.21,2.59-3.63v-1.32a4.93,4.93,0,0,0-.71-2.81,2.19,2.19,0,0,0-1.9-1,2.16,2.16,0,0,0-1.88,1,4.9,4.9,0,0,0-.7,2.8Z"/><path class="cls-2" d="M898.68,207.23a2,2,0,0,0,1.51-.59,2.46,2.46,0,0,0,.62-1.67h1.8a4,4,0,0,1-1.19,2.78,3.78,3.78,0,0,1-2.74,1.1,4.05,4.05,0,0,1-3.3-1.36,6.22,6.22,0,0,1-1.13-4v-1.28a6.15,6.15,0,0,1,1.13-4,4,4,0,0,1,3.29-1.37,3.69,3.69,0,0,1,2.83,1.12,4.63,4.63,0,0,1,1.11,3.09h-1.8a3.15,3.15,0,0,0-.61-1.94,1.91,1.91,0,0,0-1.53-.64,2.18,2.18,0,0,0-1.88.83,4.84,4.84,0,0,0-.64,2.73v1.49a5.12,5.12,0,0,0,.61,2.9A2.2,2.2,0,0,0,898.68,207.23Z"/><path class="cls-2" d="M910.78,208.63a4,4,0,0,1-.24-1.26,3.05,3.05,0,0,1-2.58,1.48,3.08,3.08,0,0,1-3.35-3.39,3.54,3.54,0,0,1,1.2-2.81,5,5,0,0,1,3.3-1.06h1.39v-1.24a2,2,0,0,0-.46-1.48,2,2,0,0,0-1.41-.44,1.94,1.94,0,0,0-1.39.51,1.7,1.7,0,0,0-.54,1.29h-1.9a3,3,0,0,1,.53-1.7,3.68,3.68,0,0,1,1.41-1.27,4.26,4.26,0,0,1,2-.46,3.78,3.78,0,0,1,2.71.88,3.45,3.45,0,0,1,.95,2.59v5.86a7,7,0,0,0,.37,2.33v.17Zm-2.53-1.51a2.5,2.5,0,0,0,1.33-.39,2.41,2.41,0,0,0,.92-1V203h-1.07a3.65,3.65,0,0,0-2.14.61,1.94,1.94,0,0,0-.78,1.64,2.07,2.07,0,0,0,.4,1.43A1.7,1.7,0,0,0,908.25,207.12Z"/><path class="cls-2" d="M917.39,208.63h-1.9v-16.5h1.9Z"/><path class="cls-2" d="M929.57,208.85a4.21,4.21,0,0,1-3.33-1.3,5.56,5.56,0,0,1-1.18-3.79v-1.41a6.61,6.61,0,0,1,1.13-4.08,3.78,3.78,0,0,1,3.17-1.47,3.62,3.62,0,0,1,3,1.3,6.72,6.72,0,0,1,1,4.05v1.24H927v.27a4.24,4.24,0,0,0,.7,2.72,2.51,2.51,0,0,0,2,.85,3.32,3.32,0,0,0,1.48-.32,3.76,3.76,0,0,0,1.19-1l1,1.2A4.31,4.31,0,0,1,929.57,208.85Zm-.21-10.42a2,2,0,0,0-1.76.81,4.91,4.91,0,0,0-.64,2.52h4.58v-.26a4.4,4.4,0,0,0-.6-2.36A1.81,1.81,0,0,0,929.36,198.43Z"/><path class="cls-2" d="M939.75,207.23a2,2,0,0,0,1.52-.59,2.46,2.46,0,0,0,.62-1.67h1.8a4,4,0,0,1-1.19,2.78,3.8,3.8,0,0,1-2.75,1.1,4,4,0,0,1-3.29-1.36,6.22,6.22,0,0,1-1.13-4v-1.28a6.1,6.1,0,0,1,1.13-4,4,4,0,0,1,3.28-1.37,3.66,3.66,0,0,1,2.83,1.12,4.64,4.64,0,0,1,1.12,3.09h-1.8a3.15,3.15,0,0,0-.62-1.94,1.88,1.88,0,0,0-1.53-.64,2.2,2.2,0,0,0-1.88.83,4.85,4.85,0,0,0-.63,2.73v1.49a5.12,5.12,0,0,0,.61,2.9A2.2,2.2,0,0,0,939.75,207.23Z"/><path class="cls-2" d="M945.48,202.28a6.1,6.1,0,0,1,1.23-4,4.36,4.36,0,0,1,6.5,0,5.94,5.94,0,0,1,1.26,3.92v1.22a6.1,6.1,0,0,1-1.22,4,4.38,4.38,0,0,1-6.51,0,6,6,0,0,1-1.26-3.87Zm1.9,1.1a5,5,0,0,0,.7,2.82,2.22,2.22,0,0,0,1.9,1q2.52,0,2.59-3.63v-1.32a4.93,4.93,0,0,0-.71-2.81,2.24,2.24,0,0,0-3.78,0,5,5,0,0,0-.7,2.8Z"/><path class="cls-2" d="M958.71,197l.06,1.26a3.38,3.38,0,0,1,2.82-1.47q3.09,0,3.13,4.11v7.72h-1.89V201a3.12,3.12,0,0,0-.46-1.94,1.62,1.62,0,0,0-1.37-.58,2,2,0,0,0-1.27.47,3.42,3.42,0,0,0-.91,1.24v8.44h-1.9V197Z"/><path class="cls-2" d="M967.17,202.28a6.1,6.1,0,0,1,1.23-4,4,4,0,0,1,3.25-1.47,4.07,4.07,0,0,1,3.25,1.44,5.94,5.94,0,0,1,1.26,3.92v1.22a6.05,6.05,0,0,1-1.23,4,4.37,4.37,0,0,1-6.5,0,6,6,0,0,1-1.26-3.87Zm1.9,1.1a4.9,4.9,0,0,0,.7,2.82,2.2,2.2,0,0,0,1.9,1c1.67,0,2.54-1.21,2.59-3.63v-1.32a4.93,4.93,0,0,0-.71-2.81,2.24,2.24,0,0,0-3.78,0,4.9,4.9,0,0,0-.7,2.8Z"/><path class="cls-2" d="M980.4,197l.05,1.07a3.47,3.47,0,0,1,2.8-1.28,2.75,2.75,0,0,1,2.72,1.68,3.44,3.44,0,0,1,3-1.68c2.14,0,3.23,1.33,3.29,4v7.83h-1.89V201a3.21,3.21,0,0,0-.46-1.89,1.77,1.77,0,0,0-1.52-.62,1.7,1.7,0,0,0-1.4.67,3,3,0,0,0-.62,1.7v7.78h-1.91V200.9c0-1.61-.68-2.42-2-2.42a2.06,2.06,0,0,0-2,1.44v8.71h-1.89V197Z"/><path class="cls-2" d="M998.34,205.48l2.12-8.47h2l-3.81,13.27a5.14,5.14,0,0,1-1.21,2.27,2.46,2.46,0,0,1-1.78.78,3.93,3.93,0,0,1-1-.17v-1.62l.42.05a2,2,0,0,0,1.29-.39,2.85,2.85,0,0,0,.76-1.36l.38-1.3L994.12,197h2.07Z"/><path class="cls-2" d="M1003.31,207.59a1.27,1.27,0,0,1,.3-.86,1.17,1.17,0,0,1,.92-.34,1.19,1.19,0,0,1,.93.34,1.24,1.24,0,0,1,.32.86,1.16,1.16,0,0,1-.32.83,1.23,1.23,0,0,1-.93.33,1.09,1.09,0,0,1-1.22-1.16Z"/><path class="cls-2" d="M158,168.65a4.92,4.92,0,0,1,4.94,4.94v29.65a4.92,4.92,0,0,1-4.94,4.94H115.12a4.92,4.92,0,0,1-4.94-4.94V173.59a4.92,4.92,0,0,1,4.94-4.94h11.53V167a4.92,4.92,0,0,1,4.94-4.94h9.89a4.92,4.92,0,0,1,4.94,4.94v1.65Zm-42.21,34.59h41.59a.61.61,0,0,0,.42-.21.59.59,0,0,0,.2-.41V174.21a.7.7,0,0,0-.62-.62H115.74a.59.59,0,0,0-.41.2.61.61,0,0,0-.21.42v28.41a.75.75,0,0,0,.62.62Zm30.68-16.47a1.23,1.23,0,0,0-1.24-1.24h-5.76v-5.76a1.23,1.23,0,0,0-1.24-1.24h-3.29a1.23,1.23,0,0,0-1.24,1.24v5.76h-5.76a1.23,1.23,0,0,0-1.24,1.24v3.29a1.21,1.21,0,0,0,.36.88,1.19,1.19,0,0,0,.88.36h5.76v5.76a1.23,1.23,0,0,0,1.24,1.24h3.29a1.23,1.23,0,0,0,1.24-1.24V191.3h5.76a1.19,1.19,0,0,0,.88-.36,1.21,1.21,0,0,0,.36-.88ZM131.59,167v1.65h9.89V167Z"/><path class="cls-3" d="M127.1,230a2.79,2.79,0,0,1-2.09-3.31h0a2.77,2.77,0,0,1,3.31-2.08h0a2.75,2.75,0,0,1,2.08,3.3h0a2.76,2.76,0,0,1-2.69,2.15h0A3.15,3.15,0,0,1,127.1,230Zm15.65-2.1a2.76,2.76,0,0,1,2.07-3.31h0a2.76,2.76,0,0,1,3.3,2.07h0a2.75,2.75,0,0,1-2.07,3.31h0a2.64,2.64,0,0,1-.62.08h0A2.75,2.75,0,0,1,142.75,227.89ZM110,221.77h0a2.76,2.76,0,0,1-.44-3.88h0a2.76,2.76,0,0,1,3.87-.44h0a2.74,2.74,0,0,1,.44,3.88h0a2.75,2.75,0,0,1-2.16,1h0A2.72,2.72,0,0,1,110,221.77Zm49.23-.48a2.77,2.77,0,0,1,.43-3.88h0a2.75,2.75,0,0,1,3.88.43h0a2.75,2.75,0,0,1-.43,3.88h0a2.75,2.75,0,0,1-1.72.6h0A2.78,2.78,0,0,1,159.24,221.29ZM98.16,207a2.77,2.77,0,0,1,1.28-3.69h0a2.76,2.76,0,0,1,3.69,1.28h0a2.77,2.77,0,0,1-1.28,3.69h0a2.69,2.69,0,0,1-1.2.27h0A2.79,2.79,0,0,1,98.16,207Zm73.1,1.21a2.75,2.75,0,0,1-1.29-3.68h0a2.76,2.76,0,0,1,3.69-1.29h0a2.74,2.74,0,0,1,1.28,3.68h0a2.75,2.75,0,0,1-2.49,1.56h0A2.79,2.79,0,0,1,171.26,208.19ZM93.92,188.5a2.75,2.75,0,0,1,2.75-2.76h0a2.76,2.76,0,0,1,2.77,2.75h0a2.78,2.78,0,0,1-2.76,2.77h0A2.76,2.76,0,0,1,93.92,188.5Zm79.71-.08v-.09h0v-.07h0a2.76,2.76,0,0,1,2.75-2.77h0a2.75,2.75,0,0,1,2.77,2.75h0v.09h0v.09h0a2.76,2.76,0,0,1-2.76,2.75h0A2.76,2.76,0,0,1,173.63,188.42ZM99.39,173.68a2.75,2.75,0,0,1-1.3-3.68h0a2.76,2.76,0,0,1,3.68-1.29h0a2.76,2.76,0,0,1,1.3,3.68h0a2.77,2.77,0,0,1-2.5,1.57h0A2.65,2.65,0,0,1,99.39,173.68Zm70.51-1.49a2.75,2.75,0,0,1,1.28-3.68h0a2.75,2.75,0,0,1,3.69,1.26h0a2.76,2.76,0,0,1-1.28,3.69h0a2.69,2.69,0,0,1-1.2.29h0A2.8,2.8,0,0,1,169.9,172.19ZM109.45,159a2.76,2.76,0,0,1,.43-3.88h0a2.77,2.77,0,0,1,3.88.42h0a2.77,2.77,0,0,1-.43,3.89h0a2.7,2.7,0,0,1-1.72.61h0A2.78,2.78,0,0,1,109.45,159Zm50.11.28a2.74,2.74,0,0,1-.44-3.87h0A2.73,2.73,0,0,1,163,155h0a2.75,2.75,0,0,1,.45,3.87h0a2.78,2.78,0,0,1-2.16,1h0A2.71,2.71,0,0,1,159.56,159.32Zm-34.69-9.12a2.76,2.76,0,0,1,2.06-3.32h0a2.76,2.76,0,0,1,3.31,2.08h0a2.74,2.74,0,0,1-2.07,3.3h0a2.56,2.56,0,0,1-.62.07h0A2.76,2.76,0,0,1,124.87,150.2Zm19.81,2a2.77,2.77,0,0,1-2.09-3.3h0a2.76,2.76,0,0,1,3.29-2.09h0a2.77,2.77,0,0,1,2.1,3.29h0a2.77,2.77,0,0,1-2.7,2.16h0A3.21,3.21,0,0,1,144.68,152.22Z"/><path class="cls-3" d="M135.76,237.92a3.42,3.42,0,0,1,3.24-3.6h0a3.43,3.43,0,0,1,3.59,3.24h0a3.44,3.44,0,0,1-3.24,3.6h-.18A3.41,3.41,0,0,1,135.76,237.92Zm-19.55-.76h0a3.41,3.41,0,0,1-1.84-4.47h0a3.42,3.42,0,0,1,4.46-1.85h0a3.43,3.43,0,0,1,1.85,4.48h0a3.44,3.44,0,0,1-3.16,2.11h0A3.38,3.38,0,0,1,116.21,237.16Zm41.09-3.8a3.42,3.42,0,0,1,1.35-4.65h0a3.42,3.42,0,0,1,4.64,1.35h0A3.42,3.42,0,0,1,162,234.7h0a3.25,3.25,0,0,1-1.64.43h0A3.42,3.42,0,0,1,157.3,233.36Zm-60.22-9.84h0a3.42,3.42,0,0,1,.29-4.83h0a3.43,3.43,0,0,1,4.83.28h0a3.43,3.43,0,0,1-.29,4.83h0a3.41,3.41,0,0,1-2.27.86h0A3.44,3.44,0,0,1,97.08,223.52Zm77.67-3.62a3.41,3.41,0,0,1-.8-4.77h0a3.42,3.42,0,0,1,4.77-.78h0a3.4,3.4,0,0,1,.79,4.77h0a3.4,3.4,0,0,1-2.78,1.42h0A3.3,3.3,0,0,1,174.75,219.9Zm-89-17a3.44,3.44,0,0,1,2.35-4.24h0a3.41,3.41,0,0,1,4.22,2.35h0A3.4,3.4,0,0,1,90,205.28h0a3.17,3.17,0,0,1-.95.14h0A3.44,3.44,0,0,1,85.75,203Zm98.86-2.72a3.42,3.42,0,0,1-2.78-4h0a.17.17,0,0,1,0-.07h0s0-.07,0-.1h0a3.44,3.44,0,0,1,3.94-2.8h0a3.42,3.42,0,0,1,2.81,3.94h0s0,.07,0,.1h0s0,.06,0,.1h0a3.42,3.42,0,0,1-3.37,2.83h0A4,4,0,0,1,184.61,200.23Zm-97.33-16.8a3.43,3.43,0,0,1-2.79-4h0a3.42,3.42,0,0,1,4-2.79h0a3.42,3.42,0,0,1,2.79,3.95h0a3.42,3.42,0,0,1-3.37,2.84h0A3.79,3.79,0,0,1,87.28,183.43Zm93.44-7.75a3.42,3.42,0,0,1,2.34-4.23h0a3.42,3.42,0,0,1,4.23,2.34h0A3.41,3.41,0,0,1,185,178h0a3.13,3.13,0,0,1-.95.14h0A3.41,3.41,0,0,1,180.72,175.68ZM94.31,162.56a3.42,3.42,0,0,1-.81-4.77h0a3.42,3.42,0,0,1,4.77-.8h0a3.41,3.41,0,0,1,.8,4.76h0a3.37,3.37,0,0,1-2.78,1.44h0A3.33,3.33,0,0,1,94.31,162.56Zm76.51-4.77h0a3.41,3.41,0,0,1,.28-4.83h0a3.42,3.42,0,0,1,4.82.27h0a3.43,3.43,0,0,1-.27,4.84h0a3.48,3.48,0,0,1-2.28.87h0A3.41,3.41,0,0,1,170.82,157.79Zm-61.12-11a3.41,3.41,0,0,1,1.33-4.64h0a3.42,3.42,0,0,1,4.66,1.34h0a3.42,3.42,0,0,1-1.34,4.64h0a3.31,3.31,0,0,1-1.65.43h0A3.42,3.42,0,0,1,109.7,146.81Zm44.46-.86a3.42,3.42,0,0,1-1.85-4.48h0a3.42,3.42,0,0,1,4.46-1.84h0a3.42,3.42,0,0,1,1.86,4.47h0a3.42,3.42,0,0,1-3.17,2.1h0A3.49,3.49,0,0,1,154.16,146Zm-23.77-6.68a3.41,3.41,0,0,1,3.23-3.59h0a3.41,3.41,0,0,1,3.6,3.23h0A3.42,3.42,0,0,1,134,142.5h-.2A3.41,3.41,0,0,1,130.39,139.27Z"/><path class="cls-1" d="M642,240.39a1.36,1.36,0,0,1,1.35-1.37h0a1.37,1.37,0,0,1,1.37,1.37h0a1.36,1.36,0,0,1-1.37,1.35h0A1.34,1.34,0,0,1,642,240.39Zm0-9.11a1.34,1.34,0,0,1,1.35-1.35h0a1.36,1.36,0,0,1,1.37,1.35h0a1.39,1.39,0,0,1-1.37,1.38h0A1.37,1.37,0,0,1,642,231.28Zm0-9.08a1.35,1.35,0,0,1,1.35-1.36h0a1.37,1.37,0,0,1,1.37,1.36h0a1.37,1.37,0,0,1-1.37,1.36h0A1.35,1.35,0,0,1,642,222.2Zm0-9.09a1.36,1.36,0,0,1,1.35-1.37h0a1.37,1.37,0,0,1,1.37,1.37h0a1.37,1.37,0,0,1-1.37,1.36h0A1.35,1.35,0,0,1,642,213.11Zm0-9.09a1.36,1.36,0,0,1,1.35-1.37h0a1.37,1.37,0,0,1,1.37,1.37h0a1.37,1.37,0,0,1-1.37,1.36h0A1.35,1.35,0,0,1,642,204Zm0-9.1a1.35,1.35,0,0,1,1.35-1.36h0a1.37,1.37,0,0,1,1.37,1.36h0a1.36,1.36,0,0,1-1.37,1.36h0A1.35,1.35,0,0,1,642,194.92Zm0-9.1a1.34,1.34,0,0,1,1.35-1.35h0a1.36,1.36,0,0,1,1.37,1.35h0a1.37,1.37,0,0,1-1.37,1.38h0A1.36,1.36,0,0,1,642,185.82Zm0-9.08a1.35,1.35,0,0,1,1.35-1.36h0a1.37,1.37,0,0,1,1.37,1.36h0a1.37,1.37,0,0,1-1.37,1.36h0A1.35,1.35,0,0,1,642,176.74Zm0-9.09a1.36,1.36,0,0,1,1.35-1.37h0a1.37,1.37,0,0,1,1.37,1.37h0a1.37,1.37,0,0,1-1.37,1.36h0A1.35,1.35,0,0,1,642,167.65Zm0-9.09a1.36,1.36,0,0,1,1.35-1.37h0a1.37,1.37,0,0,1,1.37,1.37h0a1.37,1.37,0,0,1-1.37,1.36h0A1.35,1.35,0,0,1,642,158.56Zm0-9.1a1.35,1.35,0,0,1,1.35-1.36h0a1.37,1.37,0,0,1,1.37,1.36h0a1.36,1.36,0,0,1-1.37,1.36h0A1.35,1.35,0,0,1,642,149.46Zm0-9.09a1.35,1.35,0,0,1,1.35-1.36h0a1.37,1.37,0,0,1,1.37,1.36h0a1.38,1.38,0,0,1-1.37,1.37h0A1.36,1.36,0,0,1,642,140.37Z"/><path class="cls-2" d="M743.87,183.24a5.77,5.77,0,0,1,5.8,5.8v34.82a5.79,5.79,0,0,1-5.8,5.81h-50.3a5.79,5.79,0,0,1-5.8-5.81V189a5.77,5.77,0,0,1,5.8-5.8h13.54V181.3a5.79,5.79,0,0,1,5.81-5.8h11.6a5.79,5.79,0,0,1,5.81,5.8v1.94Zm-50.3,6.53v12.81h50.3V189.77a.84.84,0,0,0-.73-.73H694.3a.71.71,0,0,0-.49.24A.73.73,0,0,0,693.57,189.77Zm50.3,33.37V208.39H726.46v4.35a1.45,1.45,0,0,1-1.45,1.45H712.43a1.43,1.43,0,0,1-1-.42,1.41,1.41,0,0,1-.42-1v-4.35H693.57v14.75a.69.69,0,0,0,.24.48.71.71,0,0,0,.49.24h48.84a.73.73,0,0,0,.49-.24A.69.69,0,0,0,743.87,223.14Zm-31-41.84v1.94h11.6V181.3Z"/><path class="cls-4" d="M764,188.82a11.57,11.57,0,1,0-8.22-3.39A11.19,11.19,0,0,0,764,188.82ZM759.9,173.1a5.82,5.82,0,1,1-1.7,4.11A5.59,5.59,0,0,1,759.9,173.1Z"/><path class="cls-4" d="M791.57,181.68l-3.74-2.17a44.11,44.11,0,0,0,0-4.6l3.74-2.17a3,3,0,0,0,1.27-1.45,2.62,2.62,0,0,0,.19-1.82,30.34,30.34,0,0,0-7.86-13.42,2.43,2.43,0,0,0-1.58-.85,3.28,3.28,0,0,0-1.93.37l-3.75,2.17a28.49,28.49,0,0,0-4-2.29v-4.36a3,3,0,0,0-.6-1.87,2.83,2.83,0,0,0-1.57-1,29.67,29.67,0,0,0-15.48,0,2.76,2.76,0,0,0-1.57,1,2.94,2.94,0,0,0-.61,1.87v4.36a28.49,28.49,0,0,0-4,2.29l-3.74-2.17a3.3,3.3,0,0,0-1.94-.37,2.41,2.41,0,0,0-1.57.85A30.24,30.24,0,0,0,735,169.47a2.67,2.67,0,0,0,.18,1.82,3.12,3.12,0,0,0,1.27,1.45l3.75,2.17c-.05,1-.06,1.91,0,2.87h3.72a12.38,12.38,0,0,1,2,.18c0-.27,0-.54,0-.75a31.93,31.93,0,0,1,.73-5.32l-5.32-3a25.5,25.5,0,0,1,4.11-7.14l5.32,3a33.58,33.58,0,0,1,4.29-3.21,40.13,40.13,0,0,1,4.9-2.11v-6.05a23.64,23.64,0,0,1,8.22,0v6.05a40.13,40.13,0,0,1,4.9,2.11,35.08,35.08,0,0,1,4.29,3.21l5.32-3a25.5,25.5,0,0,1,4.11,7.14l-5.32,3a32.72,32.72,0,0,1,.72,5.32,32.72,32.72,0,0,1-.72,5.32l5.32,3a25.5,25.5,0,0,1-4.11,7.14l-5.32-3a36.2,36.2,0,0,1-4.29,3.21,40.13,40.13,0,0,1-4.9,2.11V201a23.64,23.64,0,0,1-8.22,0V195a40.46,40.46,0,0,1-4.77-2V205.6a2.72,2.72,0,0,0,1.14.63,29.67,29.67,0,0,0,15.48,0,2.83,2.83,0,0,0,1.57-1,3,3,0,0,0,.6-1.88V199a28.49,28.49,0,0,0,4-2.29l3.75,2.17a3.27,3.27,0,0,0,1.93.36,2.38,2.38,0,0,0,1.58-.84A30.34,30.34,0,0,0,793,185a2.62,2.62,0,0,0-.19-1.82A3,3,0,0,0,791.57,181.68Z"/><path class="cls-2" d="M835.54,56.69a7.78,7.78,0,0,1-1.37,4.93,4.63,4.63,0,0,1-3.87,1.73,4.7,4.7,0,0,1-3.82-1.68A7.41,7.41,0,0,1,825,56.92V54a7.78,7.78,0,0,1,1.39-4.92,4.63,4.63,0,0,1,3.86-1.78A4.69,4.69,0,0,1,834.13,49a7.64,7.64,0,0,1,1.41,4.86Zm-2-2.74a6.73,6.73,0,0,0-.81-3.69,2.8,2.8,0,0,0-2.49-1.2,2.76,2.76,0,0,0-2.45,1.22,6.4,6.4,0,0,0-.84,3.61v2.8a6.61,6.61,0,0,0,.83,3.66,3.14,3.14,0,0,0,4.94.09,6.5,6.5,0,0,0,.82-3.55Z"/><path class="cls-2" d="M841.61,60.25l2.2-8.73h1.93l-3.45,11.62h-1.41l-3.49-11.62h1.93Z"/><path class="cls-2" d="M851.74,63.35a4.24,4.24,0,0,1-3.33-1.29,5.54,5.54,0,0,1-1.18-3.8V56.85a6.5,6.5,0,0,1,1.13-4.07,3.74,3.74,0,0,1,3.16-1.48,3.61,3.61,0,0,1,3.05,1.3,6.62,6.62,0,0,1,1,4V57.9h-6.48v.26a4.22,4.22,0,0,0,.7,2.72,2.46,2.46,0,0,0,2,.85,3.16,3.16,0,0,0,1.48-.32,3.56,3.56,0,0,0,1.2-1l1,1.2A4.32,4.32,0,0,1,851.74,63.35Zm-.22-10.42a2,2,0,0,0-1.75.81,4.84,4.84,0,0,0-.64,2.52h4.57V56a4.52,4.52,0,0,0-.59-2.37A1.86,1.86,0,0,0,851.52,52.93Z"/><path class="cls-2" d="M862.68,53.3a4.57,4.57,0,0,0-.86-.08,2.1,2.1,0,0,0-2,1.6v8.32h-1.9V51.52h1.85l0,1.18a2.37,2.37,0,0,1,2.16-1.4,1.67,1.67,0,0,1,.75.15Z"/><path class="cls-2" d="M878.2,63.14h-8.75V61.71l4.46-5.91a12.84,12.84,0,0,0,1.4-2.24,4.48,4.48,0,0,0,.39-1.85,3.25,3.25,0,0,0-.58-2,1.79,1.79,0,0,0-1.52-.77,2.19,2.19,0,0,0-1.84.82,3.7,3.7,0,0,0-.65,2.37H869.2a5.08,5.08,0,0,1,1.19-3.5,4.08,4.08,0,0,1,3.21-1.33,3.81,3.81,0,0,1,2.94,1.15,4.23,4.23,0,0,1,1.08,3q0,2.33-2.42,5.49l-3.48,4.56h6.48Z"/><path class="cls-2" d="M887.51,57.89h1.74v1.62h-1.74v3.63h-1.9V59.51H879.7V58.34l5.81-10.84h2Zm-5.71,0h3.81V50.45Z"/><path class="cls-2" d="M892,55.3l.67-7.8h6.8v1.83h-5.2l-.36,4.27a3.56,3.56,0,0,1,2.08-.68,3.37,3.37,0,0,1,2.87,1.42,6.35,6.35,0,0,1,1,3.81A5.91,5.91,0,0,1,898.72,62a4.18,4.18,0,0,1-6,.23A5,5,0,0,1,891.47,59h1.79a3.64,3.64,0,0,0,.76,2,2.06,2.06,0,0,0,1.59.68,2,2,0,0,0,1.73-1,4.77,4.77,0,0,0,.62-2.59,4.3,4.3,0,0,0-.67-2.51,2.1,2.1,0,0,0-1.81-1,2.24,2.24,0,0,0-1.52.49l-.5.5Z"/><path class="cls-2" d="M915.63,57.89a7,7,0,0,1-1,4.11,3.28,3.28,0,0,1-2.81,1.35,3.12,3.12,0,0,1-2.7-1.32v5.58h-1.89V51.52H909l.1,1.28a3.06,3.06,0,0,1,2.74-1.5,3.26,3.26,0,0,1,2.85,1.33,7.05,7.05,0,0,1,1,4Zm-1.89-1.09a5.42,5.42,0,0,0-.6-2.88,2.13,2.13,0,0,0-1.93-.93,2.25,2.25,0,0,0-2.08,1.36v6a2.25,2.25,0,0,0,2.1,1.33,2.09,2.09,0,0,0,1.89-.93,5.29,5.29,0,0,0,.62-2.84Z"/><path class="cls-2" d="M922.24,63.35a4.24,4.24,0,0,1-3.33-1.29,5.54,5.54,0,0,1-1.18-3.8V56.85a6.5,6.5,0,0,1,1.13-4.07A3.75,3.75,0,0,1,922,51.3a3.61,3.61,0,0,1,3.05,1.3,6.68,6.68,0,0,1,1,4V57.9h-6.49v.26a4.22,4.22,0,0,0,.7,2.72,2.47,2.47,0,0,0,2,.85,3.15,3.15,0,0,0,1.47-.32,3.56,3.56,0,0,0,1.2-1l1,1.2A4.31,4.31,0,0,1,922.24,63.35ZM922,52.93a2,2,0,0,0-1.75.81,4.84,4.84,0,0,0-.64,2.52h4.57V56a4.42,4.42,0,0,0-.59-2.37A1.86,1.86,0,0,0,922,52.93Z"/><path class="cls-2" d="M928,56.79a6.06,6.06,0,0,1,1.23-4,4,4,0,0,1,3.24-1.48,4.06,4.06,0,0,1,3.25,1.44A6,6,0,0,1,937,56.66v1.23a6,6,0,0,1-1.23,4,4.37,4.37,0,0,1-6.5,0A5.83,5.83,0,0,1,928,58.06Zm1.9,1.1a5,5,0,0,0,.7,2.82,2.19,2.19,0,0,0,1.9,1c1.67,0,2.54-1.21,2.59-3.63V56.79a4.94,4.94,0,0,0-.71-2.82,2.22,2.22,0,0,0-1.91-1,2.17,2.17,0,0,0-1.87,1,4.93,4.93,0,0,0-.7,2.81Z"/><path class="cls-2" d="M947.83,57.89a6.88,6.88,0,0,1-1,4.11A3.28,3.28,0,0,1,944,63.35,3.11,3.11,0,0,1,941.33,62v5.58h-1.89V51.52h1.72l.09,1.28A3.06,3.06,0,0,1,944,51.3a3.26,3.26,0,0,1,2.86,1.33,7.13,7.13,0,0,1,1,4Zm-1.89-1.09a5.32,5.32,0,0,0-.61-2.88A2.12,2.12,0,0,0,943.4,53a2.23,2.23,0,0,0-2.07,1.36v6a2.23,2.23,0,0,0,2.09,1.33,2.11,2.11,0,0,0,1.9-.93,5.39,5.39,0,0,0,.62-2.84Z"/><path class="cls-2" d="M952.33,63.14h-1.9V46.64h1.9Z"/><path class="cls-2" d="M959.47,63.35a4.24,4.24,0,0,1-3.33-1.29,5.59,5.59,0,0,1-1.18-3.8V56.85a6.56,6.56,0,0,1,1.13-4.07,3.76,3.76,0,0,1,3.17-1.48,3.62,3.62,0,0,1,3,1.3,6.76,6.76,0,0,1,1,4V57.9h-6.49v.26a4.22,4.22,0,0,0,.7,2.72,2.48,2.48,0,0,0,2,.85,3.19,3.19,0,0,0,1.48-.32,3.63,3.63,0,0,0,1.19-1l1,1.2A4.31,4.31,0,0,1,959.47,63.35Zm-.21-10.42a2,2,0,0,0-1.76.81,4.84,4.84,0,0,0-.64,2.52h4.58V56a4.41,4.41,0,0,0-.6-2.37A1.85,1.85,0,0,0,959.26,52.93Z"/><path class="cls-2" d="M974.69,61.73a2,2,0,0,0,1.52-.58,2.51,2.51,0,0,0,.62-1.67h1.79a3.92,3.92,0,0,1-1.18,2.77,3.76,3.76,0,0,1-2.75,1.1A4,4,0,0,1,971.4,62a6.14,6.14,0,0,1-1.13-4V56.67a6.17,6.17,0,0,1,1.12-4,4,4,0,0,1,3.29-1.37,3.68,3.68,0,0,1,2.83,1.13,4.56,4.56,0,0,1,1.11,3.08h-1.79a3.12,3.12,0,0,0-.62-1.93,1.92,1.92,0,0,0-1.53-.65,2.18,2.18,0,0,0-1.88.84,4.73,4.73,0,0,0-.63,2.73V58a5.1,5.1,0,0,0,.61,2.9A2.17,2.17,0,0,0,974.69,61.73Z"/><path class="cls-2" d="M986.8,63.14a4,4,0,0,1-.25-1.27A3,3,0,0,1,984,63.35a3.32,3.32,0,0,1-2.46-.88,3.39,3.39,0,0,1-.89-2.5,3.5,3.5,0,0,1,1.21-2.81,4.94,4.94,0,0,1,3.29-1.07h1.4V54.86a1.63,1.63,0,0,0-1.87-1.93,2,2,0,0,0-1.4.51,1.75,1.75,0,0,0-.53,1.3h-1.9a3.06,3.06,0,0,1,.52-1.7,3.66,3.66,0,0,1,1.42-1.28,4.23,4.23,0,0,1,2-.46,3.78,3.78,0,0,1,2.71.89,3.44,3.44,0,0,1,.95,2.58v5.87a7.07,7.07,0,0,0,.37,2.33v.17Zm-2.54-1.52a2.62,2.62,0,0,0,1.34-.38,2.37,2.37,0,0,0,.92-1V57.5h-1.07a3.56,3.56,0,0,0-2.14.61,1.93,1.93,0,0,0-.79,1.63,2.17,2.17,0,0,0,.4,1.44A1.72,1.72,0,0,0,984.26,61.62Z"/><path class="cls-2" d="M993.41,63.14H991.5V46.64h1.91Z"/><path class="cls-2" d="M998.44,63.14h-1.9V46.64h1.9Z"/><path class="cls-2" d="M835.58,89.54h-2l-6.26-12.05V89.54h-2V73.9h2L833.63,86V73.9h2Z"/><path class="cls-2" d="M842.88,89.75a4.27,4.27,0,0,1-3.34-1.29,5.64,5.64,0,0,1-1.18-3.8V83.25a6.5,6.5,0,0,1,1.14-4.07,3.74,3.74,0,0,1,3.16-1.48,3.61,3.61,0,0,1,3.05,1.3,6.69,6.69,0,0,1,1,4V84.3h-6.49v.26a4.22,4.22,0,0,0,.71,2.72,2.46,2.46,0,0,0,2,.85,3.19,3.19,0,0,0,1.48-.32,3.56,3.56,0,0,0,1.2-1l1,1.2A4.32,4.32,0,0,1,842.88,89.75Zm-.22-10.42a2,2,0,0,0-1.75.81,4.83,4.83,0,0,0-.65,2.52h4.58v-.25a4.52,4.52,0,0,0-.59-2.37A1.86,1.86,0,0,0,842.66,79.33Z"/><path class="cls-2" d="M857.69,86.2l1.76-8.28h1.88l-2.85,11.62H857l-2.27-8.32-2.21,8.32H851l-2.82-11.62H850l1.8,8.07L854,77.92h1.51Z"/><path class="cls-2" d="M878.86,89.54h-2V82.31h-6.29v7.23h-2V73.9h2v6.72h6.29V73.9h2Z"/><path class="cls-2" d="M881.6,83.19a6.06,6.06,0,0,1,1.23-4,4,4,0,0,1,3.25-1.48,4.06,4.06,0,0,1,3.25,1.44,6,6,0,0,1,1.26,3.92v1.23a6.08,6.08,0,0,1-1.22,4,4.38,4.38,0,0,1-6.51,0,5.94,5.94,0,0,1-1.26-3.86Zm1.9,1.1a4.94,4.94,0,0,0,.71,2.82,2.18,2.18,0,0,0,1.89,1q2.52,0,2.59-3.63V83.19a4.94,4.94,0,0,0-.71-2.82,2.19,2.19,0,0,0-1.9-1,2.15,2.15,0,0,0-1.87,1,4.93,4.93,0,0,0-.71,2.81Z"/><path class="cls-2" d="M901.44,84.29a7,7,0,0,1-1,4.11,3.28,3.28,0,0,1-2.81,1.35,3.12,3.12,0,0,1-2.7-1.32V94h-1.89V77.92h1.72l.1,1.28a3.05,3.05,0,0,1,2.74-1.5A3.26,3.26,0,0,1,900.46,79a7.05,7.05,0,0,1,1,4Zm-1.89-1.09a5.42,5.42,0,0,0-.6-2.88,2.13,2.13,0,0,0-1.93-.93,2.25,2.25,0,0,0-2.08,1.36v6a2.25,2.25,0,0,0,2.1,1.33,2.09,2.09,0,0,0,1.89-.93,5.29,5.29,0,0,0,.62-2.84Z"/><path class="cls-2" d="M908.05,89.75a4.24,4.24,0,0,1-3.33-1.29,5.54,5.54,0,0,1-1.18-3.8V83.25a6.5,6.5,0,0,1,1.13-4.07,3.74,3.74,0,0,1,3.16-1.48,3.61,3.61,0,0,1,3,1.3,6.68,6.68,0,0,1,1,4V84.3h-6.49v.26a4.22,4.22,0,0,0,.7,2.72,2.47,2.47,0,0,0,2,.85,3.15,3.15,0,0,0,1.47-.32,3.56,3.56,0,0,0,1.2-1l1,1.2A4.31,4.31,0,0,1,908.05,89.75Zm-.22-10.42a2,2,0,0,0-1.75.81,4.84,4.84,0,0,0-.64,2.52H910v-.25a4.52,4.52,0,0,0-.59-2.37A1.86,1.86,0,0,0,907.83,79.33Z"/><path class="cls-2" d="M920.67,72.83l1.07.78a5.81,5.81,0,0,0-.88,2.92V78H919V76.77a5.37,5.37,0,0,1,.48-2.18A5,5,0,0,1,920.67,72.83Zm3.06,0,1.08.78a5.82,5.82,0,0,0-.89,2.92V78H922V76.77a5.37,5.37,0,0,1,.48-2.18A5,5,0,0,1,923.73,72.83Z"/><path class="cls-2" d="M937.08,89.54h-2V82.31h-6.3v7.23h-2V73.9h2v6.72h6.3V73.9h2Z"/><path class="cls-2" d="M939.82,83.19a6.06,6.06,0,0,1,1.23-4,4,4,0,0,1,3.25-1.48,4.06,4.06,0,0,1,3.25,1.44,6,6,0,0,1,1.26,3.92v1.23a6,6,0,0,1-1.22,4,4.37,4.37,0,0,1-6.5,0,5.89,5.89,0,0,1-1.27-3.86Zm1.9,1.1a4.94,4.94,0,0,0,.71,2.82,2.19,2.19,0,0,0,1.89,1q2.52,0,2.59-3.63V83.19a4.87,4.87,0,0,0-.71-2.82,2.19,2.19,0,0,0-1.9-1,2.17,2.17,0,0,0-1.87,1,4.93,4.93,0,0,0-.71,2.81Z"/><path class="cls-2" d="M953.06,77.92l0,1.07a3.45,3.45,0,0,1,2.8-1.29,2.74,2.74,0,0,1,2.72,1.69,3.44,3.44,0,0,1,3-1.69q3.21,0,3.29,4v7.83h-1.89V81.89a3.25,3.25,0,0,0-.45-1.89,1.77,1.77,0,0,0-1.53-.61,1.7,1.7,0,0,0-1.39.66,3.07,3.07,0,0,0-.63,1.7v7.79h-1.91V81.8c0-1.61-.68-2.41-2-2.41a2.06,2.06,0,0,0-2,1.44v8.71h-1.9V77.92Z"/><path class="cls-2" d="M972,89.75a4.27,4.27,0,0,1-3.33-1.29,5.64,5.64,0,0,1-1.18-3.8V83.25a6.5,6.5,0,0,1,1.14-4.07,3.74,3.74,0,0,1,3.16-1.48,3.61,3.61,0,0,1,3,1.3,6.69,6.69,0,0,1,1,4V84.3h-6.49v.26a4.22,4.22,0,0,0,.71,2.72,2.46,2.46,0,0,0,2,.85,3.19,3.19,0,0,0,1.48-.32,3.66,3.66,0,0,0,1.2-1l1,1.2A4.33,4.33,0,0,1,972,89.75Zm-.21-10.42a2,2,0,0,0-1.75.81,4.83,4.83,0,0,0-.65,2.52h4.58v-.25a4.41,4.41,0,0,0-.6-2.37A1.83,1.83,0,0,0,971.76,79.33Z"/><path class="cls-2" d="M978.34,78.3l-1.06-.77a5.86,5.86,0,0,0,.87-2.92V73H980v1.45a5.37,5.37,0,0,1-.48,2.09A4.64,4.64,0,0,1,978.34,78.3Zm3,0-1.06-.77a5.86,5.86,0,0,0,.87-2.92V73H983v1.45a5.76,5.76,0,0,1-.48,2.09A4.76,4.76,0,0,1,981.33,78.3Z"/><path class="cls-2" d="M174,49.4l3.2-7.85h2.22L175,51.36v5.83h-2V51.36l-4.45-9.81h2.23Z"/><path class="cls-2" d="M184.66,57.4a4.27,4.27,0,0,1-3.33-1.29,5.59,5.59,0,0,1-1.18-3.8V50.9a6.56,6.56,0,0,1,1.13-4.07,3.76,3.76,0,0,1,3.17-1.48,3.62,3.62,0,0,1,3.05,1.3,6.76,6.76,0,0,1,1,4.05V52H182v.26a4.29,4.29,0,0,0,.7,2.72,2.48,2.48,0,0,0,2,.85,3.19,3.19,0,0,0,1.48-.32,3.63,3.63,0,0,0,1.19-1l1,1.2A4.31,4.31,0,0,1,184.66,57.4ZM184.45,47a2,2,0,0,0-1.75.81,4.83,4.83,0,0,0-.65,2.52h4.58v-.25a4.41,4.41,0,0,0-.6-2.37A1.84,1.84,0,0,0,184.45,47Z"/><path class="cls-2" d="M196.79,57.19a4.28,4.28,0,0,1-.25-1.27A3,3,0,0,1,194,57.4a3.32,3.32,0,0,1-2.46-.88,3.39,3.39,0,0,1-.89-2.5,3.53,3.53,0,0,1,1.21-2.82,5,5,0,0,1,3.29-1.06h1.4V48.91A1.63,1.63,0,0,0,194.64,47a1.92,1.92,0,0,0-1.39.51,1.72,1.72,0,0,0-.54,1.3h-1.9a3.06,3.06,0,0,1,.52-1.7,3.66,3.66,0,0,1,1.42-1.28,4.26,4.26,0,0,1,2-.46,3.78,3.78,0,0,1,2.71.89,3.44,3.44,0,0,1,1,2.58v5.87a7.07,7.07,0,0,0,.37,2.33v.17Zm-2.54-1.52a2.62,2.62,0,0,0,1.34-.38,2.37,2.37,0,0,0,.92-1V51.55h-1.07a3.56,3.56,0,0,0-2.14.61,1.93,1.93,0,0,0-.79,1.63,2.17,2.17,0,0,0,.4,1.44A1.72,1.72,0,0,0,194.25,55.67Z"/><path class="cls-2" d="M206.15,47.35a4.74,4.74,0,0,0-.86-.08,2.08,2.08,0,0,0-2,1.6v8.32h-1.91V45.57h1.85l0,1.18a2.37,2.37,0,0,1,2.16-1.4,1.72,1.72,0,0,1,.76.15Z"/><path class="cls-2" d="M213.69,54.21a1.42,1.42,0,0,0-.46-1.05,7,7,0,0,0-1.79-1A11.59,11.59,0,0,1,209.28,51a3.11,3.11,0,0,1-.94-1,2.8,2.8,0,0,1-.31-1.37,3,3,0,0,1,1-2.36,4.23,4.23,0,0,1,5.38.05,3.34,3.34,0,0,1,1,2.53h-1.89a1.87,1.87,0,0,0-.53-1.33,1.77,1.77,0,0,0-1.34-.56,1.85,1.85,0,0,0-1.31.44,1.48,1.48,0,0,0-.48,1.16,1.24,1.24,0,0,0,.35.93,5.88,5.88,0,0,0,1.68.93,8.39,8.39,0,0,1,2.88,1.62,2.82,2.82,0,0,1,.76,2,3.05,3.05,0,0,1-1,2.42,4.72,4.72,0,0,1-5.74-.13,3.43,3.43,0,0,1-1.13-2.64h1.91a2,2,0,0,0,2.16,2.06,2.17,2.17,0,0,0,1.44-.42A1.46,1.46,0,0,0,213.69,54.21Z"/><path class="cls-2" d="M222.7,50.84a6.06,6.06,0,0,1,1.23-4,4,4,0,0,1,3.25-1.48,4.06,4.06,0,0,1,3.25,1.44,6,6,0,0,1,1.26,3.92v1.23a6.08,6.08,0,0,1-1.22,4A4.38,4.38,0,0,1,224,56a5.94,5.94,0,0,1-1.26-3.86Zm1.9,1.1a4.94,4.94,0,0,0,.71,2.82,2.18,2.18,0,0,0,1.89,1q2.52,0,2.59-3.63V50.84a4.94,4.94,0,0,0-.71-2.82,2.2,2.2,0,0,0-1.9-1,2.15,2.15,0,0,0-1.87,1,4.93,4.93,0,0,0-.71,2.81Z"/><path class="cls-2" d="M235,57.19V47.1h-1.52V45.57H235V44.22a4.15,4.15,0,0,1,.9-2.76,3,3,0,0,1,2.44-1,3.88,3.88,0,0,1,1.15.18l-.1,1.61a3.46,3.46,0,0,0-.87-.1c-1.08,0-1.62.77-1.62,2.32v1.1h2V47.1h-2V57.19Z"/><path class="cls-2" d="M256.22,52.21a5.83,5.83,0,0,1-1.42,3.86,4.77,4.77,0,0,1-3.62,1.33,4.46,4.46,0,0,1-3.74-1.79,7.73,7.73,0,0,1-1.39-4.85V47.93a7.46,7.46,0,0,1,1.43-4.82,4.69,4.69,0,0,1,3.88-1.78,4.51,4.51,0,0,1,3.51,1.36,6,6,0,0,1,1.35,3.87h-2a4.84,4.84,0,0,0-.81-2.72,2.51,2.51,0,0,0-2.06-.82,2.81,2.81,0,0,0-2.46,1.25,6.52,6.52,0,0,0-.86,3.67v2.87a6.9,6.9,0,0,0,.8,3.64,2.6,2.6,0,0,0,2.34,1.27,2.82,2.82,0,0,0,2.21-.77,4.8,4.8,0,0,0,.84-2.74Z"/><path class="cls-2" d="M264.59,57.19a4.35,4.35,0,0,1-.24-1.27,3,3,0,0,1-2.58,1.48A3.06,3.06,0,0,1,258.42,54a3.56,3.56,0,0,1,1.2-2.82,5,5,0,0,1,3.3-1.06h1.4V48.91a2,2,0,0,0-.47-1.49,2.3,2.3,0,0,0-2.8.07,1.72,1.72,0,0,0-.54,1.3h-1.9a3.07,3.07,0,0,1,.53-1.7,3.59,3.59,0,0,1,1.42-1.28,4.19,4.19,0,0,1,2-.46,3.81,3.81,0,0,1,2.72.89,3.52,3.52,0,0,1,.95,2.58v5.87a6.83,6.83,0,0,0,.36,2.33v.17Zm-2.53-1.52a2.58,2.58,0,0,0,1.33-.38,2.46,2.46,0,0,0,.93-1V51.55h-1.08a3.6,3.6,0,0,0-2.14.61,1.92,1.92,0,0,0-.78,1.63,2.12,2.12,0,0,0,.4,1.44A1.7,1.7,0,0,0,262.06,55.67Z"/><path class="cls-2" d="M274,47.35a4.57,4.57,0,0,0-.86-.08,2.1,2.1,0,0,0-2,1.6v8.32h-1.9V45.57H271l0,1.18a2.37,2.37,0,0,1,2.16-1.4,1.67,1.67,0,0,1,.75.15Z"/><path class="cls-2" d="M278,42.48a1.29,1.29,0,0,1-.26.81,1,1,0,0,1-.82.32,1,1,0,0,1-.81-.32,1.35,1.35,0,0,1,0-1.62,1,1,0,0,1,.81-.34,1,1,0,0,1,.81.34A1.28,1.28,0,0,1,278,42.48Zm-.15,14.71H276V45.57h1.9Z"/><path class="cls-2" d="M282.67,45.57l.06,1.25a3.38,3.38,0,0,1,2.82-1.47q3.09,0,3.13,4.11v7.73h-1.89V49.55a3.12,3.12,0,0,0-.46-1.94A1.64,1.64,0,0,0,285,47a1.89,1.89,0,0,0-1.27.47,3.38,3.38,0,0,0-.91,1.23v8.45h-1.9V45.57Z"/><path class="cls-2" d="M291.15,50.85a7.08,7.08,0,0,1,1-4.11A3.31,3.31,0,0,1,295,45.35a3,3,0,0,1,2.69,1.51l.1-1.29h1.72V57.3a4.58,4.58,0,0,1-1.11,3.31,4.06,4.06,0,0,1-3.08,1.15,5.35,5.35,0,0,1-1.93-.42,3.91,3.91,0,0,1-1.6-1.05l.77-1.31a3.64,3.64,0,0,0,2.61,1.16c1.58,0,2.39-.86,2.44-2.59V56A3,3,0,0,1,295,57.4,3.31,3.31,0,0,1,292.2,56a6.66,6.66,0,0,1-1.05-3.9Zm1.9,1.08a5.48,5.48,0,0,0,.58,2.87,2,2,0,0,0,1.88.92,2.28,2.28,0,0,0,2.13-1.45V48.46A2.31,2.31,0,0,0,295.53,47a2.07,2.07,0,0,0-1.89.91,5.46,5.46,0,0,0-.59,2.82Z"/><path class="cls-2" d="M169.35,79.39a4.05,4.05,0,0,1,.54-2,8.76,8.76,0,0,1,2-2.18,11.16,11.16,0,0,1-1.21-2,4.09,4.09,0,0,1-.32-1.58,4,4,0,0,1,.91-2.8,3.2,3.2,0,0,1,2.47-1,3.11,3.11,0,0,1,2.33,1A3.26,3.26,0,0,1,177,71a4,4,0,0,1-.36,1.71,5.1,5.1,0,0,1-1.29,1.59l-1.11.94,2.75,4a7.7,7.7,0,0,0,.51-2.88h1.7a8.36,8.36,0,0,1-1.1,4.47L180,83.59h-2.28L177,82.44a4.55,4.55,0,0,1-1.48,1,4.68,4.68,0,0,1-1.81.36,4.14,4.14,0,0,1-3.13-1.22A4.4,4.4,0,0,1,169.35,79.39Zm4.31,2.79A3.06,3.06,0,0,0,176,81l-3.1-4.52-.33.27a3.63,3.63,0,0,0-1.29,2.64,3.06,3.06,0,0,0,.64,2A2.2,2.2,0,0,0,173.66,82.18Zm-1.38-10.71a2.64,2.64,0,0,0,.29,1.19,8.94,8.94,0,0,0,.75,1.3l.83-.71a3.19,3.19,0,0,0,.89-1,2.89,2.89,0,0,0,.23-1.2,1.71,1.71,0,0,0-.43-1.19,1.37,1.37,0,0,0-1.08-.48,1.23,1.23,0,0,0-1.09.6A2.7,2.7,0,0,0,172.28,71.47Z"/><path class="cls-2" d="M189,83.59h-2V68h2Z"/><path class="cls-2" d="M194,72l.06,1.25a3.39,3.39,0,0,1,2.82-1.47q3.09,0,3.13,4.11v7.73h-1.89V76a3.12,3.12,0,0,0-.46-1.94,1.64,1.64,0,0,0-1.37-.57,1.91,1.91,0,0,0-1.27.47,3.38,3.38,0,0,0-.91,1.23v8.45h-1.9V72Z"/><path class="cls-2" d="M204.6,72l.05,1.25a3.4,3.4,0,0,1,2.83-1.47c2.05,0,3.1,1.37,3.12,4.11v7.73h-1.89V76a3.2,3.2,0,0,0-.45-1.94,1.66,1.66,0,0,0-1.37-.57,1.93,1.93,0,0,0-1.28.47,3.48,3.48,0,0,0-.9,1.23v8.45h-1.9V72Z"/><path class="cls-2" d="M213.05,77.24a6.06,6.06,0,0,1,1.23-4,4,4,0,0,1,3.25-1.48,4.06,4.06,0,0,1,3.25,1.44A6,6,0,0,1,222,77.11v1.23a6,6,0,0,1-1.22,4,4.37,4.37,0,0,1-6.5,0,5.89,5.89,0,0,1-1.27-3.86Zm1.91,1.1a5,5,0,0,0,.7,2.82,2.19,2.19,0,0,0,1.89,1q2.52,0,2.59-3.63V77.24a4.87,4.87,0,0,0-.71-2.82,2.19,2.19,0,0,0-1.9-1,2.17,2.17,0,0,0-1.87,1,4.93,4.93,0,0,0-.7,2.81Z"/><path class="cls-2" d="M227.63,80.7l2.2-8.73h1.94l-3.45,11.62H226.9L223.41,72h1.93Z"/><path class="cls-2" d="M239.57,83.59a4,4,0,0,1-.25-1.27,3,3,0,0,1-2.58,1.48,3.06,3.06,0,0,1-3.35-3.38,3.56,3.56,0,0,1,1.2-2.82,5,5,0,0,1,3.3-1.06h1.4V75.31a2,2,0,0,0-.47-1.49,2.3,2.3,0,0,0-2.8.07,1.72,1.72,0,0,0-.54,1.3h-1.9a3.07,3.07,0,0,1,.53-1.7,3.59,3.59,0,0,1,1.42-1.28,4.19,4.19,0,0,1,2-.46,3.81,3.81,0,0,1,2.72.89,3.48,3.48,0,0,1,1,2.58v5.87a7.08,7.08,0,0,0,.36,2.33v.17ZM237,82.07a2.56,2.56,0,0,0,1.33-.38,2.46,2.46,0,0,0,.93-1V78h-1.08a3.6,3.6,0,0,0-2.14.61,1.92,1.92,0,0,0-.78,1.63,2.12,2.12,0,0,0,.4,1.44A1.7,1.7,0,0,0,237,82.07Z"/><path class="cls-2" d="M246.61,69.15V72h1.75V73.5h-1.75v7.22a1.93,1.93,0,0,0,.23,1,.84.84,0,0,0,.77.36,2.53,2.53,0,0,0,.76-.13l0,1.6a4.24,4.24,0,0,1-1.32.21,2,2,0,0,1-1.72-.8,3.84,3.84,0,0,1-.59-2.28V73.5H243V72h1.77V69.15Z"/><path class="cls-2" d="M252.82,68.88a1.24,1.24,0,0,1-.27.81,1.19,1.19,0,0,1-1.62,0,1.35,1.35,0,0,1,0-1.62,1,1,0,0,1,.81-.34,1,1,0,0,1,.81.34A1.28,1.28,0,0,1,252.82,68.88Zm-.15,14.71h-1.9V72h1.9Z"/><path class="cls-2" d="M255.26,77.24a6.06,6.06,0,0,1,1.23-4,4,4,0,0,1,3.25-1.48A4.06,4.06,0,0,1,263,73.19a6,6,0,0,1,1.26,3.92v1.23a6.08,6.08,0,0,1-1.22,4,4.38,4.38,0,0,1-6.51,0,5.94,5.94,0,0,1-1.26-3.86Zm1.9,1.1a5,5,0,0,0,.7,2.82,2.21,2.21,0,0,0,1.9,1q2.52,0,2.59-3.63V77.24a4.94,4.94,0,0,0-.71-2.82,2.24,2.24,0,0,0-3.78,0,5,5,0,0,0-.7,2.81Z"/><path class="cls-2" d="M268.49,72l.06,1.25a3.39,3.39,0,0,1,2.82-1.47q3.09,0,3.13,4.11v7.73h-1.89V76a3.12,3.12,0,0,0-.46-1.94,1.64,1.64,0,0,0-1.37-.57,1.91,1.91,0,0,0-1.27.47,3.38,3.38,0,0,0-.91,1.23v8.45h-1.9V72Z"/><path class="cls-2" d="M135.28,66.89h0a1.66,1.66,0,0,1-.32,0A1.66,1.66,0,0,0,135.28,66.89Z"/><path class="cls-2" d="M135.28,59.39a1.66,1.66,0,0,0-.32,0,1.66,1.66,0,0,1,.32,0Z"/><path class="cls-2" d="M98.82,68.75h5.26V78H98.82V89h-12V78h-20l-.71-7.32L86.84,37.32v-.1h12Zm-21.29,0h9.31V52.82L86.1,54Z"/><path class="cls-2" d="M141.58,68.47a3.38,3.38,0,0,1-2.42-1,3.33,3.33,0,0,1-1-2.43v-3.8a3.35,3.35,0,0,1,.34-1.48l-.22-.27q-4.14-4.58-11.86-4.57a15.36,15.36,0,0,0-4.07.57A14.33,14.33,0,0,0,119,56.81l1.18-10.28h20.5V37.22H110.43l-3.17,26.47,9.53,2.24c1.37-1.8,3.46-2.69,6.25-2.69q7.39,0,7.4,8.26,0,8.94-6,8.94a5.78,5.78,0,0,1-4.31-1.67,6.79,6.79,0,0,1-1.81-4.5h-12a13.34,13.34,0,0,0,2.38,7.9,16.36,16.36,0,0,0,6.68,5.51,21.3,21.3,0,0,0,9.14,2A19.65,19.65,0,0,0,134,87.51a15.33,15.33,0,0,0,6.24-6.2,18.37,18.37,0,0,0,2.22-9,27.34,27.34,0,0,0-.26-3.83Z"/><path class="cls-5" d="M163,61.24a1.35,1.35,0,0,0-.42-1,1.37,1.37,0,0,0-1-.42h-6.66V53.16a1.34,1.34,0,0,0-.41-1,1.38,1.38,0,0,0-1-.42h-3.81a1.42,1.42,0,0,0-1.42,1.43v6.65h-6.66a1.37,1.37,0,0,0-1,.42,1.34,1.34,0,0,0-.41,1V65a1.34,1.34,0,0,0,.41,1,1.37,1.37,0,0,0,1,.42h6.66v6.65a1.42,1.42,0,0,0,1.42,1.43h3.81a1.38,1.38,0,0,0,1-.42,1.34,1.34,0,0,0,.41-1V66.47h6.66a1.37,1.37,0,0,0,1-.42,1.35,1.35,0,0,0,.42-1Z"/><path class="cls-1" d="M331.16,104.76a1.5,1.5,0,0,1,1.49-1.5h0a1.51,1.51,0,0,1,1.51,1.5h0a1.51,1.51,0,0,1-1.51,1.5h0A1.5,1.5,0,0,1,331.16,104.76Zm0-10a1.5,1.5,0,0,1,1.49-1.5h0a1.51,1.51,0,0,1,1.51,1.5h0a1.51,1.51,0,0,1-1.51,1.5h0A1.5,1.5,0,0,1,331.16,94.76Zm0-10a1.5,1.5,0,0,1,1.49-1.5h0a1.51,1.51,0,0,1,1.51,1.5h0a1.51,1.51,0,0,1-1.51,1.5h0A1.5,1.5,0,0,1,331.16,84.76Zm0-10a1.5,1.5,0,0,1,1.49-1.5h0a1.51,1.51,0,0,1,1.51,1.5h0a1.51,1.51,0,0,1-1.51,1.5h0A1.5,1.5,0,0,1,331.16,74.76Zm0-10a1.5,1.5,0,0,1,1.49-1.5h0a1.51,1.51,0,0,1,1.51,1.5h0a1.51,1.51,0,0,1-1.51,1.5h0A1.5,1.5,0,0,1,331.16,64.76Zm0-10a1.5,1.5,0,0,1,1.49-1.5h0a1.51,1.51,0,0,1,1.51,1.5h0a1.51,1.51,0,0,1-1.51,1.5h0A1.5,1.5,0,0,1,331.16,54.76Zm0-10a1.5,1.5,0,0,1,1.49-1.5h0a1.51,1.51,0,0,1,1.51,1.5h0a1.51,1.51,0,0,1-1.51,1.5h0A1.5,1.5,0,0,1,331.16,44.76Zm0-10a1.5,1.5,0,0,1,1.49-1.5h0a1.51,1.51,0,0,1,1.51,1.5h0a1.51,1.51,0,0,1-1.51,1.5h0A1.5,1.5,0,0,1,331.16,34.76Z"/><path class="cls-1" d="M681.74,104.76a1.51,1.51,0,0,1,1.51-1.5h0a1.5,1.5,0,0,1,1.5,1.5h0a1.5,1.5,0,0,1-1.5,1.5h0A1.51,1.51,0,0,1,681.74,104.76Zm0-10a1.51,1.51,0,0,1,1.51-1.5h0a1.5,1.5,0,0,1,1.5,1.5h0a1.5,1.5,0,0,1-1.5,1.5h0A1.51,1.51,0,0,1,681.74,94.76Zm0-10a1.51,1.51,0,0,1,1.51-1.5h0a1.5,1.5,0,0,1,1.5,1.5h0a1.51,1.51,0,0,1-1.5,1.5h0A1.51,1.51,0,0,1,681.74,84.76Zm0-10a1.51,1.51,0,0,1,1.51-1.5h0a1.5,1.5,0,0,1,1.5,1.5h0a1.5,1.5,0,0,1-1.5,1.5h0A1.51,1.51,0,0,1,681.74,74.76Zm0-10a1.51,1.51,0,0,1,1.51-1.5h0a1.5,1.5,0,0,1,1.5,1.5h0a1.5,1.5,0,0,1-1.5,1.5h0A1.51,1.51,0,0,1,681.74,64.76Zm0-10a1.51,1.51,0,0,1,1.51-1.5h0a1.5,1.5,0,0,1,1.5,1.5h0a1.5,1.5,0,0,1-1.5,1.5h0A1.51,1.51,0,0,1,681.74,54.76Zm0-10a1.51,1.51,0,0,1,1.51-1.5h0a1.5,1.5,0,0,1,1.5,1.5h0a1.51,1.51,0,0,1-1.5,1.5h0A1.51,1.51,0,0,1,681.74,44.76Zm0-10a1.51,1.51,0,0,1,1.51-1.5h0a1.5,1.5,0,0,1,1.5,1.5h0a1.5,1.5,0,0,1-1.5,1.5h0A1.51,1.51,0,0,1,681.74,34.76Z"/><path class="cls-2" d="M460.85,46.67l-5.38,14.52h-2l5.37-14h-7V45.55h9Z"/><path class="cls-2" d="M471.13,49.63a4.13,4.13,0,0,1-.52,2.09,3.82,3.82,0,0,1-1.4,1.42,4,4,0,0,1,1.63,1.55,4.36,4.36,0,0,1,.59,2.28,4.53,4.53,0,0,1-1.14,3.23,4.44,4.44,0,0,1-6.07,0,5,5,0,0,1-.56-5.54,3.87,3.87,0,0,1,1.6-1.53,3.65,3.65,0,0,1-1.39-1.42,4.19,4.19,0,0,1-.5-2.08,4.47,4.47,0,0,1,1.06-3.14,4,4,0,0,1,5.63,0A4.42,4.42,0,0,1,471.13,49.63Zm-1.6,7.3a3.42,3.42,0,0,0-.63-2.16,2,2,0,0,0-1.67-.81,2,2,0,0,0-1.66.82,3.54,3.54,0,0,0-.6,2.15,3.34,3.34,0,0,0,.59,2.1,2.28,2.28,0,0,0,3.38,0A3.34,3.34,0,0,0,469.53,56.93Zm-.29-7.27a3.12,3.12,0,0,0-.56-1.94,1.76,1.76,0,0,0-2.88,0,3.29,3.29,0,0,0-.53,1.95,3.18,3.18,0,0,0,.54,2,1.74,1.74,0,0,0,1.44.72,1.71,1.71,0,0,0,1.45-.73A3.19,3.19,0,0,0,469.24,49.66Z"/><path class="cls-2" d="M480.2,54.51A3.35,3.35,0,0,1,477.53,56a3.15,3.15,0,0,1-2.71-1.44,6.39,6.39,0,0,1-1-3.77,6.38,6.38,0,0,1,1.1-3.93,3.7,3.7,0,0,1,6.09.23,8.66,8.66,0,0,1,1.11,4.74v.59a18.46,18.46,0,0,1-.39,4.21,6.8,6.8,0,0,1-1.16,2.6,4.74,4.74,0,0,1-1.94,1.5,7.47,7.47,0,0,1-2.95.51V59.51H476a4,4,0,0,0,3.07-1.22A6,6,0,0,0,480.2,54.51Zm-2.34-.2a2.06,2.06,0,0,0,1.34-.57,3.74,3.74,0,0,0,1-1.51v-.84a6.56,6.56,0,0,0-.68-3.17c-.45-.82-1-1.23-1.63-1.23a1.86,1.86,0,0,0-1.64,1,6.18,6.18,0,0,0,0,5.29A1.78,1.78,0,0,0,477.86,54.31Z"/><path class="cls-2" d="M492.25,59.5h6.14v1.69h-8.12V45.55h2Z"/><path class="cls-2" d="M502.66,46.48a1.22,1.22,0,0,1-.27.81,1.19,1.19,0,0,1-1.62,0,1.22,1.22,0,0,1-.27-.81,1.24,1.24,0,0,1,.27-.81,1,1,0,0,1,.81-.34,1,1,0,0,1,.81.34A1.28,1.28,0,0,1,502.66,46.48Zm-.15,14.71h-1.9V49.57h1.9Z"/><path class="cls-2" d="M508.79,58.3,511,49.57h1.93l-3.45,11.62h-1.42l-3.49-11.62h1.94Z"/><path class="cls-2" d="M518.92,61.4a4.27,4.27,0,0,1-3.33-1.29,5.64,5.64,0,0,1-1.18-3.8v-1.4a6.51,6.51,0,0,1,1.14-4.08,3.74,3.74,0,0,1,3.16-1.48,3.64,3.64,0,0,1,3,1.3,6.69,6.69,0,0,1,1,4.05V56H516.3v.27a4.21,4.21,0,0,0,.71,2.71,2.46,2.46,0,0,0,2,.85,3.32,3.32,0,0,0,1.48-.31,3.94,3.94,0,0,0,1.2-1l1,1.2A4.31,4.31,0,0,1,518.92,61.4ZM518.71,51a2,2,0,0,0-1.75.82,4.79,4.79,0,0,0-.65,2.51h4.58v-.25a4.44,4.44,0,0,0-.6-2.37A1.83,1.83,0,0,0,518.71,51Z"/><path class="cls-2" d="M530.72,58.21a1.45,1.45,0,0,0-.46-1.05,7,7,0,0,0-1.79-1,11.7,11.7,0,0,1-2.16-1.08,3.23,3.23,0,0,1-.94-1,2.8,2.8,0,0,1-.31-1.37,3,3,0,0,1,1-2.36,3.85,3.85,0,0,1,2.65-.94,3.78,3.78,0,0,1,2.73,1,3.35,3.35,0,0,1,1,2.54h-1.89a1.86,1.86,0,0,0-.52-1.34,1.79,1.79,0,0,0-1.35-.56,1.87,1.87,0,0,0-1.31.44,1.48,1.48,0,0,0-.48,1.16,1.22,1.22,0,0,0,.35.93,5.88,5.88,0,0,0,1.68.93,8.74,8.74,0,0,1,2.88,1.62,2.78,2.78,0,0,1,.76,2,3.09,3.09,0,0,1-1,2.43,4.74,4.74,0,0,1-5.74-.14,3.43,3.43,0,0,1-1.13-2.64h1.92a2.08,2.08,0,0,0,.59,1.51,2.12,2.12,0,0,0,1.57.55,2.17,2.17,0,0,0,1.44-.42A1.47,1.47,0,0,0,530.72,58.21Z"/><path class="cls-2" d="M544.29,61.4A4.24,4.24,0,0,1,541,60.11a5.59,5.59,0,0,1-1.19-3.8v-1.4a6.51,6.51,0,0,1,1.14-4.08,3.74,3.74,0,0,1,3.16-1.48,3.64,3.64,0,0,1,3,1.3,6.62,6.62,0,0,1,1,4.05V56h-6.48v.27a4.21,4.21,0,0,0,.7,2.71,2.46,2.46,0,0,0,2,.85,3.32,3.32,0,0,0,1.48-.31,3.72,3.72,0,0,0,1.2-1l1,1.2A4.32,4.32,0,0,1,544.29,61.4ZM544.07,51a2,2,0,0,0-1.75.82,4.8,4.8,0,0,0-.64,2.51h4.57v-.25a4.54,4.54,0,0,0-.59-2.37A1.86,1.86,0,0,0,544.07,51Z"/><path class="cls-2" d="M552.23,49.57l0,1.25a3.39,3.39,0,0,1,2.82-1.47q3.09,0,3.13,4.12v7.72h-1.89V53.55a3.14,3.14,0,0,0-.46-1.94,1.64,1.64,0,0,0-1.37-.57,2,2,0,0,0-1.27.47,3.42,3.42,0,0,0-.91,1.24v8.44h-1.9V49.57Z"/><path class="cls-2" d="M565.88,51.35a4.65,4.65,0,0,0-.86-.08,2.08,2.08,0,0,0-2,1.61v8.31h-1.9V49.57h1.84l0,1.18a2.35,2.35,0,0,1,2.16-1.4,1.67,1.67,0,0,1,.75.15Z"/><path class="cls-2" d="M570,46.48a1.22,1.22,0,0,1-.27.81,1.19,1.19,0,0,1-1.62,0,1.22,1.22,0,0,1-.27-.81,1.24,1.24,0,0,1,.27-.81,1,1,0,0,1,.81-.34,1,1,0,0,1,.81.34A1.28,1.28,0,0,1,570,46.48Zm-.15,14.71h-1.9V49.57h1.9Z"/><path class="cls-2" d="M576.85,59.78a2,2,0,0,0,1.51-.58,2.46,2.46,0,0,0,.62-1.67h1.8a4,4,0,0,1-1.19,2.77,3.74,3.74,0,0,1-2.74,1.1,4.08,4.08,0,0,1-3.3-1.35,6.25,6.25,0,0,1-1.13-4V54.72a6.17,6.17,0,0,1,1.13-4,4,4,0,0,1,3.29-1.37,3.7,3.7,0,0,1,2.83,1.13,4.66,4.66,0,0,1,1.11,3.08H579a3.18,3.18,0,0,0-.61-1.93,1.92,1.92,0,0,0-1.53-.65,2.16,2.16,0,0,0-1.88.84,4.8,4.8,0,0,0-.64,2.73V56a5.1,5.1,0,0,0,.61,2.9A2.18,2.18,0,0,0,576.85,59.78Z"/><path class="cls-2" d="M584.87,50.76a3.35,3.35,0,0,1,2.77-1.41q3.09,0,3.13,4.12v7.72h-1.89V53.55a3.21,3.21,0,0,0-.46-1.94,1.64,1.64,0,0,0-1.37-.57,1.94,1.94,0,0,0-1.27.47,3.42,3.42,0,0,0-.91,1.24v8.44H583V44.69h1.9Z"/><path class="cls-2" d="M597.75,61.4a4.24,4.24,0,0,1-3.33-1.29,5.59,5.59,0,0,1-1.18-3.8v-1.4a6.57,6.57,0,0,1,1.13-4.08,3.76,3.76,0,0,1,3.17-1.48,3.65,3.65,0,0,1,3.05,1.3,6.76,6.76,0,0,1,1,4.05V56h-6.49v.27a4.21,4.21,0,0,0,.7,2.71,2.48,2.48,0,0,0,2,.85,3.25,3.25,0,0,0,1.47-.31,3.72,3.72,0,0,0,1.2-1l1,1.2A4.31,4.31,0,0,1,597.75,61.4ZM597.54,51a2,2,0,0,0-1.76.82,4.8,4.8,0,0,0-.64,2.51h4.58v-.25a4.44,4.44,0,0,0-.6-2.37A1.85,1.85,0,0,0,597.54,51Z"/><path class="cls-2" d="M603.5,54.85a7,7,0,0,1,1-4.09,3.33,3.33,0,0,1,2.89-1.41,3,3,0,0,1,2.6,1.36v-6h1.9v16.5h-1.74l-.1-1.25a3,3,0,0,1-2.67,1.46,3.32,3.32,0,0,1-2.84-1.4,6.69,6.69,0,0,1-1-4Zm1.9,1.08A5.48,5.48,0,0,0,606,58.8a2.08,2.08,0,0,0,1.89.92A2.27,2.27,0,0,0,610,58.29V52.43A2.29,2.29,0,0,0,607.88,51,2.06,2.06,0,0,0,606,52a5.42,5.42,0,0,0-.59,2.81Z"/><path class="cls-2" d="M454.88,73.15V76h1.75V77.5h-1.75v7.22a1.94,1.94,0,0,0,.22,1,.86.86,0,0,0,.78.36,2.58,2.58,0,0,0,.76-.13l0,1.6a4.24,4.24,0,0,1-1.32.21,2,2,0,0,1-1.72-.8,3.84,3.84,0,0,1-.59-2.28V77.5h-1.77V76H453V73.15Z"/><path class="cls-2" d="M460.79,77.16a3.34,3.34,0,0,1,2.77-1.41c2.05,0,3.1,1.37,3.13,4.12v7.72h-1.9V80a3.22,3.22,0,0,0-.45-1.94,1.66,1.66,0,0,0-1.37-.57,1.94,1.94,0,0,0-1.27.47,3.42,3.42,0,0,0-.91,1.24v8.44h-1.9V71.09h1.9Z"/><path class="cls-2" d="M474.31,77.75a4.57,4.57,0,0,0-.86-.08,2.1,2.1,0,0,0-2,1.61v8.31h-1.9V76h1.85l0,1.18a2.37,2.37,0,0,1,2.16-1.4,1.67,1.67,0,0,1,.75.15Z"/><path class="cls-2" d="M475.59,81.24a6.06,6.06,0,0,1,1.23-4,4,4,0,0,1,3.25-1.48,4.06,4.06,0,0,1,3.25,1.44,6,6,0,0,1,1.26,3.92v1.23a6.08,6.08,0,0,1-1.22,4,4.39,4.39,0,0,1-6.51,0,6,6,0,0,1-1.26-3.87Zm1.9,1.1a4.94,4.94,0,0,0,.71,2.82,2.18,2.18,0,0,0,1.89,1q2.52,0,2.59-3.63V81.24a4.94,4.94,0,0,0-.71-2.82,2.2,2.2,0,0,0-1.9-1,2.15,2.15,0,0,0-1.87,1,4.93,4.93,0,0,0-.71,2.81Z"/><path class="cls-2" d="M493,86.57a3.27,3.27,0,0,1-2.76,1.23,2.79,2.79,0,0,1-2.39-1.09,5.38,5.38,0,0,1-.81-3.17V76h1.89V83.4c0,1.81.54,2.72,1.63,2.72a2.4,2.4,0,0,0,2.39-1.55V76h1.9V87.59H493Z"/><path class="cls-2" d="M497.29,81.25a7.08,7.08,0,0,1,1-4.11,3.34,3.34,0,0,1,2.89-1.39,3,3,0,0,1,2.69,1.52L504,76h1.72V87.7A4.58,4.58,0,0,1,504.57,91a4.06,4.06,0,0,1-3.08,1.16,5.38,5.38,0,0,1-1.93-.43,3.91,3.91,0,0,1-1.6-1l.77-1.31a3.64,3.64,0,0,0,2.61,1.16c1.58,0,2.39-.86,2.44-2.59V86.44a3,3,0,0,1-2.62,1.36,3.32,3.32,0,0,1-2.82-1.35,6.72,6.72,0,0,1-1-3.91Zm1.9,1.08a5.48,5.48,0,0,0,.58,2.87,2,2,0,0,0,1.88.92,2.26,2.26,0,0,0,2.13-1.45V78.86a2.31,2.31,0,0,0-2.11-1.42,2.06,2.06,0,0,0-1.89.92,5.52,5.52,0,0,0-.59,2.81Z"/><path class="cls-2" d="M510.41,77.16a3.34,3.34,0,0,1,2.77-1.41q3.08,0,3.12,4.12v7.72h-1.89V80A3.22,3.22,0,0,0,514,78a1.67,1.67,0,0,0-1.37-.57,2,2,0,0,0-1.28.47,3.4,3.4,0,0,0-.9,1.24v8.44H508.5V71.09h1.91Z"/><path class="cls-2" d="M524.44,87.59V72h3.72a5.39,5.39,0,0,1,4.26,1.71,7,7,0,0,1,1.51,4.82V81.1a6.92,6.92,0,0,1-1.53,4.8,5.73,5.73,0,0,1-4.46,1.69Zm2-14V85.9H528a3.67,3.67,0,0,0,3-1.18,5.67,5.67,0,0,0,1-3.53V78.42a5.69,5.69,0,0,0-1-3.63,3.53,3.53,0,0,0-2.88-1.15Z"/><path class="cls-2" d="M542.71,87.59a4,4,0,0,1-.25-1.27,3,3,0,0,1-2.58,1.48,3.32,3.32,0,0,1-2.46-.88,3.39,3.39,0,0,1-.89-2.5,3.52,3.52,0,0,1,1.2-2.81,5,5,0,0,1,3.3-1.07h1.4V79.31a2,2,0,0,0-.46-1.49,2,2,0,0,0-1.41-.44,2,2,0,0,0-1.4.51,1.73,1.73,0,0,0-.53,1.3h-1.91a3.07,3.07,0,0,1,.53-1.7,3.66,3.66,0,0,1,1.42-1.28,4.35,4.35,0,0,1,2-.46,3.8,3.8,0,0,1,2.71.89,3.48,3.48,0,0,1,1,2.58v5.87a7.36,7.36,0,0,0,.36,2.33v.17Zm-2.54-1.52a2.47,2.47,0,0,0,1.33-.38,2.4,2.4,0,0,0,.93-1V82h-1.08a3.54,3.54,0,0,0-2.13.61,1.91,1.91,0,0,0-.79,1.64,2.11,2.11,0,0,0,.4,1.43A1.7,1.7,0,0,0,540.17,86.07Z"/><path class="cls-2" d="M550.28,84.43,552.4,76h2l-3.81,13.26a5.12,5.12,0,0,1-1.21,2.28,2.49,2.49,0,0,1-1.78.77,3.52,3.52,0,0,1-1-.17V90.5l.42,0a2,2,0,0,0,1.29-.39,2.75,2.75,0,0,0,.76-1.36l.38-1.3L546.06,76h2.07Z"/><path class="cls-2" d="M563.54,81.47v6.12h-2V72h5a4.5,4.5,0,0,1,3.42,1.3,4.83,4.83,0,0,1,1.25,3.48A4.77,4.77,0,0,1,570,80.2a4.58,4.58,0,0,1-3.35,1.27Zm0-1.69h3a2.51,2.51,0,0,0,2-.79,3.23,3.23,0,0,0,.7-2.24,3.37,3.37,0,0,0-.72-2.26,2.44,2.44,0,0,0-2-.85h-3Z"/><path class="cls-2" d="M578.3,77.75a4.74,4.74,0,0,0-.86-.08,2.08,2.08,0,0,0-2,1.61v8.31h-1.91V76h1.85l0,1.18a2.37,2.37,0,0,1,2.16-1.4,1.75,1.75,0,0,1,.76.15Z"/><path class="cls-2" d="M579.57,81.24a6.06,6.06,0,0,1,1.23-4,4,4,0,0,1,3.25-1.48,4.06,4.06,0,0,1,3.25,1.44,6,6,0,0,1,1.27,3.92v1.23a6,6,0,0,1-1.23,4,4.38,4.38,0,0,1-6.5,0,5.93,5.93,0,0,1-1.27-3.87Zm1.91,1.1a5,5,0,0,0,.7,2.82,2.19,2.19,0,0,0,1.9,1q2.5,0,2.58-3.63V81.24a5,5,0,0,0-.7-2.82,2.22,2.22,0,0,0-1.91-1,2.17,2.17,0,0,0-1.87,1,4.93,4.93,0,0,0-.7,2.81Z"/><path class="cls-2" d="M590.64,81.25a7.08,7.08,0,0,1,1-4.11,3.34,3.34,0,0,1,2.89-1.39,3,3,0,0,1,2.69,1.52l.1-1.3H599V87.7A4.58,4.58,0,0,1,597.92,91a4.06,4.06,0,0,1-3.08,1.16,5.38,5.38,0,0,1-1.93-.43,4,4,0,0,1-1.61-1l.78-1.31a3.64,3.64,0,0,0,2.61,1.16c1.58,0,2.39-.86,2.44-2.59V86.44a3,3,0,0,1-2.62,1.36,3.31,3.31,0,0,1-2.82-1.35,6.72,6.72,0,0,1-1.05-3.91Zm1.9,1.08a5.48,5.48,0,0,0,.58,2.87,2,2,0,0,0,1.88.92,2.27,2.27,0,0,0,2.13-1.45V78.86A2.31,2.31,0,0,0,595,77.44a2.06,2.06,0,0,0-1.89.92,5.42,5.42,0,0,0-.59,2.81Z"/><path class="cls-2" d="M606.66,77.75a4.74,4.74,0,0,0-.86-.08,2.1,2.1,0,0,0-2,1.61v8.31h-1.9V76h1.85l0,1.18a2.37,2.37,0,0,1,2.16-1.4,1.67,1.67,0,0,1,.75.15Z"/><path class="cls-2" d="M614.1,87.59a4.28,4.28,0,0,1-.25-1.27,3,3,0,0,1-2.58,1.48,3.32,3.32,0,0,1-2.46-.88,3.39,3.39,0,0,1-.89-2.5,3.5,3.5,0,0,1,1.21-2.81,4.94,4.94,0,0,1,3.29-1.07h1.4V79.31A1.63,1.63,0,0,0,612,77.38a2,2,0,0,0-1.4.51,1.76,1.76,0,0,0-.53,1.3h-1.9a3.06,3.06,0,0,1,.52-1.7,3.74,3.74,0,0,1,1.42-1.28,4.38,4.38,0,0,1,2-.46,3.78,3.78,0,0,1,2.71.89,3.44,3.44,0,0,1,1,2.58v5.87a7.07,7.07,0,0,0,.37,2.33v.17Zm-2.54-1.52a2.53,2.53,0,0,0,1.34-.38,2.37,2.37,0,0,0,.92-1V82h-1.07a3.56,3.56,0,0,0-2.14.61,1.93,1.93,0,0,0-.79,1.64,2.16,2.16,0,0,0,.4,1.43A1.72,1.72,0,0,0,611.56,86.07Z"/><path class="cls-2" d="M620.45,76l0,1.07a3.45,3.45,0,0,1,2.8-1.29A2.74,2.74,0,0,1,626,77.44a3.44,3.44,0,0,1,3-1.69c2.15,0,3.24,1.34,3.29,4v7.83h-1.89V79.94a3.2,3.2,0,0,0-.45-1.88,1.75,1.75,0,0,0-1.53-.62,1.71,1.71,0,0,0-1.39.66,3.07,3.07,0,0,0-.63,1.7v7.79h-1.91V79.86c0-1.62-.67-2.42-2-2.42a2.06,2.06,0,0,0-2,1.44v8.71h-1.89V76Z"/><path class="cls-2" d="M640.86,84.61a1.45,1.45,0,0,0-.46-1,7,7,0,0,0-1.79-1,11.7,11.7,0,0,1-2.16-1.08,3.23,3.23,0,0,1-.94-1,2.8,2.8,0,0,1-.31-1.37,3,3,0,0,1,1-2.36,3.83,3.83,0,0,1,2.65-.94,3.78,3.78,0,0,1,2.73,1,3.35,3.35,0,0,1,1,2.54h-1.89a1.83,1.83,0,0,0-.53-1.34,1.76,1.76,0,0,0-1.34-.56,1.85,1.85,0,0,0-1.31.44,1.48,1.48,0,0,0-.48,1.16,1.22,1.22,0,0,0,.35.93,5.88,5.88,0,0,0,1.68.93A8.74,8.74,0,0,1,642,82.46a2.78,2.78,0,0,1,.76,2,3.09,3.09,0,0,1-1,2.43,4.74,4.74,0,0,1-5.74-.14,3.43,3.43,0,0,1-1.13-2.64h1.92a2.08,2.08,0,0,0,.59,1.51,2.11,2.11,0,0,0,1.56.55,2.15,2.15,0,0,0,1.44-.42A1.44,1.44,0,0,0,640.86,84.61Z"/><path class="cls-6" d="M409.17,44.71a2.68,2.68,0,0,0,1.58,1.44,2.33,2.33,0,0,0,2-.21L420.69,41a2.59,2.59,0,0,1,3.09.14,2.37,2.37,0,0,1,1,2.88l-2.19,9.06a2.2,2.2,0,0,0,.41,2,2.59,2.59,0,0,0,1.78,1l9.33.68a2.6,2.6,0,0,1,2.4,1.92,2.53,2.53,0,0,1-.89,3l-7,5.9a2.41,2.41,0,0,0,0,3.85l7,5.9a2.52,2.52,0,0,1,.89,3,2.61,2.61,0,0,1-2.4,1.93l-9.33.68A2.55,2.55,0,0,0,423,84a2.2,2.2,0,0,0-.41,2l2.19,9.06a2.38,2.38,0,0,1-1,2.88,2.59,2.59,0,0,1-3.09.13l-7.95-4.94a2.37,2.37,0,0,0-2-.2,2.68,2.68,0,0,0-1.58,1.44l-3.43,8.51a2.8,2.8,0,0,1-5.22,0l-3.43-8.51a2.69,2.69,0,0,0-1.57-1.44,2.36,2.36,0,0,0-2,.2l-8,4.94a2.59,2.59,0,0,1-3.09-.13,2.39,2.39,0,0,1-1-2.88l2.2-9.06a2.26,2.26,0,0,0-.41-2,2.57,2.57,0,0,0-1.79-1l-9.33-.68a2.61,2.61,0,0,1-2.4-1.93,2.53,2.53,0,0,1,.89-3l7-5.9a2.41,2.41,0,0,0,0-3.85l-7-5.9a2.54,2.54,0,0,1-.89-3,2.6,2.6,0,0,1,2.4-1.92l9.33-.68a2.61,2.61,0,0,0,1.79-1,2.26,2.26,0,0,0,.41-2L381.45,44a2.38,2.38,0,0,1,1-2.88,2.59,2.59,0,0,1,3.09-.14l8,4.94a2.33,2.33,0,0,0,2,.21,2.69,2.69,0,0,0,1.57-1.44l3.43-8.51a2.8,2.8,0,0,1,5.22,0Zm10.08,15.5a19.37,19.37,0,0,0-6.79-6.79,18.41,18.41,0,0,0-18.66,0A19.45,19.45,0,0,0,387,60.21a18.41,18.41,0,0,0,0,18.66,19.4,19.4,0,0,0,6.79,6.8,18.41,18.41,0,0,0,18.66,0,19.31,19.31,0,0,0,6.79-6.8,18.41,18.41,0,0,0,0-18.66Z"/><path class="cls-2" d="M403.13,55.27A14.27,14.27,0,1,0,417.4,69.54,14.27,14.27,0,0,0,403.13,55.27Zm-5.63,6.49A3.52,3.52,0,0,1,401,65.28a.79.79,0,0,1-1.58,0,1.94,1.94,0,0,0-3.87,0,.79.79,0,1,1-1.58,0A3.53,3.53,0,0,1,397.5,61.76Zm5.63,15.56c-4.31,0-9.11-2.44-9.11-5.95a.79.79,0,1,1,1.58,0c0,2.2,3.73,4.37,7.53,4.37s7.53-2.17,7.53-4.37a.79.79,0,1,1,1.58,0C412.24,74.88,407.44,77.32,403.13,77.32Zm8.36-11.25a.79.79,0,0,1-.79-.79,1.94,1.94,0,0,0-3.87,0,.79.79,0,0,1-1.58,0,3.52,3.52,0,1,1,7,0A.79.79,0,0,1,411.49,66.07Z"/><path class="cls-5" d="M754,58.46a6.27,6.27,0,0,1,0,8.81l-5.1,5.1V87.75A6.2,6.2,0,0,1,742.7,94H742a6.22,6.22,0,0,1-4.15-1.55A6.22,6.22,0,0,1,733.71,94H733a6.18,6.18,0,0,1-6.22-6.22V72.37l-5.1-5.1a6.27,6.27,0,0,1,0-8.81A6.11,6.11,0,0,1,725,56.73a5.79,5.79,0,0,1,3.67.52,9.46,9.46,0,0,1,3.24-5.35,9.19,9.19,0,0,1,11.84,0A9.46,9.46,0,0,1,747,57.25a5.78,5.78,0,0,1,3.67-.52A6.11,6.11,0,0,1,754,58.46Zm-2.94,5.88a2,2,0,0,0,.6-1.47,2.07,2.07,0,0,0-3.54-1.47l-6.31,6.31h-7.94l-6.31-6.31a2.08,2.08,0,0,0-2.94,0,2,2,0,0,0-.6,1.47,2,2,0,0,0,.6,1.47l6.31,6.3V87.75a2,2,0,0,0,.6,1.47,2,2,0,0,0,1.47.61h.69a2.08,2.08,0,0,0,2.08-2.08V79.46h4.14v8.29A2.08,2.08,0,0,0,742,89.83h.69a2,2,0,0,0,1.47-.61,2,2,0,0,0,.6-1.47V70.64ZM737.86,53.88a5.16,5.16,0,1,0,3.67,1.51A5,5,0,0,0,737.86,53.88Z"/><path class="cls-2" d="M749.19,60.83a2.23,2.23,0,0,1,.84,0,2.22,2.22,0,0,0-.84,0Z"/><path class="cls-2" d="M748.92,87.75a6.25,6.25,0,0,1-.45,2.4,6.25,6.25,0,0,0,.45-2.4Z"/><path class="cls-2" d="M749.6,56.63a6.32,6.32,0,0,0-.75.06,5.51,5.51,0,0,1,.81,0Z"/><path class="cls-2" d="M806.63,64.2,801,59.58V47.08a1.09,1.09,0,0,0-1-1h-4a.93.93,0,0,0-.68.32,1,1,0,0,0-.32.68v7.5L776.15,39.21a4.92,4.92,0,0,0-6.25,0l-17,14a10.15,10.15,0,0,1,4,2.46,11.48,11.48,0,0,1,1,1.14L772.4,44.84a.89.89,0,0,1,1.25,0L795,62.33V88.06H783v-16a1,1,0,0,0-.31-.69,1,1,0,0,0-.69-.31H764a1,1,0,0,0-.69.31,1,1,0,0,0-.31.69v16H752.9a9.94,9.94,0,0,1-2.15,6H768a1.06,1.06,0,0,0,1-1v-16h8v16a1,1,0,0,0,.32.69,1,1,0,0,0,.68.31h21a1.92,1.92,0,0,0,2-2V67.32l1.87,1.5a.77.77,0,0,0,.69.19,1.23,1.23,0,0,0,.69-.31l2.5-3.13a1.4,1.4,0,0,0,.25-.75A.74.74,0,0,0,806.63,64.2Z"/></svg>