<svg xmlns="http://www.w3.org/2000/svg" viewBox="0 0 442.5242 265.093">
  <title>new-hope-community-logo-full-color-rgb</title>
  <g id="full-rgb">
    <g>
      <path id="fullLogo" d="M0,125.8564a15.9315,15.9315,0,0,0,.4406-2.5707c.0648-7.1383.1475-14.2786.0648-21.4158C.483,99.9846.9716,99.2356,2.906,98.7547,20.91,94.2876,38.8646,89.6184,56.8767,85.1894c2.5918-.6362,3.3612-1.6852,3.1822-4.2266-.1967-2.81-.9325-6.3288.4005-8.2956,1.4053-2.0731,4.9465-2.7461,7.6066-3.9124q29.3766-12.8659,58.7609-25.7163a5.5643,5.5643,0,0,1,4.9275-.0648q6.26,2.7808,12.67,5.214a3.85,3.85,0,0,0,2.9642-.161Q186.03,24.4583,224.5852.7469A4.4389,4.4389,0,0,0,225.3322,0h1.0992c6.6663,4.135,13.3015,8.3213,20.0081,12.3924,18.6932,11.3435,37.431,22.6145,56.0974,34.0007a3.4582,3.4582,0,0,0,4.3675-.1052c10.6023-7.0285,21.2872-13.93,31.8985-20.9417,1.5654-1.0343,2.6073-1.1953,4.2488.1051,13.8471,10.9747,27.8127,21.7994,41.6665,32.7651.8991.7121,1.172,2.216,1.7287,3.3555.036.0748,0,.1811.0046.2727.1051,2.8066-.7893,6.3668.597,8.2118,1.4045,1.87,5.0473,2.101,7.74,2.9552,14.3771,4.56,28.7521,9.1275,43.1606,13.5843,1.8606.5759,2.603,1.2815,2.5984,3.3523q-.114,45.4728-.0582,90.9477c0,.8095-.08,1.6192-.13,2.5428H436.285v-3.1464q0-43.551.0357-87.1015c.0023-1.7846-.34-2.7528-2.2519-3.342-15.1083-4.664-30.1765-9.4562-45.26-14.1983-.6664-.21-1.3665-.3121-2.366-.5344V184.2269h-4.2021v-3.4563q0-57.9745.0492-115.9516a5.6314,5.6314,0,0,0-2.395-5.0585C367.43,50.1388,355.05,40.4064,342.6583,30.691c-1.0379-.8118-1.7958-1.5464-3.3077-.5434-9.7568,6.4806-19.59,12.8451-29.4,19.2421-.3063.2-.6508.34-1.1562.5981a8.905,8.905,0,0,0,1.5229,1.0646c5.3873,1.8886,6.4315,5.6634,6.3935,11.1792-.2773,39.3812-.15,78.7644-.15,118.1477v3.4473h-4.2983v-3.4583q0-59.9.047-119.7983c.0046-2.3424-.5656-3.7235-2.7036-5.0082q-40.8235-24.5193-81.4927-49.29a3.6059,3.6059,0,0,0-4.3978.0132q-40.664,25.0459-81.4311,49.9242a4.1983,4.1983,0,0,0-2.2788,4.1529q.1507,36.5417.1362,73.0853.0523,49.7311.0919,99.4625c.0043,4.5586.0011,9.1173.0011,13.81h-4.21V232.8393q-.0907-82.15-.1846-164.3c-.0044-3.2963.0927-6.6026-.1386-9.8855-.1745-2.4688.4415-4.1886,2.8366-5.168a20.1139,20.1139,0,0,0,2.84-1.8283c-4.0334-1.6728-7.6952-3.257-11.4231-4.6726a3.595,3.595,0,0,0-2.2989.4426q-30.8038,13.41-61.6009,26.8344a2.6224,2.6224,0,0,0-1.7869,2.8939c.036,7.6-.0391,15.2012-.06,22.8023q-.0975,35.302-.1811,70.6053c-.01,4.3755-.0012,8.7506-.0012,13.2859H59.88V88.8513c-1.8784.4429-3.606.823-5.3212,1.2579C38.9628,94.063,23.3849,98.0872,7.76,101.9235c-2.4567.6027-3.1375,1.6392-3.1421,4.0769-.038,24.9972-.1923,49.9967-.3208,74.9951-.0046.8956-.076,1.7912-.1241,2.8758-1.4873.0861-2.83.1643-4.173.2427Z" style="fill: #0071ce;fill-rule: evenodd"/>
      <path id="fullLogo-2" data-name="fullLogo" d="M222.0985,72.5678h8.2732c1.89,8.2395,3.7659,16.4222,5.8412,25.48,1.7777-8.9586,3.4059-17.1569,5.054-25.4568h8.21c1.7331,8.3425,3.4549,16.6459,5.3379,25.7217,2.0619-9.0009,3.9605-17.3031,5.8859-25.7094h7.883c-.6552,2.3672-1.2769,4.6024-1.8963,6.8385-2.4711,8.8972-5.0295,17.77-7.3485,26.7047-.633,2.4411-1.7377,3.1242-4.1595,3.0035-5.2463-.2617-4.0388.5265-5.0787-4.3095-1.5966-7.4144-3.066-14.8534-4.7611-23.1176-.863,4.116-1.5766,7.476-2.2675,10.84-.975,4.7466-2.0284,9.48-2.8469,14.2541-.3219,1.8719-1.136,2.33-2.9048,2.3147-4.7924-.0426-4.8059.0369-6.1341-4.6181C228.18,93.9758,225.1879,83.4328,222.0985,72.5678Z" style="fill: #0071ce;fill-rule: evenodd"/>
      <path id="fullLogo-3" data-name="fullLogo" d="M184.0123,109.0774a56.8472,56.8472,0,0,1-6.5747-.0893c-.75-.0885-1.5778-1.0869-2.0339-1.8675-3.9718-6.7881-7.864-13.6246-11.7911-20.4395a5.4123,5.4123,0,0,0-1.9254-2.0743V108.923h-7.155V72.4682a70.2461,70.2461,0,0,1,7.1.0872c.7493.0772,1.6046,1.0511,2.0541,1.8226,3.8174,6.558,7.55,13.165,11.3168,19.7521.4818.8441,1.0119,1.6593,1.8974,3.1061V72.6583h7.1115Z" style="fill: #0071ce;fill-rule: evenodd"/>
      <path id="fullLogo-4" data-name="fullLogo" d="M207.5167,132.3629c9.9527.0055,16.4781,5.7842,17.2666,15.6775a34.8786,34.8786,0,0,1-.5313,10.0633c-1.9891,9.1218-8.4676,13.3518-18.8631,12.81-7.96-.4146-14.1815-6.3253-15.1431-14.737a39.323,39.323,0,0,1,.0225-9.2929C191.4167,137.7848,198.0136,132.3571,207.5167,132.3629Zm10,19.3371a49.3523,49.3523,0,0,0-.8184-5.1936c-1.3518-5.0776-4.5575-7.6014-9.3557-7.5533-4.685.0481-8.2294,2.7228-9.0614,7.8427a29.2961,29.2961,0,0,0,.2281,10.4984c.9886,4.7017,4.6471,7.1437,9.1285,7.1069,4.427-.0358,7.7355-2.6768,8.9822-7.3618C217.0847,155.2916,217.2312,153.46,217.5163,151.7Z" style="fill: #0071ce;fill-rule: evenodd"/>
      <path id="fullLogo-5" data-name="fullLogo" d="M191.4847,108.8951V72.6683h26.433v6.3H199.2145v7.6336h17.1177v6.5545c-4.6839,0-9.4193.13-14.1412-.0526-2.4968-.0971-3.4851.6151-3.1923,3.1936a55.06,55.06,0,0,1,.0415,5.9685h19.5787v6.6295Z" style="fill: #0071ce;fill-rule: evenodd"/>
      <path id="fullLogo-6" data-name="fullLogo" d="M264.9357,133.5692h26.2185v6.217H272.7v7.6648h17.0046v6.4707H272.7337V163.27h19.3395v6.6283H264.9357Z" style="fill: #0071ce;fill-rule: evenodd"/>
      <path id="fullLogo-7" data-name="fullLogo" d="M154.5815,133.5962H162.08v13.4815h14.1614v-13.429h7.5408v36.2345h-7.4112V154.0213H162.2922v15.9135h-7.7107Z" style="fill: #0071ce;fill-rule: evenodd"/>
      <path id="fullLogo-8" data-name="fullLogo" d="M238.6392,169.9382h-7.67V133.594c6.3242,0,12.5323-.3021,18.6932.0927,5.121.3277,8.3236,4.0679,8.8177,9.237a23.9747,23.9747,0,0,1,.0426,4.1048c-.4518,5.9092-3.5469,9.1374-9.5693,9.6183-3.3275.2661-6.6931.0481-10.3137.0481ZM238.61,139.595V150.61a79.1437,79.1437,0,0,0,8.7172-.4864c2.6254-.4326,3.6383-2.3056,3.5513-5.3336-.074-2.5771-1.0914-4.4959-3.86-4.7766C244.34,139.7414,241.6337,139.7336,238.61,139.595Z" style="fill: #0071ce;fill-rule: evenodd"/>
      <path id="fullLogo-9" data-name="fullLogo" d="M442.5242,220.8182c-2.2116,1.4289-4.3921,2.9073-6.6418,4.2715a5.5793,5.5793,0,0,0-2.88,5.944c.7358,7.9041,1.8563,15.8475.0492,23.7438a22.1384,22.1384,0,0,1-2.3078,6.0949,8.3235,8.3235,0,0,1-9.4328,3.9248c-3.9268-1.0779-6.1609-3.6654-6.3464-7.8763a28.6447,28.6447,0,0,1,6.0581-18.6316c2.3369-3.162,4.9376-6.1287,7.3842-9.2112,2.2966-2.8906,2.243-3.8231-.5569-7.2379-1.2345,1.7757-2.5247,3.3825-3.5334,5.15-1.3126,2.2989-2.3548,4.751-3.6115,7.0847a7.5837,7.5837,0,0,1-2.08,2.8087c-1.2166.8028-2.8915,1.7053-4.1125,1.4291-.8118-.1811-1.4491-2.3046-1.6841-3.6419-.6148-3.4874-1.033-7.0139-1.3842-10.5407a7.5333,7.5333,0,0,1,.3735-3.7659c.36-.7694,1.6348-1.1907,2.5874-1.52a2.8505,2.8505,0,0,1,1.0825,1.7992,67.369,67.369,0,0,1-1.27,7.48c-.5725,2.52-.8253,4.8841,1.7935,7.128,1.268-1.1237,2.9967-2.0539,3.824-3.5,2.527-4.4245,4.6784-9.06,7.0488-13.5777a11.83,11.83,0,0,1,1.7667-2.0507c.7245.7246,1.7868,1.325,2.1088,2.1984a56.505,56.505,0,0,1,1.5565,6.0938c3.9337-.4907,6.0938-4.5765,9.8464-4.4011Q442.3429,220.4163,442.5242,220.8182ZM430.569,230.3c-7.08,6.0783-11.6689,12.7057-13.4089,21.0359a20.6344,20.6344,0,0,0,.0539,7.0308c.4293,2.952,2.4172,4.372,6.1586,4.8169a4.9423,4.9423,0,0,0,5.4075-3.2961,21.0965,21.0965,0,0,0,1.9879-6.7616c.32-6.1787.2238-12.3788.2416-18.5723C431.014,233.4208,430.7838,232.2859,430.569,230.3Z" style="fill: #0071ce;fill-rule: evenodd"/>
      <path id="fullLogo-10" data-name="fullLogo" d="M300.996,219.2674c-.8789,1.4926-1.693,3.0269-2.6476,4.47-3.1107,4.71-6.2214,9.42-9.4642,14.0372-.5031.7156-1.7017.9414-2.5783,1.3921-.387-.8429-1.1228-1.6974-1.096-2.5281.1232-4.0152.5526-8.0192.6687-12.0347a16.9721,16.9721,0,0,0-.9817-5.7439c-3.5623,4.0814-6.8944,8.0059-8.1065,13.287-.2975,1.2925-1.5766,3.4284-2.2519,3.3722-2.2877-.1912-1.2971-2.3749-1.3486-3.7534-.1273-3.331-.0424-6.6709-.0424-10.0074q-.6106-.1595-1.2255-.3176a45.9563,45.9563,0,0,0-2.63,4.156c-1.0578,2.1235-1.778,4.4213-2.9117,6.4976-.436.8-1.61,1.1953-2.4487,1.7745a11.3582,11.3582,0,0,1-.6822-2.451c-.1566-2.9183-.2571-5.8444-.2393-8.7673a16.8429,16.8429,0,0,1,.5613-4.3228c.161-.5958,1.04-.9961,1.5945-1.486.4452.6955,1.2187,1.3653,1.27,2.0876.1656,2.3067.06,4.6326.06,7.373,1.8226-2.5593,3.2806-4.836,4.9958-6.8967a3.9529,3.9529,0,0,1,2.8624-1.43c.5973.0582,1.344,1.6023,1.494,2.5638.3332,2.15.3353,4.353.521,7.3252,1.7264-2.5941,3.0122-4.6974,4.4748-6.6675a59.2552,59.2552,0,0,1,4.3921-5.2186c.4695-.5008,1.628-1.0264,2.0038-.7925a3.0263,3.0263,0,0,1,1.3281,2.1489c.0158,2.8189-.2839,5.6367-.3712,8.4589-.0737,2.4051-.0155,4.8146-.0155,7.66,4.173-5.0943,8.0506-9.8286,11.9284-14.5628C300.4057,219.0158,300.7008,219.1422,300.996,219.2674Z" style="fill: #0071ce;fill-rule: evenodd"/>
      <path id="fullLogo-11" data-name="fullLogo" d="M225.9,226.42c1.8663-2.6309,3.34-4.8918,5.0217-6.9862.6105-.76,1.97-1.7465,2.54-1.5173a3.849,3.849,0,0,1,1.8137,2.5975c.4046,2.1915.4182,4.4535.64,7.3261,1.7465-2.67,3.0839-4.9063,4.6133-7.0018a39.7952,39.7952,0,0,1,4.0881-4.7634c1.7488-1.7376,3.2852-1.3126,3.4372,1.1361.1832,2.9765-.3242,5.991-.4383,8.9933-.0829,2.2273-.0158,4.46-.0158,7.3048,4.2669-5.1994,8.14-9.9146,12.009-14.63.1542.055.3062.11.4606.1656a9.0709,9.0709,0,0,1-.7514,2.5638c-3.5645,5.3929-7.174,10.7589-10.8862,16.0533-.521.7424-1.6683,1.0442-2.5247,1.5508-.4452-.9872-1.29-1.9847-1.2659-2.9586.0939-3.5523.59-7.0911.7135-10.6424a24.7891,24.7891,0,0,0-.7939-6.7178c-3.7951,3.7479-6.8275,7.75-8.1827,12.8072-.0962.3511-.0067.8006-.1967,1.0679-.7133,1.0073-1.505,1.9588-2.2675,2.9307-.4475-1.0635-1.2323-2.1123-1.2815-3.1957-.1633-3.5993-.06-7.21-.06-10.8159-.3867-.0884-.7715-.1745-1.1562-.2627-.9414,1.4782-2.0069,2.8925-2.793,4.4489-1.0275,2.0351-1.7008,4.2557-2.802,6.245-.4441.8029-1.6147,1.2031-2.4544,1.7878a10.8321,10.8321,0,0,1-.7033-2.4743c-.1241-3.1052-.152-6.2159-.1509-9.3232a9.4208,9.4208,0,0,1,.3543-3.2414c.2931-.7827,1.1651-1.3486,1.7791-2.0106a7.2741,7.2741,0,0,1,1.1974,2.3907C226.0109,221.4679,225.9,223.7086,225.9,226.42Z" style="fill: #0071ce;fill-rule: evenodd"/>
      <path id="fullLogo-12" data-name="fullLogo" d="M316.3908,225.7762c-1.5813,2.8032-3.1533,5.6109-4.7455,8.4072-1.1629,2.0451-1.617,5.2721-4.9445,4.4491-3.0661-.758-3.2135-3.9156-3.1263-6.3.1855-4.9845.8922-9.9558,1.5767-14.9058.0737-.5413,1.4087-.9068,2.16-1.3541.5255,1.0129,1.5833,2.0853,1.4781,3.0267-.2905,2.5874-1.2633,5.0954-1.5965,7.6828a52.56,52.56,0,0,0-.06,6.719c.26.1543.5166.3087.7738.4628a15.3116,15.3116,0,0,0,2.8267-2.7986c2.7283-4.6392,5.2351-9.4092,7.95-14.0551.5033-.86,1.608-1.3687,2.4354-2.0385.4,1.1864,1.1985,2.3962,1.1294,3.5547-.2327,3.91-.8475,7.7957-1.1562,11.7024a29.722,29.722,0,0,0,.5388,4.8886c1.9323-1.3048,3.4888-2.0138,4.5891-3.16,4.3942-4.5822,8.6476-9.3007,13.4043-13.6569a6.4632,6.4632,0,0,1-.709,1.5989c-4.9378,5.9676-9.7971,12.0044-14.9184,17.81-2.2407,2.5394-4.146,1.9579-4.9846-1.3731-.861-3.409-1.3172-6.9211-1.9478-10.3875C316.84,225.9573,316.6143,225.8667,316.3908,225.7762Z" style="fill: #0071ce;fill-rule: evenodd"/>
      <path id="fullLogo-13" data-name="fullLogo" d="M189.8657,229.4369a27.6423,27.6423,0,0,1-3.6866,2.7027q-6.4472,3.3424-13.0441,6.389a8.8356,8.8356,0,0,1-3.6855.7783,14.6006,14.6006,0,0,1-14.1245-18.3747c1.9355-7.7778,5.4767-14.6195,12.0681-19.374,5.17-3.7289,10.6717-7.0052,16.0678-10.4145,2.4141-1.5262,4.53-.3375,6.094,1.4056a4.0338,4.0338,0,0,1,.502,3.5288c-.4037.9918-1.8338,1.5666-3.0369,2.4959-.8018-4.5074-2.2016-5.299-6.19-4.01a12.2413,12.2413,0,0,0-2.71,1.2925,60.6635,60.6635,0,0,0-16.7957,16.3609c-3.2728,4.5407-3.8228,9.8876-3.4718,15.2223a9.5306,9.5306,0,0,0,11.9575,8.5752C176.5541,234.2182,183.1032,231.69,189.8657,229.4369Z" style="fill: #0071ce;fill-rule: evenodd"/>
      <path id="fullLogo-14" data-name="fullLogo" d="M382.8847,214.43c1.3394-2.4241,2.8892-2.4,4.56-2.0785,3.7034.711,4.8325.0345,5.3448-3.7235.3041-2.2476-.0314-4.5767.21-6.8386.2906-2.7037.8407-5.3827,1.382-8.0528a3.5067,3.5067,0,0,1,1.0511-1.8788,9.8512,9.8512,0,0,1,2.29-1.1135,6.4341,6.4341,0,0,1,.559,2.2251c-.4406,3.35-1.0644,6.6764-1.55,10.0209-.2862,1.9859-.3286,4.0107-.6842,5.9821-.4651,2.5638.7492,3.24,3.0168,3.1867,3.0591-.0728,6.1229-.0179,9.1843-.0179q.0977.4446.1947.8888a40.1335,40.1335,0,0,1-4.146,1.1484,33.5692,33.5692,0,0,1-3.56.1117c-3.737.2361-5.356,1.4592-5.3246,5.1493.038,4.6346.7536,9.2626,1.1225,13.8973a9.1316,9.1316,0,0,1-.1028,3.4764c-.3087.9359-1.2769,1.6547-1.9545,2.47a8.4259,8.4259,0,0,1-1.19-2.69c-.2347-4.8394-.2972-9.6866-.4181-14.5314-.0156-.548.0224-1.1027-.0424-1.6449-.624-5.2351-1.371-5.8937-6.7469-5.9844C385.19,214.418,384.3,214.43,382.8847,214.43Z" style="fill: #0071ce;fill-rule: evenodd"/>
      <path id="fullLogo-15" data-name="fullLogo" d="M219.9327,218.5631c-2.3818.5992-4.7409,1.3025-7.1472,1.7744-4.353.8542-4.5644,1.07-5.0608,5.2988a17.6119,17.6119,0,0,1-6.3476,11.7764c-.2091.1756-.4037.4607-.6384.501-2.3562.4081-4.72.777-7.0813,1.156-.24-2.1089-.8276-4.2523-.6217-6.3176.2024-2.0383,1.297-3.9726,1.8338-5.9976.5512-2.0763.7625-4.25,1.3909-6.2986a6.5324,6.5324,0,0,1,1.9836-3.4372c4.0711-2.7237,4.1885-2.6733,7.874.586a5.1818,5.1818,0,0,0,5.7394,1.0612c2.4532-.8219,5.1434-.9382,7.7309-1.3619Q219.7611,217.933,219.9327,218.5631Zm-23.95,14.415c.37.8755.6552,2.6175,1.2556,2.7338a4.7626,4.7626,0,0,0,3.3456-1.0655c3.0088-2.3426,4.1428-5.6768,4.421-9.3779.1365-1.8249-.7568-2.0875-2.3525-1.9792a5.5593,5.5593,0,0,0-5.2586,4.07C196.8038,229.0712,196.4974,230.8817,195.9831,232.9781Zm6.8184-12.4864q.1761-.5016.3512-1.004c-.7872-.5422-1.8507-1.7007-2.3046-1.4971-.9045.4046-1.4759,1.5574-2.1837,2.4.1855.23.3724.4608.5579.6911Z" style="fill: #0071ce;fill-rule: evenodd"/>
      <path id="fullLogo-16" data-name="fullLogo" d="M360.5731,235.4124c1.4917-1.2861,2.715-2.3415,3.9962-3.4473.0717,1.7543-3.3656,7.0867-4.7611,7.2646-2.1825.2794-2.4866-1.2178-2.5851-2.95q-.4359-7.5139-1.0309-15.0166a7.012,7.012,0,0,0-.9011-2.0731c-.57.5054-1.342.9022-1.6752,1.5317-1.9611,3.71-3.8217,7.4715-5.7136,11.2186a10.1013,10.1013,0,0,1-1.38,2.6511,3.7477,3.7477,0,0,1-2.5451,1.12c-.5746-.0357-1.4-1.088-1.5565-1.8056a25.022,25.022,0,0,1-.3689-4.6035c-.0513-1.8091-.0962-3.6262.0314-5.4275a11.72,11.72,0,0,1,.796-4.1874c.4673-.9728,1.6952-1.5812,2.5851-2.3516a14.8033,14.8033,0,0,1,.6174,3.3175c-.0985,2.5451-.4452,5.08-.6486,7.6226a18.9855,18.9855,0,0,0,.2215,2.4218c.8273-1.2411,1.308-1.9063,1.7285-2.6075,2.2631-3.7546,4.3855-7.6022,6.843-11.2252.6687-.9872,2.3257-1.3037,3.5289-1.9286.5592,1.109,1.5253,2.1892,1.6014,3.331.3263,4.9131.3732,9.8452.5745,14.7673A12.4228,12.4228,0,0,0,360.5731,235.4124Z" style="fill: #0071ce;fill-rule: evenodd"/>
      <path id="fullLogo-17" data-name="fullLogo" d="M370.9966,235.7041q5.1489-5.9757,10.2958-11.9518c.2235.1509.4473.303.6708.4539-.7133,1.1988-1.3373,2.4587-2.1535,3.5827-2.518,3.4741-5.0249,6.9626-7.7353,10.2846a4.4589,4.4589,0,0,1-3.0683,1.1327c-.4786.0146-1.3731-1.1606-1.4335-1.8517-.4628-5.4421-.7937-10.8963-1.0912-16.3506a2.9715,2.9715,0,0,1,.6039-2.0619,8.9265,8.9265,0,0,1,2.37-1.27c.3176.6508.946,1.325.8991,1.9478-.2886,3.7278-.8455,7.4367-1.069,11.167a20.1506,20.1506,0,0,0,.711,4.4323Q370.4965,235.46,370.9966,235.7041Z" style="fill: #0071ce;fill-rule: evenodd"/>
      <path id="fullLogo-18" data-name="fullLogo" d="M373.3355,204.3078a11.8551,11.8551,0,0,1-2.5762,2.2652c-.2906.1276-1.6659-1.1326-1.5652-1.4177a5.0817,5.0817,0,0,1,1.7509-2.3268C371.1731,202.6629,372.18,203.5686,373.3355,204.3078Z" style="fill: #0071ce;fill-rule: evenodd"/>
    </g>
  </g>
</svg>
