<svg xmlns="http://www.w3.org/2000/svg" viewBox="0 0 390.8845 282.1599">
  <title>select-human-services---stacked-logo-full-color-rgb</title>
  <g id="full-rgb">
    <g>
      <path id="fullLogo" d="M135.3776,73.9528c-1.5248,26.34,6.399,56.0195,11.705,68.3273,1.7465,3.6776,3.2423,3.7157,2.5358,1.9755-5.7782-24.984-9.4119-35.2076-11.1585-64.5466C138.2315,75.9268,135.526,71.4608,135.3776,73.9528Z" style="fill: #96b5c8;fill-rule: evenodd"/>
      <path id="fullLogo-2" data-name="fullLogo" d="M138.7539,55.2315c-9.5142,5.7267-13.5758,30.7054-3.972,47.42.7508,1.3551,1.4728,2.6019,2.19,3.7209,3.5817,5.75,3.6261,6.6631-.6486,2.1383-11.5932-12.3-15.2347-36.8658-2.72-54.391C136.3231,50.3077,139.6542,53.9057,138.7539,55.2315Z" style="fill: #96b5c8;fill-rule: evenodd"/>
      <path id="fullLogo-3" data-name="fullLogo" d="M165.8642,37.8378c1.2674-20.2962-6.5466-22.1318-6.5466-22.1318s4.9311,7.68,3.1856,19.9136c-.9957,6.92-6.132,11.6514-9.892,11.5194-4.4954.2285-8.8944-2.947-9.8843-9.5513-2.4231-16.156,8.5725-23.4229,8.5725-23.4229s-13.03,2.9845-11.9248,23.673c.6487,12.3821,8.372,15.2708,13.3474,15.2708C152.722,53.1086,164.9128,53.1307,165.8642,37.8378Z" style="fill: #96b5c8;fill-rule: evenodd"/>
      <path id="fullLogo-4" data-name="fullLogo" d="M253.8039,73.9528c1.519,26.34-6.3961,56.0195-11.7117,68.3273-1.7456,3.6776-3.2357,3.7157-2.5283,1.9755,5.7793-24.984,9.4121-35.2076,11.1527-64.5466C250.9441,75.9268,253.6573,71.4608,253.8039,73.9528Z" style="fill: #96b5c8;fill-rule: evenodd"/>
      <path id="fullLogo-5" data-name="fullLogo" d="M250.414,55.2315c9.53,5.7267,13.5894,30.7054,3.98,47.42-.7518,1.3551-1.4746,2.6019-2.1821,3.7209-3.5893,5.75-3.6337,6.6631.6487,2.1383,11.5855-12.3,15.2336-36.8658,2.719-54.391C252.86,50.3077,249.5128,53.9057,250.414,55.2315Z" style="fill: #96b5c8;fill-rule: evenodd"/>
      <path id="fullLogo-6" data-name="fullLogo" d="M223.32,37.8378c-1.2675-20.2962,6.5446-22.1318,6.5446-22.1318s-4.9224,7.68-3.1769,19.9136c.9889,6.92,6.14,11.6514,9.8833,11.5194,4.5041.2285,8.905-2.947,9.891-9.5513,2.4174-16.156-8.5638-23.4229-8.5638-23.4229s13.0149,2.9845,11.9093,23.673c-.6476,12.3821-8.371,15.2708-13.34,15.2708C236.4681,53.1086,224.2782,53.1307,223.32,37.8378Z" style="fill: #96b5c8;fill-rule: evenodd"/>
      <path id="fullLogo-7" data-name="fullLogo" d="M173.7176,59.24c-14.2245,8.5426-21.7551,51.79-7.4,76.7311,1.121,2.0414,2.1956,3.906,3.2434,5.587,5.3657,8.5565,5.4236,9.9338-.9581,3.1691-17.2982-18.358-21.2779-60.9813-2.6-87.1369C170.0627,51.8928,175.0448,57.258,173.7176,59.24Z" style="fill: #2c363c;fill-rule: evenodd"/>
      <path id="fullLogo-8" data-name="fullLogo" d="M213.6846,34.1309C215.2,4.8438,204.2417,2.2145,204.2417,2.2145s6.8637,11.0491,4.5851,28.7063c-1.5923,12.4606-5.9788,16.6529-14.2958,16.3965-7.5739-.2332-12.8009-4.0216-14.2111-13.5421C176.8163,10.465,186.6139,0,186.6139,0s-13.86,8.2616-11.1286,34.1309c1.8785,17.783,8.7894,21.7907,19.2374,22.0221C194.7227,56.153,212.5232,56.5529,213.6846,34.1309Z" style="fill: #2c363c;fill-rule: evenodd"/>
      <path id="fullLogo-9" data-name="fullLogo" d="M143.2628,153.58c-.2978,0-1.1325.28-2.4212,2.8766l-1.7021,3.3686-.7142-.6342c-4.189-3.7233-10.0559-5.611-17.4419-5.611-7.7464,0-14.1334,2.19-18.9825,6.51-4.8246,4.2959-7.27,10.3189-7.27,17.902,0,4.2935,2.1749,9.6318,6.4635,15.8674,6.0863,8.9142,9.5686,13.946,10.6482,15.384l.5821.97c4.1061,5.229,6.2139,12.5152,6.2139,21.58,0,12.9956-6.0153,23.8678-17.8784,32.313a60.2927,60.2927,0,0,1-36.1082,11.5537c-27.1377,0-41.5834-9.7367-42.9361-28.9406l-.0357-.4992.453-.2149a144.3887,144.3887,0,0,1,19.6649-7.2849q13.5918-3.986,20.2891-5.98c20.6818-6.4982,31.1738-14.4283,31.1738-23.5666,0-7.6838-8.2848-11.58-24.624-11.58-22.6432,0-38.5063,9.6062-47.1486,28.55a50.8719,50.8719,0,0,0-4.4665,16.2544l-.04.3817-.3359.1851C5.6,249.0728,0,255.56,0,262.2468c0,2.5619,1.4444,5.4264,4.293,8.5136a2.6439,2.6439,0,0,0,1.6727.5311c1.121,0,2.266-.3008,2.34-2.479-2.7215-3.8631-3.0752-5.1508-3.0752-5.841,0-5.2106,3.6592-9.9362,10.8766-14.0433l.98-.557.1147,1.1209c1.0592,10.3441,6.31,18.6321,15.6077,24.6341,8.1729,5.3311,17.9709,8.0337,29.1246,8.0337,17.2679,0,32.2383-4.4019,44.4952-13.0862,13.6158-9.71,20.52-22.9772,20.52-39.4316a46.1214,46.1214,0,0,0-6.2477-22.463c-1.3146-2.387-5.0158-7.8472-11.0037-16.2318-3.7509-5.5006-5.57-9.7247-5.57-12.9266a20.79,20.79,0,0,1,4.7561-13.5054,15.3136,15.3136,0,0,1,12.3595-5.8853c5.6877,0,9.3195,1.0659,11.1016,3.26,1.7465,2.1523,2.5956,6.0067,2.5956,11.7845a7.1909,7.1909,0,0,1-.1986,1.5167,5.8162,5.8162,0,0,0-.1638,1.2009c0,2.3841,1.1846,2.706,2.3441,2.706.4289,0,1.066-.1277,1.6809-1.22l7.1846-20.5651C145.7486,153.58,143.9462,153.58,143.2628,153.58ZM22.276,238.7153a40.1473,40.1473,0,0,1,4.2429-10.7575A50.9886,50.9886,0,0,1,44.341,209.2186a45.8956,45.8956,0,0,1,24.4764-6.9359c9.2622,0,13.9581,2.2689,13.9581,6.7426,0,5.2458-8.2747,10.8309-25.2968,17.0741-15.1247,5.5518-26.6268,10.0771-34.1873,13.4525l-1.3494.6034Z" style="fill: #2c363c"/>
      <path id="fullLogo-10" data-name="fullLogo" d="M189.5112,204.8224a2.9774,2.9774,0,0,0,.5957-1.5773c0-1.9012-.8656-2.1633-1.8024-2.1633a1.7152,1.7152,0,0,0-1.7,1.0438l-.0876.1339c-6.2825,7.7523-13.2472,11.683-20.6977,11.683-6.3316,0-10.8877-2.9635-13.5441-8.8087l-.2149-.4737.3749-.361c20.0915-19.2717,32.9-31.1179,38.0682-35.209l.1436-.0891a1.2534,1.2534,0,0,0,.7277-1.3133,1.4792,1.4792,0,0,0-.238-.8515c-2.7586-4.5677-8.3373-6.8693-16.5956-6.8693a31.2425,31.2425,0,0,0-23.731,10.54,35.4708,35.4708,0,0,0-9.7657,24.7691,24.6057,24.6057,0,0,0,6.24,16.9878,20.65,20.65,0,0,0,16.0268,6.9108,29.8863,29.8863,0,0,0,14.6757-4.0718A33.7606,33.7606,0,0,0,189.5112,204.8224Zm-39.0706-9.7416a37.8408,37.8408,0,0,1,5.5036-19.5016c4.3229-7.25,9.8043-10.9257,16.2929-10.9257,4.5282,0,7.4872,1.9349,8.7951,5.7509l.1553.451L150.4406,199.501Z" style="fill: #2c363c"/>
      <path id="fullLogo-11" data-name="fullLogo" d="M262.0323,204.8953a2.9991,2.9991,0,0,0,.5946-1.5774c0-1.9012-.8664-2.1634-1.8023-2.1634a1.7142,1.7142,0,0,0-1.7012,1.0434l-.0858.1345c-6.2853,7.7522-13.2491,11.6833-20.7,11.6833-6.3305,0-10.8876-2.9638-13.544-8.8086l-.2149-.4743.3749-.36c20.3806-19.55,32.8336-31.0669,38.0682-35.21l.1436-.0892a1.2537,1.2537,0,0,0,.7287-1.3141,1.4925,1.4925,0,0,0-.239-.8521c-2.7585-4.5668-8.3364-6.8684-16.5955-6.8684a31.2436,31.2436,0,0,0-23.732,10.5412,35.4764,35.4764,0,0,0-9.7657,24.768,24.6017,24.6017,0,0,0,6.241,16.9888,20.6482,20.6482,0,0,0,16.0268,6.9094,29.8684,29.8684,0,0,0,14.6756-4.0718A33.7641,33.7641,0,0,0,262.0323,204.8953Zm-39.0716-9.7421a37.8443,37.8443,0,0,1,5.5016-19.5007c4.3248-7.2506,9.8062-10.9262,16.2949-10.9262,4.5291,0,7.4882,1.9345,8.7951,5.75l.1542.4516-30.7458,28.6471Z" style="fill: #2c363c"/>
      <path id="fullLogo-12" data-name="fullLogo" d="M318.7076,199.8765c0-1.4073-.5716-1.9812-1.972-1.9812-.6516,0-2.1831.7383-5.1392,5.6847-5.8227,7.43-13.1161,11.1591-21.73,11.1591h-.722c-7.9074,0-11.916-4.4222-11.916-13.1431,0-7.6491,2.4606-15.5156,7.3146-23.38,5.5228-8.9508,11.7348-13.49,18.4635-13.49,6.2563,0,9.5624,3.4781,9.5624,10.0582a24.8394,24.8394,0,0,1-.3711,3.6806,23.5029,23.5029,0,0,0-.3538,3.4476c0,2.253.9109,2.5571,1.8014,2.5571,1.11,0,2.0241-1.4453,2.5947-2.6573.7066-1.5277,2.9359-7.3349,6.8126-17.7469-.0328-1.5513-.6863-2.2154-2.162-2.2154-1.2328,0-2.2833,1.0626-3.1218,3.1594l-.3509.88-.7653-.5591c-4.801-3.5108-9.59-5.291-14.237-5.291a29.92,29.92,0,0,0-19.6327,7.4351,42.8854,42.8854,0,0,0-12.1059,17.4568,38.317,38.317,0,0,0-2.8463,13.8592c0,6.4024,1.9335,11.4944,5.7484,15.1359,3.8245,3.65,9.0178,5.5016,15.4331,5.5016,9.7485,0,18.3344-4.3007,25.5208-12.7821C317.9837,202.6239,318.7076,200.7454,318.7076,199.8765Z" style="fill: #2c363c"/>
      <path id="fullLogo-13" data-name="fullLogo" d="M387.9246,121.3945a13.4845,13.4845,0,0,0-4.9976-1.041c-9.517,0-17.8013,3.9234-24.6254,11.66-1.7841,2.0135-6.452,8.9648-13.8785,20.6616-4.6564,7.2727-8.8288,10.8072-12.7565,10.8072-2.88,0-3.2492,1.2463-3.2492,2.332,0,1.2737.5214,1.7928,1.8015,1.7928h5.8891l-.2988.9542c-4.8038,15.3734-9.3773,29.155-13.5942,40.9626a11.1182,11.1182,0,0,0-.4992,3.7388c0,4.1942,1.9537,6.1479,6.1474,6.1479,4.7721,0,11.4553-3.0024,19.863-8.9228,4.08-2.8275,4.3971-3.9975,4.3971-4.2891,0-.6087-.1253-1.2578-1.62-1.2578-.188.025-1.3291.3894-7.13,3.9662-4.5725,2.8154-7.69,4.1841-9.5334,4.1841-.5475,0-2.0029,0-2.0029-1.0978,0-2.5239,4.5754-16.8227,13.9873-43.7131l.16-.4564.4819-.0342c4.3576-.3093,5.4226-.46,5.67-.5224,1.7194-.4771,2.5878-1.3687,2.693-2.7883-.7789-.721-1.2242-.8357-1.4275-.8357H347.28l.3605-.987c9.3705-25.68,21.3637-38.7015,35.648-38.7015a9.7431,9.7431,0,0,1,3.2491.7711,8.412,8.412,0,0,0,2.7287.678c1.3426,0,1.6182-.5749,1.6182-1.4385C390.8845,122.9853,389.888,122.1207,387.9246,121.3945Z" style="fill: #2c363c"/>
      <path id="fullLogo-14" data-name="fullLogo" d="M219.4108,94.1084c2.5,39.33-11.3956,102.8693-19.969,121.2533-2.8434,5.4723-8.04,5.3421-6.906,2.734,10.6679-36.237,16.6659-65.01,20.2938-111.7614C213.1834,100.6968,219.1612,90.3865,219.4108,94.1084Z" style="fill: #2c363c;fill-rule: evenodd"/>
      <path id="fullLogo-15" data-name="fullLogo" d="M214.1829,59.24c14.2235,8.5426,21.7551,51.79,7.4,76.7311-1.121,2.0414-2.1957,3.906-3.2433,5.587-5.3649,8.5565-5.4256,9.9338.957,3.1691,17.2982-18.358,21.2789-60.9813,2.6024-87.1369C217.8388,51.8928,212.8567,57.258,214.1829,59.24Z" style="fill: #2c363c;fill-rule: evenodd"/>
      <path id="fullLogo-16" data-name="fullLogo" d="M366.131,146.5206v-4.985h-1.7745v-.667h4.27v.667h-1.7822v4.985Z" style="fill: #96b5c8"/>
      <path id="fullLogo-17" data-name="fullLogo" d="M369.3348,146.5206v-5.652h1.0737l1.2752,4.002q.1764.5588.2574.8365.091-.3087.2862-.906l1.29-3.9325h.9589v5.652h-.6871V141.79l-1.5654,4.7305h-.6429l-1.5585-4.8115v4.8115Z" style="fill: #96b5c8"/>
      <path id="fullLogo-18" data-name="fullLogo" d="M153.2061,254.8194h-3.5567l2.9666-9.3427H142.0681l-2.9666,9.3427h-3.5567l6.6982-21.0965h3.5559l-2.66,8.3782H153.688l2.66-8.3782h3.5566Z" style="fill: #96b5c8"/>
      <path id="fullLogo-19" data-name="fullLogo" d="M170.2334,254.8194h-3.1345l.204-1.1153a6.8005,6.8005,0,0,1-4.0362,1.4165q-6.0888,0-3.8589-7.0219l2.622-8.2582h3.4062l-2.5522,8.0371a5.2991,5.2991,0,0,0-.2962,3.3085q.4214,1.0411,2.05,1.0417a4.8631,4.8631,0,0,0,3.4554-1.3893l3.4914-10.998h3.4047Z" style="fill: #96b5c8"/>
      <path id="fullLogo-20" data-name="fullLogo" d="M196.7614,254.8194h-3.4347l2.63-8.2877a5.0362,5.0362,0,0,0,.2886-3.0893q-.3834-.9789-2.0089-.98a4.1952,4.1952,0,0,0-4.3,3.2846l-2.88,9.0719H183.652l2.5744-8.1074q.7747-2.4412.3085-3.3456t-2.1248-.9035a4.9628,4.9628,0,0,0-3.5942,1.446l-3.4638,10.9105h-3.4047l4.7552-14.9789h2.7725l-.1689,1.296a7.9572,7.9572,0,0,1,4.535-1.5665q3.1343,0,3.938,2.5008a7.0692,7.0692,0,0,1,2.4425-1.7633,8.1,8.1,0,0,1,3.4753-.7375q2.9224,0,3.8313,1.8382t-.135,5.1235Z" style="fill: #96b5c8"/>
      <path id="fullLogo-21" data-name="fullLogo" d="M213.867,252.3175l-1.2216,2.8031H211.62q-2.5311,0-2.9029-1.8676a7.7918,7.7918,0,0,1-5.175,1.8676,4.1014,4.1014,0,0,1-1.6765-.3154,2.5881,2.5881,0,0,1-1.1158-.905,2.9029,2.9029,0,0,1-.47-1.4162,4.7487,4.7487,0,0,1,.2486-1.8232,5.3533,5.3533,0,0,1,1.6973-2.5468,10.3614,10.3614,0,0,1,2.7027-1.6275,13.7468,13.7468,0,0,1,3.0647-.8744,21.0208,21.0208,0,0,1,2.8193-.2862,2.5126,2.5126,0,0,0-.0108-2.1543,2.4505,2.4505,0,0,0-2.0027-.6181,10.8252,10.8252,0,0,0-4.4207,1.2058l.5172-2.7724a13.71,13.71,0,0,1,5.785-1.4169q2.7117,0,3.58,1.4909.8655,1.4925-.2141,4.8976l-1.1871,3.7382c-.178.5616-.3077,1.0144-.3852,1.3555a1.9741,1.9741,0,0,0-.0575.7988.4689.4689,0,0,0,.3161.3768,2.3491,2.3491,0,0,0,.7413.09Zm-4.8926-1.2051,1.1011-3.4653a10.739,10.739,0,0,0-3.9011.7988,3.4061,3.4061,0,0,0-2.042,2.0637q-.6215,1.96,1.4887,1.9595a4.63,4.63,0,0,0,1.6521-.3619A6.2547,6.2547,0,0,0,208.9744,251.1124Z" style="fill: #96b5c8"/>
      <path id="fullLogo-22" data-name="fullLogo" d="M228.6077,254.8194h-3.4055l2.5744-8.1074a4.9471,4.9471,0,0,0,.2548-3.2243q-.4431-1.0243-2.1616-1.0248a5.2509,5.2509,0,0,0-3.6932,1.4764l-3.4546,10.88h-3.4047l4.7552-14.9789h3.074l-.2341,1.1153a7.9341,7.9341,0,0,1,4.2388-1.3858q6.2985,0,4.0309,7.142Z" style="fill: #96b5c8"/>
      <path id="fullLogo-23" data-name="fullLogo" d="M245.9243,255.2415a16.5884,16.5884,0,0,1-3.9649-.4221,6.9642,6.9642,0,0,1-2.5276-1.0543l1.7434-4.0684a5.4536,5.4536,0,0,0,2.2377,1.545,9.5766,9.5766,0,0,0,3.6739.6242q4.16,0,4.9786-2.5794a2.0211,2.0211,0,0,0-.069-1.6352,3.2074,3.2074,0,0,0-1.0444-1.1245,5.869,5.869,0,0,0-1.4488-.7056q-.7781-.2544-1.263-.4343-1.0624-.3626-2.0865-.7839a6.1427,6.1427,0,0,1-1.7456-1.0547,3.1632,3.1632,0,0,1-.9738-1.5826,4.3193,4.3193,0,0,1,.2034-2.3957,8.6393,8.6393,0,0,1,1.08-2.17,8.5279,8.5279,0,0,1,1.9222-2.0189,10.196,10.196,0,0,1,2.8238-1.4921,11.2659,11.2659,0,0,1,3.7884-.5878,13.6294,13.6294,0,0,1,1.9168.1354,14.6532,14.6532,0,0,1,1.7825.3623,10.2737,10.2737,0,0,1,1.48.5121,5.4785,5.4785,0,0,1,1.0138.5567l-1.5294,3.6775a10.6506,10.6506,0,0,0-5.5556-1.8677,9.1585,9.1585,0,0,0-1.563.1343,6.0211,6.0211,0,0,0-1.45.4343,4.3252,4.3252,0,0,0-1.1825.7793,2.6223,2.6223,0,0,0-.7229,1.1387,1.5405,1.5405,0,0,0,.1213,1.4683,3.3581,3.3581,0,0,0,1.3282.9442q.9105.4041,2.1931.8261a19.4645,19.4645,0,0,1,2.711,1.146,5.3353,5.3353,0,0,1,1.1257.678,3.9542,3.9542,0,0,1,.9661,1.0846,3.809,3.809,0,0,1,.5118,1.522,4.7179,4.7179,0,0,1-.2494,2.0189,12.947,12.947,0,0,1-.8663,2.02,7.1581,7.1581,0,0,1-1.72,2.0944,9.2694,9.2694,0,0,1-2.9727,1.628A14.2205,14.2205,0,0,1,245.9243,255.2415Z" style="fill: #96b5c8"/>
      <path id="fullLogo-24" data-name="fullLogo" d="M272.0594,247.8876H262.0232a3.6157,3.6157,0,0,0,.5978,3.2931,3.768,3.768,0,0,0,2.8476,1.0471,12.3971,12.3971,0,0,0,4.8634-1.0851l-.6576,2.8335a13.7349,13.7349,0,0,1-5.3667,1.1444,7.9635,7.9635,0,0,1-3.249-.5874,4.62,4.62,0,0,1-2.0258-1.6421,4.95,4.95,0,0,1-.7973-2.4716,8.4644,8.4644,0,0,1,.4436-3.1039,11.7781,11.7781,0,0,1,1.4587-3.03,11.36,11.36,0,0,1,2.226-2.4555,10.5214,10.5214,0,0,1,2.8016-1.6582,8.6225,8.6225,0,0,1,3.206-.602,5.9817,5.9817,0,0,1,2.4585.4665,3.9985,3.9985,0,0,1,1.6483,1.3111,4.1323,4.1323,0,0,1,.7259,2.0349,6.5845,6.5845,0,0,1-.3407,2.6367q-.115.3619-.3085.8291T272.0594,247.8876Zm-4.5465-5.4247q-2.9524,0-4.6026,3.1043h6.6007a2.9388,2.9388,0,0,0-.0238-2.2008Q269.0488,242.4636,267.5129,242.4629Z" style="fill: #96b5c8"/>
      <path id="fullLogo-25" data-name="fullLogo" d="M286.1747,239.509l-1.7251,3.3457h-1.2661a4.2741,4.2741,0,0,0-1.8861.4826,4.8339,4.8339,0,0,0-1.5539,1.1445l-3.2827,10.3376h-3.496l4.756-14.9789h3.1046l-.4128,1.8688a8.1561,8.1561,0,0,1,5.0085-2.2Z" style="fill: #96b5c8"/>
      <path id="fullLogo-26" data-name="fullLogo" d="M301.8215,239.8405,291.34,254.8194h-3.1638l-.9706-14.9789h3.4653l.3829,10.85,7.2721-10.85Z" style="fill: #96b5c8"/>
      <path id="fullLogo-27" data-name="fullLogo" d="M302.5337,254.8194h-3.4362l4.756-14.9789H307.29Zm5.5793-17.5706h-3.4362l1.1189-3.5259h3.4361Z" style="fill: #96b5c8"/>
      <path id="fullLogo-28" data-name="fullLogo" d="M312.67,255.1206a6.3,6.3,0,0,1-2.9121-.6023,4.24,4.24,0,0,1-1.7695-1.6421,5.1653,5.1653,0,0,1-.6522-2.4567,9.1686,9.1686,0,0,1,.48-3.0744,12.23,12.23,0,0,1,1.4772-3.0886,11.2586,11.2586,0,0,1,2.216-2.4716,9.9884,9.9884,0,0,1,2.8077-1.6271,9.148,9.148,0,0,1,3.2912-.5878,6.95,6.95,0,0,1,4.1866,1.0544l-1.2991,2.9531a5.6781,5.6781,0,0,0-3.5045-1.1146,5.0951,5.0951,0,0,0-3.4745,1.3072,7.7179,7.7179,0,0,0-2.2,3.56,4.8388,4.8388,0,0,0-.0659,3.5758,2.6484,2.6484,0,0,0,2.64,1.3218,9.6171,9.6171,0,0,0,4.232-1.0851l-.5778,2.8637A10.0356,10.0356,0,0,1,312.67,255.1206Z" style="fill: #96b5c8"/>
      <path id="fullLogo-29" data-name="fullLogo" d="M334.7613,247.8876h-10.036a3.62,3.62,0,0,0,.5969,3.2931,3.771,3.771,0,0,0,2.8469,1.0471,12.4044,12.4044,0,0,0,4.865-1.0851l-.6576,2.8335a13.7391,13.7391,0,0,1-5.3676,1.1444,7.9686,7.9686,0,0,1-3.2489-.5874,4.6216,4.6216,0,0,1-2.0251-1.6421,4.95,4.95,0,0,1-.798-2.4716,8.4809,8.4809,0,0,1,.4443-3.1039,11.8285,11.8285,0,0,1,1.458-3.03,11.3871,11.3871,0,0,1,2.2275-2.4555,10.5186,10.5186,0,0,1,2.8008-1.6582,8.6217,8.6217,0,0,1,3.2052-.602,5.9861,5.9861,0,0,1,2.4594.4665,4.0156,4.0156,0,0,1,1.649,1.3111,4.1321,4.1321,0,0,1,.7244,2.0349,6.5814,6.5814,0,0,1-.3392,2.6367q-.1162.3619-.3092.8291T334.7613,247.8876Zm-4.5457-5.4247q-2.9547,0-4.6033,3.1043h6.6a2.94,2.94,0,0,0-.0231-2.2008Q331.7518,242.4636,330.2156,242.4629Z" style="fill: #96b5c8"/>
      <path id="fullLogo-30" data-name="fullLogo" d="M339.8512,255.1206q-3.3437,0-4.7192-1.1752l1.2876-3.0137a4.0377,4.0377,0,0,0,.7175.5425,5.8854,5.8854,0,0,0,.9914.4826,8.0016,8.0016,0,0,0,1.1855.3466,6.1,6.1,0,0,0,1.2692.1354,3.7923,3.7923,0,0,0,2.0511-.482,2.27,2.27,0,0,0,.9945-1.2361,1.0975,1.0975,0,0,0-.2647-1.2059,4.5069,4.5069,0,0,0-1.2984-.8437q-.8046-.362-1.6989-.6776a5.6642,5.6642,0,0,1-1.4326-.7082q-1.1994-.8748-.5195-3.0137a6.6671,6.6671,0,0,1,.8755-1.7635,6.2269,6.2269,0,0,1,1.4733-1.507,7.4529,7.4529,0,0,1,2.0473-1.0394,8.1679,8.1679,0,0,1,2.6113-.3917,6.832,6.832,0,0,1,4.1759,1.0846l-1.2692,2.9535a4.223,4.223,0,0,0-3.5-1.507,4.59,4.59,0,0,0-2.0173.4221,2.1413,2.1413,0,0,0-1.1587,1.3263,1.3222,1.3222,0,0,0-.0207.9641,1.3964,1.3964,0,0,0,.5771.6024,3.7972,3.7972,0,0,0,.9759.3929q.57.15,1.1756.3311,3.8226,1.0556,2.7141,4.55a7.2634,7.2634,0,0,1-.6845,1.492,5.2633,5.2633,0,0,1-1.2991,1.4319,6.8848,6.8848,0,0,1-2.1225,1.0847A10.0188,10.0188,0,0,1,339.8512,255.1206Z" style="fill: #96b5c8"/>
      <path id="fullLogo-31" data-name="fullLogo" d="M125.9255,274.7207H122.063l-.8675,2.4125h-1.2538l3.5206-9.2195h1.0638l3.527,9.2195h-1.2474Zm-3.4953-.9942h3.1344l-1.57-4.3121Z"/>
      <path id="fullLogo-32" data-name="fullLogo" d="M132.5045,277.1332v-9.2195h2.6025a4.1909,4.1909,0,0,1,2.1276.5319,3.5986,3.5986,0,0,1,1.4278,1.5134,4.9286,4.9286,0,0,1,.51,2.2542v.5888a4.9421,4.9421,0,0,1-.5034,2.2859,3.5392,3.5392,0,0,1-1.4374,1.507,4.4526,4.4526,0,0,1-2.1751.5383Zm1.2158-8.2254v7.2312h1.279a2.7823,2.7823,0,0,0,2.1878-.8746,3.6138,3.6138,0,0,0,.782-2.4908v-.5387a3.6725,3.6725,0,0,0-.7377-2.443,2.6265,2.6265,0,0,0-2.0927-.8841Z"/>
      <path id="fullLogo-33" data-name="fullLogo" d="M140.8312,268.4646a.6977.6977,0,0,1,.1741-.4812.6546.6546,0,0,1,.5161-.1963.665.665,0,0,1,.5192.1963.6932.6932,0,0,1,.1773.4812.6935.6935,0,1,1-1.3867,0Zm1.2664,8.6686h-1.1715v-6.8513h1.1715Z"/>
      <path id="fullLogo-34" data-name="fullLogo" d="M146.2324,275.5438l1.697-5.2619h1.1968l-2.4569,6.8513h-.8928l-2.4822-6.8513h1.1968Z"/>
      <path id="fullLogo-35" data-name="fullLogo" d="M150.26,268.4646a.6981.6981,0,0,1,.1741-.4812.6546.6546,0,0,1,.5161-.1963.665.665,0,0,1,.5192.1963.6927.6927,0,0,1,.1773.4812.6935.6935,0,1,1-1.3867,0Zm1.2664,8.6686h-1.1714v-6.8513h1.1714Z"/>
      <path id="fullLogo-36" data-name="fullLogo" d="M157.39,275.3159a.8631.8631,0,0,0-.3578-.7377,3.4521,3.4521,0,0,0-1.2474-.4528,5.8929,5.8929,0,0,1-1.412-.4559,2.006,2.006,0,0,1-.7725-.6332,1.5106,1.5106,0,0,1-.25-.8738,1.7779,1.7779,0,0,1,.7124-1.4247,2.7827,2.7827,0,0,1,1.82-.5826,2.8645,2.8645,0,0,1,1.89.6016,1.9118,1.9118,0,0,1,.725,1.5387H157.32a1.058,1.058,0,0,0-.4084-.8295,1.5319,1.5319,0,0,0-1.0289-.3483,1.6018,1.6018,0,0,0-1,.2786.8775.8775,0,0,0-.3609.7282.71.71,0,0,0,.3356.64,4.1145,4.1145,0,0,0,1.2126.4115,6.3481,6.3481,0,0,1,1.4215.4686,2.0778,2.0778,0,0,1,.8073.6554,1.6132,1.6132,0,0,1,.2628.934,1.7536,1.7536,0,0,1-.7345,1.4722,3.08,3.08,0,0,1-1.9059.554,3.4515,3.4515,0,0,1-1.4564-.2913,2.3647,2.3647,0,0,1-.991-.8136,1.9607,1.9607,0,0,1-.3577-1.13h1.1714a1.2117,1.2117,0,0,0,.4717.934,1.8286,1.8286,0,0,0,1.162.3451,1.888,1.888,0,0,0,1.0669-.2691A.8268.8268,0,0,0,157.39,275.3159Z"/>
      <path id="fullLogo-37" data-name="fullLogo" d="M160.0933,268.4646a.6981.6981,0,0,1,.1741-.4812.6546.6546,0,0,1,.5161-.1963.665.665,0,0,1,.5192.1963.6932.6932,0,0,1,.1773.4812.6935.6935,0,1,1-1.3867,0Zm1.2664,8.6686h-1.1714v-6.8513H161.36Z"/>
      <path id="fullLogo-38" data-name="fullLogo" d="M162.9237,273.6442a4.0453,4.0453,0,0,1,.3958-1.811,2.95,2.95,0,0,1,1.1017-1.241,2.9982,2.9982,0,0,1,1.6115-.437,2.8894,2.8894,0,0,1,2.2637.9689,3.7269,3.7269,0,0,1,.8644,2.5771v.0823a4.0834,4.0834,0,0,1-.3831,1.7952,2.9091,2.9091,0,0,1-1.0955,1.2379,3.0329,3.0329,0,0,1-1.6368.4432,2.8819,2.8819,0,0,1-2.2574-.9688,3.7086,3.7086,0,0,1-.8643-2.5645Zm1.1778.1393a2.93,2.93,0,0,0,.5287,1.83,1.7917,1.7917,0,0,0,2.8336-.01,3.2056,3.2056,0,0,0,.5255-1.96,2.9275,2.9275,0,0,0-.535-1.8268,1.7023,1.7023,0,0,0-1.4216-.7,1.6822,1.6822,0,0,0-1.3993.69A3.1819,3.1819,0,0,0,164.1015,273.7835Z"/>
      <path id="fullLogo-39" data-name="fullLogo" d="M171.7379,270.2819l.038.8611a2.4962,2.4962,0,0,1,2.0516-.9878q2.1716,0,2.1909,2.4506v4.5274H174.847v-4.5338a1.5784,1.5784,0,0,0-.3388-1.0954,1.3579,1.3579,0,0,0-1.0353-.3546,1.6909,1.6909,0,0,0-1.0005.3039,2.0606,2.0606,0,0,0-.6712.7979v4.882H170.63v-6.8513Z"/>
      <path id="fullLogo-40" data-name="fullLogo" d="M180.6851,273.6442a4.0453,4.0453,0,0,1,.3958-1.811,2.95,2.95,0,0,1,1.1017-1.241,2.9982,2.9982,0,0,1,1.6115-.437,2.89,2.89,0,0,1,2.2638.9689,3.7273,3.7273,0,0,1,.8643,2.5771v.0823a4.082,4.082,0,0,1-.3831,1.7952,2.9085,2.9085,0,0,1-1.0955,1.2379,3.0329,3.0329,0,0,1-1.6368.4432,2.882,2.882,0,0,1-2.2574-.9688,3.7086,3.7086,0,0,1-.8643-2.5645Zm1.1778.1393a2.93,2.93,0,0,0,.5287,1.83,1.7917,1.7917,0,0,0,2.8336-.01,3.2056,3.2056,0,0,0,.5256-1.96,2.9275,2.9275,0,0,0-.5351-1.8268,1.7023,1.7023,0,0,0-1.4216-.7,1.6824,1.6824,0,0,0-1.3993.69A3.1819,3.1819,0,0,0,181.8629,273.7835Z"/>
      <path id="fullLogo-41" data-name="fullLogo" d="M188.9674,277.1332v-5.9458h-1.0827v-.9055h1.0827v-.7029a2.3334,2.3334,0,0,1,.5889-1.7033,2.2247,2.2247,0,0,1,1.6653-.6015,3.0979,3.0979,0,0,1,.8042.1068l-.0633.9443a3.367,3.367,0,0,0-.6332-.057,1.1425,1.1425,0,0,0-.88.3336,1.3516,1.3516,0,0,0-.31.9558v.7242h1.4627v.9055h-1.4627v5.9458Z"/>
      <path id="fullLogo-42" data-name="fullLogo" d="M203.3729,277.1332h-1.2221l-4.6414-7.1046v7.1046h-1.2221v-9.2195h1.2221l4.654,7.1362v-7.1362h1.2095Z"/>
      <path id="fullLogo-43" data-name="fullLogo" d="M208.1915,277.26a2.992,2.992,0,0,1-2.2668-.915,3.395,3.395,0,0,1-.8738-2.4473v-.2153a4.113,4.113,0,0,1,.3894-1.8205,3.0389,3.0389,0,0,1,1.0891-1.2537,2.74,2.74,0,0,1,1.5165-.4528,2.567,2.567,0,0,1,2.0769.88,3.8115,3.8115,0,0,1,.7409,2.52v.4875h-4.6414a2.4329,2.4329,0,0,0,.592,1.6369,1.86,1.86,0,0,0,1.4406.6237,2.04,2.04,0,0,0,1.0511-.2533,2.64,2.64,0,0,0,.7535-.6712l.7155.5572A2.8768,2.8768,0,0,1,208.1915,277.26Zm-.1456-6.1421a1.5623,1.5623,0,0,0-1.19.5161,2.5079,2.5079,0,0,0-.5952,1.4469h3.4319v-.0887a2.2334,2.2334,0,0,0-.4812-1.3835A1.4724,1.4724,0,0,0,208.0459,271.1177Z"/>
      <path id="fullLogo-44" data-name="fullLogo" d="M218.2848,275.5185l1.3171-5.2366h1.1714l-1.9946,6.8513h-.95l-1.6653-5.1923-1.621,5.1923h-.95l-1.9883-6.8513H212.77l1.3488,5.129,1.5956-5.129h.9435Z"/>
      <path id="fullLogo-45" data-name="fullLogo" d="M232.4433,277.1332h-1.2221v-4.2615h-4.6477v4.2615h-1.2158v-9.2195h1.2158v3.9639h4.6477v-3.9639h1.2221Z"/>
      <path id="fullLogo-46" data-name="fullLogo" d="M234.1086,273.6442a4.0453,4.0453,0,0,1,.3958-1.811,2.95,2.95,0,0,1,1.1018-1.241,2.998,2.998,0,0,1,1.6115-.437,2.8894,2.8894,0,0,1,2.2637.9689,3.7273,3.7273,0,0,1,.8643,2.5771v.0823a4.082,4.082,0,0,1-.3831,1.7952,2.9082,2.9082,0,0,1-1.0954,1.2379,3.0332,3.0332,0,0,1-1.6369.4432,2.8817,2.8817,0,0,1-2.2573-.9688,3.7086,3.7086,0,0,1-.8644-2.5645Zm1.1778.1393a2.93,2.93,0,0,0,.5287,1.83,1.7917,1.7917,0,0,0,2.8336-.01,3.2049,3.2049,0,0,0,.5256-1.96,2.9275,2.9275,0,0,0-.5351-1.8268,1.7021,1.7021,0,0,0-1.4215-.7,1.6824,1.6824,0,0,0-1.3994.69A3.1819,3.1819,0,0,0,235.2864,273.7835Z"/>
      <path id="fullLogo-47" data-name="fullLogo" d="M247.6022,273.7835a4.1026,4.1026,0,0,1-.7155,2.52,2.2937,2.2937,0,0,1-1.9376.9561,2.5111,2.5111,0,0,1-1.9629-.7915v3.299h-1.1714v-9.4854h1.07l.057.76a2.4133,2.4133,0,0,1,1.9882-.8865,2.3365,2.3365,0,0,1,1.9535.9309,4.15,4.15,0,0,1,.7186,2.59Zm-1.1714-.133a3.027,3.027,0,0,0-.4939-1.83,1.5919,1.5919,0,0,0-1.355-.6712,1.7222,1.7222,0,0,0-1.5957.9435v3.2736a1.725,1.725,0,0,0,1.6083.9372,1.5836,1.5836,0,0,0,1.3393-.6681A3.305,3.305,0,0,0,246.4308,273.6505Z"/>
      <path id="fullLogo-48" data-name="fullLogo" d="M251.9334,277.26a2.9921,2.9921,0,0,1-2.2669-.915,3.395,3.395,0,0,1-.8738-2.4473v-.2153a4.113,4.113,0,0,1,.3894-1.8205,3.0389,3.0389,0,0,1,1.0891-1.2537,2.74,2.74,0,0,1,1.5165-.4528,2.567,2.567,0,0,1,2.0769.88,3.8115,3.8115,0,0,1,.7409,2.52v.4875h-4.6414a2.4325,2.4325,0,0,0,.5921,1.6369,1.86,1.86,0,0,0,1.4405.6237,2.04,2.04,0,0,0,1.0511-.2533,2.64,2.64,0,0,0,.7535-.6712l.7155.5572A2.8766,2.8766,0,0,1,251.9334,277.26Zm-.1457-6.1421a1.5625,1.5625,0,0,0-1.19.5161,2.5086,2.5086,0,0,0-.5952,1.4469h3.432v-.0887a2.2335,2.2335,0,0,0-.4813-1.3835A1.4724,1.4724,0,0,0,251.7877,271.1177Z"/>
      <path id="fullLogo-49" data-name="fullLogo" d="M266.1362,274.2078a3.3925,3.3925,0,0,1-1.08,2.2573,3.5379,3.5379,0,0,1-2.4157.7947,3.2476,3.2476,0,0,1-2.6183-1.1714,4.7115,4.7115,0,0,1-.9847-3.1344v-.8865a5.25,5.25,0,0,1,.4591-2.26,3.4289,3.4289,0,0,1,1.3012-1.4975,3.6219,3.6219,0,0,1,1.95-.5224,3.3324,3.3324,0,0,1,2.3555.82,3.4357,3.4357,0,0,1,1.0322,2.27h-1.2221a2.65,2.65,0,0,0-.687-1.6,2.0782,2.0782,0,0,0-1.4786-.4955,2.1748,2.1748,0,0,0-1.8268.8619,3.9567,3.9567,0,0,0-.6617,2.4525v.8936a4.0669,4.0669,0,0,0,.6269,2.3892,2.0249,2.0249,0,0,0,1.754.8873,2.3386,2.3386,0,0,0,1.5545-.4591,2.5478,2.5478,0,0,0,.7187-1.5988Z"/>
      <path id="fullLogo-50" data-name="fullLogo" d="M267.3013,273.6442a4.0466,4.0466,0,0,1,.3957-1.811,2.95,2.95,0,0,1,1.1018-1.241,2.998,2.998,0,0,1,1.6115-.437,2.8894,2.8894,0,0,1,2.2637.9689,3.7273,3.7273,0,0,1,.8643,2.5771v.0823a4.082,4.082,0,0,1-.3831,1.7952,2.9082,2.9082,0,0,1-1.0954,1.2379,3.0329,3.0329,0,0,1-1.6368.4432,2.8818,2.8818,0,0,1-2.2574-.9688,3.7086,3.7086,0,0,1-.8643-2.5645Zm1.1777.1393a2.9293,2.9293,0,0,0,.5288,1.83,1.7916,1.7916,0,0,0,2.8335-.01,3.2049,3.2049,0,0,0,.5256-1.96,2.9275,2.9275,0,0,0-.5351-1.8268,1.7019,1.7019,0,0,0-1.4215-.7,1.6824,1.6824,0,0,0-1.3994.69A3.1819,3.1819,0,0,0,268.479,273.7835Z"/>
      <path id="fullLogo-51" data-name="fullLogo" d="M276.1092,270.2819l.0316.76a2.53,2.53,0,0,1,2.0326-.8865,1.9591,1.9591,0,0,1,1.9566,1.1018,2.5949,2.5949,0,0,1,.89-.7978,2.6265,2.6265,0,0,1,1.2949-.304q2.2539,0,2.2922,2.3872v4.5908h-1.1715v-4.5211a1.5744,1.5744,0,0,0-.3356-1.0986,1.4789,1.4789,0,0,0-1.1271-.3641,1.5527,1.5527,0,0,0-1.0827.3894,1.5781,1.5781,0,0,0-.5,1.048v4.5464h-1.1777v-4.4895a1.3071,1.3071,0,0,0-1.4627-1.4943,1.567,1.567,0,0,0-1.5767.9814v5.0024H275.001v-6.8513Z"/>
      <path id="fullLogo-52" data-name="fullLogo" d="M287.4752,270.2819l.0316.76a2.5306,2.5306,0,0,1,2.0326-.8865,1.9589,1.9589,0,0,1,1.9566,1.1018,2.5949,2.5949,0,0,1,.89-.7978,2.6268,2.6268,0,0,1,1.2949-.304q2.254,0,2.2922,2.3872v4.5908h-1.1714v-4.5211a1.5744,1.5744,0,0,0-.3356-1.0986,1.4791,1.4791,0,0,0-1.1271-.3641,1.5528,1.5528,0,0,0-1.0828.3894,1.5784,1.5784,0,0,0-.5,1.048v4.5464h-1.1778v-4.4895a1.3071,1.3071,0,0,0-1.4627-1.4943,1.5671,1.5671,0,0,0-1.5767.9814v5.0024h-1.1714v-6.8513Z"/>
      <path id="fullLogo-53" data-name="fullLogo" d="M301.9693,276.4556a2.4881,2.4881,0,0,1-2.0073.8042,2.129,2.129,0,0,1-1.6685-.6364,2.7514,2.7514,0,0,1-.5794-1.8837v-4.4578h1.1714v4.4261q0,1.5577,1.2665,1.5577a1.7532,1.7532,0,0,0,1.7856-1v-4.9833h1.1714v6.8513h-1.1144Z"/>
      <path id="fullLogo-54" data-name="fullLogo" d="M305.9964,270.2819l.038.8611a2.4962,2.4962,0,0,1,2.0516-.9878q2.1716,0,2.1909,2.4506v4.5274h-1.1714v-4.5338a1.5784,1.5784,0,0,0-.3388-1.0954,1.3579,1.3579,0,0,0-1.0353-.3546,1.69,1.69,0,0,0-1,.3039,2.0589,2.0589,0,0,0-.6712.7979v4.882h-1.1715v-6.8513Z"/>
      <path id="fullLogo-55" data-name="fullLogo" d="M312.05,268.4646a.6981.6981,0,0,1,.1741-.4812.6546.6546,0,0,1,.5161-.1963.665.665,0,0,1,.5192.1963.6932.6932,0,0,1,.1773.4812.6935.6935,0,1,1-1.3867,0Zm1.2664,8.6686h-1.1714v-6.8513h1.1714Z"/>
      <path id="fullLogo-56" data-name="fullLogo" d="M316.78,268.6229v1.659h1.2791v.9055H316.78v4.2543a.9517.9517,0,0,0,.171.6182.7206.7206,0,0,0,.5825.2058,2.8373,2.8373,0,0,0,.5573-.076v.9443a3.4169,3.4169,0,0,1-.8992.1258,1.4588,1.4588,0,0,1-1.1841-.4749,2.04,2.04,0,0,1-.3989-1.3487v-4.2488h-1.2474v-.9055h1.2474v-1.659Z"/>
      <path id="fullLogo-57" data-name="fullLogo" d="M321.6683,275.4172l1.5956-5.1353h1.2538l-2.7544,7.9087q-.64,1.71-2.0326,1.71l-.2217-.019-.4369-.0823v-.95l.3166.0253a1.5609,1.5609,0,0,0,.9277-.2406,1.7448,1.7448,0,0,0,.5477-.88l.26-.6965-2.4442-6.7753h1.2791Z"/>
      <path id="fullLogo-58" data-name="fullLogo" d="M324.847,278.97l-.6649-.4559a3.06,3.06,0,0,0,.62-1.71v-1.0574h1.1461v.9181a2.8837,2.8837,0,0,1-.3134,1.2791A2.9984,2.9984,0,0,1,324.847,278.97Z"/>
      <path id="fullLogo-59" data-name="fullLogo" d="M332.1288,277.1332h-1.2157v-9.2195h1.2157Z"/>
      <path id="fullLogo-60" data-name="fullLogo" d="M335.2759,270.2819l.0379.8611a2.4962,2.4962,0,0,1,2.0516-.9878q2.1716,0,2.1909,2.4506v4.5274h-1.1714v-4.5338a1.5784,1.5784,0,0,0-.3388-1.0954,1.3579,1.3579,0,0,0-1.0353-.3546,1.69,1.69,0,0,0-1,.3039,2.0606,2.0606,0,0,0-.6712.7979v4.882h-1.1715v-6.8513Z"/>
      <path id="fullLogo-61" data-name="fullLogo" d="M344.0711,276.3037a1.6876,1.6876,0,0,0,1.0954-.38,1.3374,1.3374,0,0,0,.5192-.95h1.1082a2.1283,2.1283,0,0,1-.4053,1.1208,2.671,2.671,0,0,1-.9973.8485,2.88,2.88,0,0,1-1.32.3166,2.8207,2.8207,0,0,1-2.2257-.934,3.7192,3.7192,0,0,1-.8264-2.5549v-.1963a4.1225,4.1225,0,0,1,.3673-1.7793,2.7951,2.7951,0,0,1,1.0543-1.2095,2.9954,2.9954,0,0,1,1.6241-.4306,2.75,2.75,0,0,1,1.9155.69,2.469,2.469,0,0,1,.8137,1.792h-1.1082a1.617,1.617,0,0,0-.5033-1.0923,1.5666,1.5666,0,0,0-1.1177-.4274,1.64,1.64,0,0,0-1.3835.6427,3.0178,3.0178,0,0,0-.4907,1.8585v.2216a2.9559,2.9559,0,0,0,.4875,1.8236A1.6462,1.6462,0,0,0,344.0711,276.3037Z"/>
      <path id="fullLogo-62" data-name="fullLogo" d="M348.1363,276.519a.7339.7339,0,0,1,.18-.5066.688.688,0,0,1,.5414-.2026.7086.7086,0,0,1,.5477.2026.72.72,0,0,1,.1868.5066.68.68,0,0,1-.1868.4875.7221.7221,0,0,1-.5477.1963.7008.7008,0,0,1-.5414-.1963A.6924.6924,0,0,1,348.1363,276.519Z"/>
    </g>
  </g>
</svg>
